<svg xmlns="http://www.w3.org/2000/svg" viewBox="0 0 256 256" xmlns:v="https://vecta.io/nano"><defs><filter id="A" filterUnits="userSpaceOnUse" x="-.16" y=".66" width="256.16" height="254.68"><feColorMatrix values="1 0 0 0 0 0 1 0 0 0 0 0 1 0 0 0 0 0 1 0"/></filter></defs><mask maskUnits="userSpaceOnUse" x="-.16" y=".66" width="256.16" height="254.68" id="B"><path d="M181.53 254.25a15.93 15.93 0 0 0 12.7-.49l52.71-25.36c5.54-2.66 9.06-8.27 9.06-14.42V42.02c0-6.15-3.52-11.75-9.06-14.42L194.23 2.24C188.89-.33 182.64.3 177.95 3.71a16.3 16.3 0 0 0-1.91 1.63L75.15 97.39 31.2 64.02c-4.09-3.11-9.81-2.85-13.61.61L3.49 77.45a10.67 10.67 0 0 0-.01 15.77L41.59 128 3.48 162.77a10.68 10.68 0 0 0 .01 15.78l14.1 12.82c3.8 3.46 9.52 3.71 13.61.61l43.95-33.36 100.9 92.05c1.6 1.59 3.47 2.8 5.48 3.58zm10.51-184.36L115.48 128l76.56 58.12V69.89z" fill-rule="evenodd" fill="#fff" filter="url(#A)"/></mask><g mask="url(#B)"><path d="M246.94 27.64l-52.75-25.4C188.09-.7 180.79.54 176 5.33L3.32 162.77a10.68 10.68 0 0 0 .01 15.78l14.1 12.82a10.67 10.67 0 0 0 13.62.61L239 34.23c6.98-5.29 17-.32 17 8.44v-.61c0-6.15-3.52-11.76-9.06-14.42z" fill="#0065a9"/><path d="M246.94 228.36l-52.75 25.4c-6.1 2.94-13.4 1.7-18.19-3.09L3.32 93.23a10.67 10.67 0 0 1 .01-15.77l14.1-12.82a10.67 10.67 0 0 1 13.62-.61L239 221.77c6.98 5.29 17 .32 17-8.44v.61c0 6.15-3.52 11.76-9.06 14.42z" fill="#007acc"/><path d="M194.2 253.76c-6.11 2.94-13.4 1.7-18.2-3.1 5.9 5.9 16 1.72 16-6.63V11.96c0-8.35-10.1-12.53-16-6.63 4.79-4.79 12.09-6.03 18.2-3.1l52.74 25.36c5.54 2.67 9.07 8.27 9.07 14.42v171.97c0 6.15-3.52 11.75-9.07 14.42l-52.74 25.36z" fill="#1f9cf0"/><g opacity=".25"><linearGradient id="C" gradientUnits="userSpaceOnUse" x1="127.844" y1=".66" x2="127.844" y2="255.34"><stop offset="0" stop-color="#fff"/><stop offset="1" stop-color="#fff" stop-opacity="0"/></linearGradient><path d="M181.38 254.25a15.93 15.93 0 0 0 12.7-.49l52.71-25.36c5.54-2.66 9.06-8.27 9.06-14.42V42.02c0-6.15-3.52-11.75-9.06-14.42L194.08 2.24C188.74-.33 182.49.3 177.8 3.71a16.3 16.3 0 0 0-1.91 1.63L74.99 97.39 31.04 64.02c-4.09-3.11-9.81-2.85-13.61.61L3.33 77.45a10.68 10.68 0 0 0-.01 15.78L41.44 128 3.32 162.77a10.68 10.68 0 0 0 .01 15.78l14.1 12.82c3.8 3.46 9.52 3.71 13.61.61l43.95-33.36 100.9 92.05a15.94 15.94 0 0 0 5.49 3.58zm10.5-184.36L115.32 128l76.56 58.12V69.89z" fill-rule="evenodd" fill="url(#C)"/></g></g></svg>