<?xml version="1.0" encoding="UTF-8"?>
<!-- Generator: visioncortex VTracer 0.6.3 -->
<svg id="pattern3mask" version="1.1" xmlns="http://www.w3.org/2000/svg" width="1280" height="952">
<path d="M0 0 C4.44 3.52 5.52 7.75 7 13 C7.99 13 8.98 13 10 13 C10.25 12.22 10.5 11.43 10.75 10.62 C12.15 7.68 13.01 7.1 16 6 C20.81 9.77 20.81 9.77 22.5 11.81 C24.01 13.29 24.01 13.29 26.5 12.75 C28.34 12.2 30.17 11.61 32 11 C32 11.99 32 12.98 32 14 C35.73 12.88 35.73 12.88 38 10 C42.14 7.03 46.96 4.82 52 4 C55.56 5.31 55.56 5.31 58 7 C58.33 6.01 58.66 5.02 59 4 C59.99 5.32 60.98 6.64 62 8 C65.25 6.28 65.25 6.28 66 3 C67.32 3 68.64 3 70 3 C70.66 3.99 71.32 4.98 72 6 C72.52 5.84 73.03 5.67 73.56 5.5 C76.73 4.85 79.77 4.94 83 5 C83.33 6.32 83.66 7.64 84 9 C85.11 8.96 86.23 8.92 87.38 8.88 C91 9 91 9 93 11 C94.99 11.69 96.99 12.36 99 13 C99.33 13.33 99.66 13.66 100 14 C101.22 14.1 102.43 14.21 103.69 14.31 C107.08 14.67 108.06 15.04 111 17.12 C115.17 19.73 117.28 18.98 122 18 C121.31 19.94 121.31 19.94 120 22 C117.38 22.75 117.38 22.75 115 23 C114.67 24.32 114.34 25.64 114 27 C117.3 27.33 120.6 27.66 124 28 C124.66 29.65 125.32 31.3 126 33 C126.99 33 127.98 33 129 33 C129.33 32.01 129.66 31.02 130 30 C131.32 30 132.64 30 134 30 C134 30.99 134 31.98 134 33 C132.68 33.66 131.36 34.32 130 35 C130.16 35.74 130.33 36.48 130.5 37.25 C131 40 131 40 131 44 C131.45 45.52 131.95 47.02 132.5 48.5 C133.69 51.73 134 53.42 134 57 C135.31 58.04 136.64 59.03 138 60 C140.61 63.57 141.73 66.58 142 71 C141.06 74.37 141.06 74.37 140 77 C139.34 77 138.68 77 138 77 C138.99 79.31 139.98 81.62 141 84 C142.65 84 144.3 84 146 84 C146 85.32 146 86.64 146 88 C147.49 87.5 147.49 87.5 149 87 C148.5 86.4 148.01 85.8 147.5 85.19 C146 83 146 83 146 80 C146.99 80 147.98 80 149 80 C149 79.34 149 78.68 149 78 C156.9 73.08 165.01 73.35 174 74 C174.33 74.33 174.66 74.66 175 75 C177.92 75.33 177.92 75.33 181 75 C182.75 73.58 182.75 73.58 184 72 C184.66 72 185.32 72 186 72 C186 72.66 186 73.32 186 74 C187.26 73.77 188.52 73.55 189.81 73.31 C193.71 72.84 193.71 72.84 196 74.12 C197.28 76.53 197.22 78.31 197 81 C195.87 81.43 194.73 81.87 193.56 82.31 C192.39 82.87 191.21 83.43 190 84 C189.67 84.99 189.34 85.98 189 87 C192.97 87.87 196.89 88.38 200.94 88.75 C202.12 88.87 203.31 88.99 204.53 89.11 C208.46 88.99 210.6 87.9 214 86 C216.88 85.81 216.88 85.81 219 86 C219.33 87.65 219.66 89.3 220 91 C221.58 90.5 221.58 90.5 223.19 90 C226.39 89.16 228.74 88.8 232 89 C232 89.66 232 90.32 232 91 C232.99 91.33 233.98 91.66 235 92 C235 92.99 235 93.98 235 95 C236.32 94.67 237.64 94.34 239 94 C239.33 95.32 239.66 96.64 240 98 C237.53 97.01 237.53 97.01 235 96 C235 96.66 235 97.32 235 98 C234.34 98 233.68 98 233 98 C232.88 98.78 232.75 99.57 232.62 100.38 C232 103 232 103 230 105 C228.02 105.21 228.02 105.21 225.61 105.16 C224.73 105.15 223.86 105.14 222.96 105.13 C222.04 105.11 221.13 105.08 220.19 105.06 C212.54 104.91 212.54 104.91 205 106 C202.69 105.06 202.69 105.06 201 104 C201 102.68 201 101.36 201 100 C200.34 100 199.68 100 199 100 C198.67 101.65 198.34 103.3 198 105 C196.51 105.5 196.51 105.5 195 106 C194.67 107.65 194.34 109.3 194 111 C194.99 111.33 195.98 111.66 197 112 C199 115 199 115 198.88 117.94 C197.89 121.4 196.8 122.79 194 125 C193.34 125 192.68 125 192 125 C193.6 127.19 193.6 127.19 196 129 C199.49 128.93 201.35 128.53 204.06 126.31 C204.7 125.88 205.34 125.45 206 125 C209.18 125.72 210.71 126.69 212.94 129.06 C215.6 131.57 217.38 131.92 221 132 C221.4 131.55 221.8 131.1 222.21 130.64 C224.88 128.19 228.07 127.65 231.5 126.81 C232.18 126.64 232.85 126.46 233.55 126.28 C236.45 125.54 239 125 242 125 C242.33 125.66 242.66 126.32 243 127 C245.31 127 247.62 127 250 127 C250.33 127.99 250.66 128.98 251 130 C251.66 130 252.32 130 253 130 C253.33 131.65 253.66 133.3 254 135 C255.21 134.91 255.21 134.91 256.45 134.82 C265.23 134.45 265.23 134.45 269 137.12 C271.04 140.06 273.03 143.02 275 146 C276.14 147.05 276.14 147.05 277.31 148.12 C278.15 149.05 278.15 149.05 279 150 C278.75 152.25 278.75 152.25 278 154 C279.98 154.66 281.96 155.32 284 156 C284 156.66 284 157.32 284 158 C284.66 158 285.32 158 286 158 C287.69 159.25 287.69 159.25 289 161 C288.69 163.19 288.69 163.19 288 165 C286.68 165 285.36 165 284 165 C284.33 165.99 284.66 166.98 285 168 C287.1 169.02 287.1 169.02 289.56 169.69 C290.39 169.94 291.22 170.19 292.07 170.45 C292.7 170.63 293.34 170.81 294 171 C294 171.66 294 172.32 294 173 C297.3 172.34 300.6 171.68 304 171 C303.67 172.65 303.34 174.3 303 176 C302.01 176.33 301.02 176.66 300 177 C299.44 178.73 299.44 178.73 299 181 C297.1 187.25 297.1 187.25 294.02 189.34 C292.04 190.32 290.07 191.21 288 192 C288.13 192.66 288.26 193.33 288.39 194.01 C288.82 196.74 289.12 199.23 289 202 C286.56 205.12 286.56 205.12 284 207 C285.14 207.19 285.14 207.19 286.31 207.38 C289 208 289 208 292 210 C291.12 214.75 291.12 214.75 290 217 C290.66 217.33 291.32 217.66 292 218 C292 218.66 292 219.32 292 220 C292.99 220 293.98 220 295 220 C295 219.34 295 218.68 295 218 C298.19 216.98 300.42 217.04 303.69 217.75 C304.48 217.91 305.26 218.07 306.07 218.23 C306.71 218.49 307.35 218.74 308 219 C308.33 219.99 308.66 220.98 309 222 C310.33 222.36 311.66 222.69 313 223 C314.75 224.37 314.75 224.37 316.44 226 C319.22 228.5 321.15 229.77 325 230 C325.12 230.6 325.24 231.21 325.37 231.83 C325.53 232.63 325.7 233.43 325.88 234.25 C326.04 235.04 326.2 235.83 326.37 236.64 C327 239 327.74 240.91 329 243 C330.02 243.46 330.02 243.46 331.06 243.94 C331.7 244.29 332.34 244.64 333 245 C333.75 247.63 333.75 247.63 334 250 C329.25 251.12 329.25 251.12 327 250 C327 252.31 327 254.62 327 257 C329.31 256.67 331.62 256.34 334 256 C333.01 259.96 332.02 263.92 331 268 C329.02 268.5 329.02 268.5 327 269 C327 270.32 327 271.64 327 273 C326.36 273.1 325.72 273.21 325.06 273.31 C324.38 273.54 323.7 273.77 323 274 C322.67 274.99 322.34 275.98 322 277 C321.34 277 320.68 277 320 277 C319.75 277.58 319.51 278.15 319.25 278.75 C318 281 318 281 315.94 282.69 C313.74 285.31 313.72 286.19 313.5 289.5 C313.27 292.86 313.17 293.78 311.06 296.56 C309 298 309 298 307 298 C307 298.66 307 299.32 307 300 C306.34 300 305.68 300 305 300 C305 300.99 305 301.98 305 303 C303.54 304.39 303.54 304.39 301.62 305.69 C301 306.12 300.37 306.56 299.73 307.01 C298 308 298 308 296 308 C295.63 309.33 295.63 309.33 295.25 310.69 C293.95 314.14 292.36 316.2 290 319 C289.67 319.7 289.34 320.4 289 321.12 C287.73 323.5 286.27 324.58 284 326 C283.34 326 282.68 326 282 326 C282.16 326.93 282.33 327.86 282.5 328.81 C283 332 283 332 283 335 C284.65 334.67 286.3 334.34 288 334 C287.67 333.01 287.34 332.02 287 331 C288.88 331.25 288.88 331.25 291 332 C292.25 334.06 292.25 334.06 293 336 C293.76 335.81 294.53 335.63 295.31 335.44 C298 335 298 335 301 336 C302.33 336.22 303.66 336.4 305 336.56 C305.68 336.65 306.36 336.73 307.06 336.82 C309.17 337.05 309.17 337.05 312 337 C313.67 337.31 315.34 337.64 317 338 C316.34 339.65 315.68 341.3 315 343 C316.98 342.34 318.96 341.68 321 341 C321.33 342.32 321.66 343.64 322 345 C319.03 344.67 316.06 344.34 313 344 C313 344.99 313 345.98 313 347 C313.56 347.12 314.11 347.25 314.69 347.38 C317 348 317 348 319.5 349.19 C321.96 350.29 321.96 350.29 324.12 349.12 C324.74 348.75 325.36 348.38 326 348 C326.99 348 327.98 348 329 348 C329.66 348.66 330.32 349.32 331 350 C332.18 349.94 332.18 349.94 333.38 349.88 C336.91 350.04 337.63 351.48 340 354 C341.65 354.7 343.32 355.37 345 356 C346.02 356.8 346.02 356.8 347.06 357.62 C349.15 359.39 349.15 359.39 353 359 C354.34 359.3 355.68 359.62 357 360 C357.33 358.35 357.66 356.7 358 355 C358.66 355 359.32 355 360 355 C360.37 355.93 360.37 355.93 360.75 356.88 C362.21 359.35 363.38 359.95 366 361 C365.67 363.64 365.34 366.28 365 369 C365.66 369 366.32 369 367 369 C367.1 368.26 367.21 367.51 367.31 366.75 C368.1 363.62 368.67 362.24 371 360 C373.66 359.65 375.86 359.53 378.5 359.62 C379.52 359.63 379.52 359.63 380.55 359.63 C384.22 359.69 385.88 359.92 389 362 C388.12 369.88 388.12 369.88 387 371 C383.8 371.17 381.07 370.91 378 370 C377.67 371.65 377.34 373.3 377 375 C374.5 373.69 374.5 373.69 372 372 C372 371.01 372 370.02 372 369 C370.68 369 369.36 369 368 369 C368.33 370.32 368.66 371.64 369 373 C369.66 373 370.32 373 371 373 C371 373.66 371 374.32 371 375 C372.65 375.33 374.3 375.66 376 376 C376.33 377.32 376.66 378.64 377 380 C377.66 380 378.32 380 379 380 C379.27 380.8 379.54 381.61 379.81 382.44 C380.2 383.28 380.6 384.13 381 385 C381.99 385.33 382.98 385.66 384 386 C383.67 388.31 383.34 390.62 383 393 C383.99 393.33 384.98 393.66 386 394 C386 395.65 386 397.3 386 399 C385.01 399 384.02 399 383 399 C382.67 398.01 382.34 397.02 382 396 C381.01 395.67 380.02 395.34 379 395 C379.36 398.27 379.69 399.69 382.06 402.06 C382.7 402.7 383.34 403.34 384 404 C384 405.32 384 406.64 384 408 C385.32 408.33 386.64 408.66 388 409 C387.67 410.32 387.34 411.64 387 413 C385.02 413.5 385.02 413.5 383 414 C383.92 418.31 384.85 422.54 386.19 426.75 C387.01 430.03 386.97 431.81 386 435 C384.68 435 383.36 435 382 435 C382 434.34 382 433.68 382 433 C380.02 432.34 378.04 431.68 376 431 C376 431.66 376 432.32 376 433 C375.01 433.33 374.02 433.66 373 434 C373.49 434.45 373.99 434.91 374.5 435.38 C376 437 376 437 376 439 C376.64 439.12 377.28 439.25 377.94 439.38 C378.96 439.68 378.96 439.68 380 440 C381.55 443.09 381.29 445.59 381 449 C379 451.44 379 451.44 377 453 C376.73 452.38 376.46 451.76 376.19 451.12 C375.04 448.7 375.04 448.7 372 447 C372 446.01 372 445.02 372 444 C369.98 444.72 369.98 444.72 368 446 C367.19 448.05 367.19 448.05 367 450 C365.5 448.79 365.5 448.79 364 447 C363.81 444.81 363.81 444.81 364 442.44 C364.25 440.11 364.25 440.11 364 438 C363.01 437.34 362.02 436.68 361 436 C361.25 436.91 361.49 437.81 361.75 438.75 C362 442 362 442 360.06 444.38 C359.38 444.91 358.7 445.45 358 446 C357.01 445.34 356.02 444.68 355 444 C355 443.01 355 442.02 355 441 C354.34 441.33 353.68 441.66 353 442 C353.37 442.76 353.74 443.53 354.12 444.31 C354.41 445.2 354.7 446.09 355 447 C354.34 447.99 353.68 448.98 353 450 C353.8 453.16 353.8 453.16 355 456 C356.32 455.34 357.64 454.68 359 454 C359.33 455.32 359.66 456.64 360 458 C359.34 458 358.68 458 358 458 C357.34 459.32 356.68 460.64 356 462 C354.12 461.44 354.12 461.44 352 460 C351.31 457.67 350.64 455.34 350 453 C349.01 452.67 348.02 452.34 347 452 C347.33 453.65 347.66 455.3 348 457 C348.99 457.33 349.98 457.66 351 458 C350.73 459.89 350.73 459.89 350 462 C348.33 463.01 348.33 463.01 346.25 463.69 C345.17 464.04 345.17 464.04 344.06 464.4 C339.58 465.7 336.58 466.18 332 465 C332 464.01 332 463.02 332 462 C329.69 462.66 327.38 463.32 325 464 C325.33 465.98 325.66 467.96 326 470 C327.32 470 328.64 470 330 470 C330 471.65 330 473.3 330 475 C328.35 475.33 326.7 475.66 325 476 C324.67 476.99 324.34 477.98 324 479 C322.68 479 321.36 479 320 479 C320 480.32 320 481.64 320 483 C319.25 483.12 318.5 483.24 317.73 483.37 C316.75 483.53 315.76 483.7 314.75 483.88 C313.78 484.04 312.8 484.2 311.8 484.37 C309.23 484.95 307.28 485.71 305 487 C305 487.66 305 488.32 305 489 C304.39 489.22 303.77 489.44 303.14 489.66 C297.37 491.93 295.75 493.37 293 499 C290.68 499.39 288.34 499.72 286 500 C283.21 502.46 283.21 502.46 281 505 C280.34 505 279.68 505 279 505 C280.16 507.54 280.16 507.54 282 510 C284.59 510.89 284.59 510.89 287 511 C287.66 509.68 288.32 508.36 289 507 C291.44 507.38 291.44 507.38 294 508 C294.33 508.66 294.66 509.32 295 510 C297.32 510.72 299.65 511.38 302 512 C302.99 512.5 302.99 512.5 304 513 C303.94 512.07 303.88 511.14 303.81 510.19 C304 507 304 507 305 505.12 C308.15 503.35 311.47 503.45 315 504 C315.99 504.66 316.98 505.32 318 506 C321.01 505.66 321.01 505.66 324 505 C324.99 505 325.98 505 327 505 C328.02 504.02 329.02 503.02 330 502 C330.66 502 331.32 502 332 502 C332.35 502.78 332.7 503.57 333.06 504.38 C335.65 507.87 337.7 507.83 341.84 508.54 C344.49 509.11 346.12 510.04 348 512 C348 512.66 348 513.32 348 514 C349.98 513.67 351.96 513.34 354 513 C354.33 511.35 354.66 509.7 355 508 C355.72 508.1 356.44 508.21 357.19 508.31 C360.27 508.27 360.27 508.27 362.56 505.44 C363.37 504.63 364.17 503.83 365 503 C367.31 503.19 367.31 503.19 369 504 C369 504.66 369 505.32 369 506 C370.32 506.66 371.64 507.32 373 508 C373 508.99 373 509.98 373 511 C382.38 512.73 382.38 512.73 391 510 C391.66 509.01 392.32 508.02 393 507 C393 507.99 393 508.98 393 510 C399.16 511.73 404.73 513.09 411 511 C414.12 511.81 414.12 511.81 417 513 C417.33 513.66 417.66 514.32 418 515 C418.8 515.29 419.61 515.58 420.44 515.88 C423.46 517.2 423.73 518.08 425 521 C425.61 520.97 426.23 520.93 426.86 520.89 C428.08 520.85 428.08 520.85 429.31 520.81 C430.11 520.78 430.91 520.74 431.74 520.71 C434.52 521.07 435.17 521.96 437 524 C439.61 524.72 439.61 524.72 442 525 C442.33 525.99 442.66 526.98 443 528 C445.88 530.21 447.81 530.98 451.44 531.44 C455.58 532.09 457.56 533.68 461 536 C465.88 537.85 465.88 537.85 470.89 537.34 C474.2 536.81 475.9 538.44 478.62 540.25 C480.07 541.19 480.07 541.19 481.54 542.14 C484 544 484 544 486 547 C484.51 549.47 484.51 549.47 483 552 C483.99 552 484.98 552 486 552 C485.36 555.71 485.36 555.71 483.44 557.25 C481.44 559.68 481.47 561.94 481.57 565.01 C482.28 568.27 484.56 569.86 487 572 C488.27 574.99 487.98 576.94 487 580 C488.98 580 490.96 580 493 580 C493.33 581.32 493.66 582.64 494 584 C490 584 490 584 488 583 C487.92 585.65 487.99 587.96 488.56 590.56 C489.02 593.1 488.81 594.58 488 597 C488.66 597 489.32 597 490 597 C489.54 599.21 489.06 601.41 488.55 603.61 C488.11 605.52 487.7 607.45 487.31 609.38 C486 612 486 612 482.56 613.88 C479 615 479 615 476 615 C476.51 617.17 477 619 478 621 C476.35 621 474.7 621 473 621 C472.67 623.31 472.34 625.62 472 628 C475.07 627.22 475.07 627.22 477 625 C478.25 628.55 477.72 630.72 476.56 634.25 C476.28 635.14 475.99 636.03 475.69 636.95 C475.46 637.63 475.24 638.3 475 639 C474.34 639 473.68 639 473 639 C472.67 637.68 472.34 636.36 472 635 C470.35 634.67 468.7 634.34 467 634 C466.71 633.03 466.42 632.06 466.12 631.06 C465.36 627.89 465.36 627.89 463 627 C462.67 629.97 462.34 632.94 462 636 C460.02 636.33 458.04 636.66 456 637 C455.67 637.99 455.34 638.98 455 640 C454.34 640 453.68 640 453 640 C452.75 640.95 452.51 641.9 452.25 642.88 C451 646 451 646 449 647.19 C448.34 647.46 447.68 647.72 447 648 C446.34 648.99 445.68 649.98 445 651 C442.38 651.19 442.38 651.19 440 651 C439.94 651.72 439.88 652.44 439.81 653.19 C438.72 656.96 437.05 658.57 434 661 C431.19 661.31 431.19 661.31 429 661 C429 661.66 429 662.32 429 663 C428.34 663 427.68 663 427 663 C426.67 661.35 426.34 659.7 426 658 C422.94 659.79 422.94 659.79 420 662 C420 662.99 420 663.98 420 665 C419.05 664.98 418.1 664.96 417.12 664.94 C414.09 664.77 414.09 664.77 412 666 C410.33 666.04 408.67 666.04 407 666 C406.67 667.65 406.34 669.3 406 671 C405.01 670.67 404.02 670.34 403 670 C402.67 668.35 402.34 666.7 402 665 C401.67 665.33 401.34 665.66 401 666 C399.33 666.09 399.33 666.09 397.62 666.19 C396.43 666.46 395.23 666.72 394 667 C392.27 669.95 392.27 669.95 391 673 C388.81 673.88 388.81 673.88 387 674 C386.96 674.56 386.92 675.11 386.88 675.69 C385.57 679.14 383.14 681.2 380 683 C376.62 683.31 376.62 683.31 374 683 C374 682.01 374 681.02 374 680 C374.99 680 375.98 680 377 680 C377.33 677.36 377.66 674.72 378 672 C377.34 672 376.68 672 376 672 C376 674.31 376 676.62 376 679 C369.1 679 364.43 678.91 358 676 C357.67 676.99 357.34 677.98 357 679 C355.35 678.67 353.7 678.34 352 678 C351.67 678.99 351.34 679.98 351 681 C352.32 681 353.64 681 355 681 C354.67 682.32 354.34 683.64 354 685 C352.68 684.34 351.36 683.68 350 683 C350.21 683.78 350.41 684.57 350.62 685.38 C350.75 686.24 350.87 687.11 351 688 C350.34 688.66 349.68 689.32 349 690 C347.31 694.13 346.69 697.55 347 702 C347.33 702.33 347.66 702.66 348 703 C348.28 705.55 348.45 708.1 348.62 710.65 C348.79 713.19 348.79 713.19 351 715 C352.98 715.71 354.98 716.39 357 717 C355.02 717.99 355.02 717.99 353 719 C353.08 719.89 353.16 720.77 353.25 721.69 C352.95 725.72 351.59 727 349 730 C349 730.99 349 731.98 349 733 C348.01 733.33 347.02 733.66 346 734 C345.01 738.95 344.02 743.9 343 749 C341.68 749.33 340.36 749.66 339 750 C339 751.98 339 753.96 339 756 C338.24 756.14 337.47 756.29 336.69 756.44 C333.92 756.96 333.92 756.96 331 758 C331.23 758.58 331.45 759.15 331.69 759.75 C332 762 332 762 330.56 764.25 C329.79 765.12 329.79 765.12 329 766 C330.32 766 331.64 766 333 766 C333.33 765.01 333.66 764.02 334 763 C338.12 759.88 338.12 759.88 341.31 760.31 C341.87 760.54 342.43 760.77 343 761 C342.42 764.91 340.73 767.2 338 770 C333.61 772.05 329.8 772.19 325 772 C324.67 772.99 324.34 773.98 324 775 C320.37 775.33 316.74 775.66 313 776 C313.12 777.58 313.12 777.58 313.25 779.19 C312.96 783.54 311.98 784.93 309 788 C307.02 787.67 305.04 787.34 303 787 C302.67 785.35 302.34 783.7 302 782 C298.49 782 295.44 782.38 292 783 C291.67 782.34 291.34 781.68 291 781 C291.33 780.01 291.66 779.02 292 778 C289.24 779.58 286.78 781.18 284.31 783.19 C282 785 282 785 280 785 C279.67 785.66 279.34 786.32 279 787 C279 786.34 279 785.68 279 785 C274.9 783.98 274.9 783.98 271 785 C267.05 783.56 263.69 782.32 261 779 C260.67 780.98 260.34 782.96 260 785 C258.35 785 256.7 785 255 785 C255 784.01 255 783.02 255 782 C253.68 782 252.36 782 251 782 C250.34 782.99 249.68 783.98 249 785 C248.01 785.14 247.02 785.29 246 785.44 C245.01 785.62 244.02 785.81 243 786 C241.7 787.93 241.7 787.93 241 790 C238.3 791.35 236.14 791.13 233.12 791.12 C232.08 791.13 231.03 791.13 229.95 791.13 C227.42 791.02 225.41 790.66 223 790 C222.01 790 221.02 790 220 790 C220.31 790.76 220.62 791.53 220.94 792.31 C223.1 797.77 223.1 797.77 222.06 800.19 C221.71 800.79 221.36 801.38 221 802 C219 802.04 217 802.04 215 802 C214 801 214 801 213.94 798.69 C213.96 797.8 213.98 796.91 214 796 C214 794.68 214 793.36 214 792 C213.34 792 212.68 792 212 792 C211.34 793.32 210.68 794.64 210 796 C206.37 795.69 205.17 795.17 202.56 792.5 C199.63 789.64 198.01 789.28 194 789 C194.33 789.6 194.66 790.2 195 790.81 C196 793 196 793 196 796 C195.4 795.69 194.8 795.38 194.19 795.06 C191.91 793.9 191.91 793.9 189 793 C189 794.98 189 796.96 189 799 C184.47 801.04 180.52 801.38 175.62 801.66 C172.96 802.01 171.37 802.8 169 804 C166.33 804 163.67 804 161 804 C158.59 804.66 158.59 804.66 157 806 C156.67 806.99 156.34 807.98 156 809 C154.38 810.39 152.71 811.73 151 813 C146.76 811.25 142.92 809.4 139 807 C138.01 806.67 137.02 806.34 136 806 C134.63 806.95 133.3 807.95 132 809 C131.34 809 130.68 809 130 809 C130.19 810.09 130.37 811.19 130.56 812.31 C131 816 131 816 130 819 C127.94 820.44 127.94 820.44 125 821 C122.15 819.96 119.59 818.56 117 817 C117.61 814.04 118.25 812.62 120 810 C120.99 810 121.98 810 123 810 C123 809.01 123 808.02 123 807 C121.35 807.66 119.7 808.32 118 809 C118 809.66 118 810.32 118 811 C115.54 813.46 114.13 813.99 110.62 814.38 C106.93 815.01 106.46 815.24 104 817.69 C103.01 818.45 102.02 819.21 101 820 C97.59 819.43 95.07 818.53 92 817 C89.67 816.96 87.33 816.96 85 817 C85 817.66 85 818.32 85 819 C84.62 822.06 84.62 822.06 84 825 C83.34 825.33 82.68 825.66 82 826 C81.34 825.67 80.68 825.34 80 825 C76.72 824.72 73.45 824.55 70.16 824.38 C67.2 824.02 65.55 823.45 63 822 C62.17 821.86 61.35 821.71 60.5 821.56 C57.68 820.93 56.18 819.85 54 818 C53.67 818.33 53.34 818.66 53 819 C51.33 819.04 49.67 819.04 48 819 C47.34 819 46.68 819 46 819 C44.8 818.96 43.61 818.92 42.38 818.88 C36.69 818.89 31.84 820.02 26.81 822.69 C23.59 824.19 22.3 824.19 19 823 C18.34 822.34 17.68 821.68 17 821 C17 820.01 17 819.02 17 818 C16.4 817.88 15.8 817.75 15.19 817.62 C13 817 13 817 10 815 C7.95 815.11 7.95 815.11 5.88 815.75 C5.17 815.93 4.47 816.11 3.74 816.3 C1.79 816.86 1.79 816.86 1 819 C0.34 819 -0.32 819 -1 819 C-1.66 817.68 -2.32 816.36 -3 815 C-3.99 815.33 -4.98 815.66 -6 816 C-5.34 814.02 -4.68 812.04 -4 810 C-4.99 810.33 -5.98 810.66 -7 811 C-7.13 811.84 -7.27 812.69 -7.4 813.55 C-7.58 814.65 -7.76 815.75 -7.94 816.88 C-8.11 817.97 -8.29 819.06 -8.46 820.18 C-9 823 -9 823 -10 825 C-8.02 825.33 -6.04 825.66 -4 826 C-4 826.99 -4 827.98 -4 829 C-10.75 831.12 -10.75 831.12 -13 830 C-13.25 830.76 -13.5 831.53 -13.75 832.31 C-15.21 835.44 -15.89 836.49 -19 838 C-21.28 838.16 -23.5 838.13 -25.78 838.01 C-28.03 838 -29.85 838.36 -32 839 C-31.67 837.02 -31.34 835.04 -31 833 C-31.62 833.35 -32.24 833.7 -32.88 834.06 C-36.76 835.23 -39.72 834.76 -43.7 834.19 C-46.16 833.83 -46.16 833.83 -49 835 C-49.33 834.01 -49.66 833.02 -50 832 C-51.65 831.67 -53.3 831.34 -55 831 C-55 830.34 -55 829.68 -55 829 C-55.99 829 -56.98 829 -58 829 C-58 830.98 -58 832.96 -58 835 C-59.32 835.66 -60.64 836.32 -62 837 C-62.33 836.67 -62.66 836.34 -63 836 C-65.67 835.86 -68.32 835.96 -71 836 C-71 836.66 -71 837.32 -71 838 C-71.68 838.37 -72.36 838.74 -73.06 839.12 C-75.94 840.96 -77.29 842.49 -79.38 845.12 C-81.75 847.98 -83.2 849.5 -86.94 850 C-87.95 850 -88.96 850 -90 850 C-90.33 850.99 -90.66 851.98 -91 853 C-91.99 852.34 -92.98 851.68 -94 851 C-94 850.34 -94 849.68 -94 849 C-94.99 849 -95.98 849 -97 849 C-97 847.02 -97 845.04 -97 843 C-97.66 843.66 -98.32 844.32 -99 845 C-101.91 845.15 -104.72 845.19 -107.62 845.12 C-108.43 845.12 -109.23 845.11 -110.05 845.1 C-112.04 845.07 -114.02 845.04 -116 845 C-116.66 846.65 -117.32 848.3 -118 850 C-119.65 850 -121.3 850 -123 850 C-123 848.68 -123 847.36 -123 846 C-121.68 846 -120.36 846 -119 846 C-118.67 844.68 -118.34 843.36 -118 842 C-118.75 842.23 -119.5 842.46 -120.27 842.69 C-121.74 843.12 -121.74 843.12 -123.25 843.56 C-124.22 843.85 -125.2 844.14 -126.2 844.44 C-128.96 844.99 -130.39 844.94 -133 844 C-132.67 843.01 -132.34 842.02 -132 841 C-132.5 841.27 -132.99 841.54 -133.5 841.81 C-136.36 843.17 -139.28 844.14 -142.29 845.12 C-144.37 845.94 -144.37 845.94 -145 849 C-145 849.99 -145 850.98 -145 852 C-146.32 852 -147.64 852 -149 852 C-151.25 849 -151.25 849 -153 846 C-153.58 846.29 -154.15 846.58 -154.75 846.88 C-155.49 847.25 -156.24 847.62 -157 848 C-157.68 848.37 -158.36 848.74 -159.06 849.12 C-161 850 -161 850 -164 850 C-164.31 850.64 -164.62 851.28 -164.94 851.94 C-166 854 -166 854 -167 855 C-170.62 855.29 -172.88 854.85 -176 853 C-176.66 854.65 -177.32 856.3 -178 858 C-178.7 857.9 -179.4 857.81 -180.12 857.71 C-186.33 856.99 -191.09 856.89 -197 859 C-198.69 860.5 -198.69 860.5 -200 862 C-201.1 861.13 -201.1 861.13 -202.23 860.25 C-203.21 859.51 -204.18 858.76 -205.19 858 C-206.15 857.26 -207.11 856.51 -208.11 855.75 C-211.16 853.9 -212.52 853.41 -216 854 C-218.6 856.19 -218.6 856.19 -221 859 C-225.33 863.88 -225.33 863.88 -228.69 864.5 C-231 864 -231 864 -233 861 C-233.12 858.06 -233.12 858.06 -233 855 C-233 853.68 -233 852.36 -233 851 C-235.4 850.32 -235.4 850.32 -238 850 C-240.17 851.87 -240.17 851.87 -240.88 854.56 C-242 857 -242 857 -244.12 857.81 C-245.05 857.91 -245.05 857.91 -246 858 C-246.4 856.55 -246.4 856.55 -246.81 855.06 C-247.2 854.05 -247.6 853.04 -248 852 C-248.99 851.67 -249.98 851.34 -251 851 C-252.02 851.65 -252.02 851.65 -253.06 852.31 C-256.53 854.3 -259.58 854.83 -263.48 855.53 C-266.74 856.14 -269.84 857.04 -273 858 C-273 858.66 -273 859.32 -273 860 C-273.99 860.33 -274.98 860.66 -276 861 C-276.36 862.33 -276.69 863.66 -277 865 C-279.6 868.56 -282.46 870.69 -286.8 871.56 C-289.69 871.69 -292.18 871.63 -295 871 C-296.88 868.69 -296.88 868.69 -298 866 C-300.57 864.19 -300.57 864.19 -303 863 C-303.33 864.65 -303.66 866.3 -304 868 C-304.99 868.33 -305.98 868.66 -307 869 C-307.99 868.34 -308.98 867.68 -310 867 C-310 865.68 -310 864.36 -310 863 C-310.74 863.37 -311.49 863.74 -312.25 864.12 C-315 865 -315 865 -317.31 864.12 C-317.87 863.75 -318.43 863.38 -319 863 C-319.33 864.65 -319.66 866.3 -320 868 C-320.99 868.33 -321.98 868.66 -323 869 C-323.33 868.34 -323.66 867.68 -324 867 C-331.06 866.85 -331.06 866.85 -338 868 C-338.33 868.99 -338.66 869.98 -339 871 C-342.86 872.5 -346 873.1 -350.12 873 C-353.81 873 -355.71 873.55 -359 875 C-359.66 874.67 -360.32 874.34 -361 874 C-361.33 874.99 -361.66 875.98 -362 877 C-363.81 877.81 -363.81 877.81 -366 878 C-368.25 877.06 -368.25 877.06 -370 876 C-370 875.34 -370 874.68 -370 874 C-370.59 874.14 -371.18 874.29 -371.79 874.44 C-380.3 876.44 -380.3 876.44 -384 876 C-384.99 875.34 -385.98 874.68 -387 874 C-388.99 873.76 -388.99 873.76 -391.06 873.88 C-393.04 873.94 -395.02 874 -397 874 C-397.74 874.7 -398.49 875.4 -399.25 876.12 C-400.16 876.74 -401.06 877.36 -402 878 C-405.31 877.25 -405.31 877.25 -408 876 C-408.08 876.74 -408.17 877.49 -408.25 878.25 C-409.17 881.61 -410.18 882.96 -413 885 C-415.75 884.75 -415.75 884.75 -418 884 C-417.67 883.34 -417.34 882.68 -417 882 C-417.66 881.67 -418.32 881.34 -419 881 C-419.25 881.76 -419.5 882.53 -419.75 883.31 C-421.13 886.28 -422.19 887.38 -425 889 C-425.99 889 -426.98 889 -428 889 C-428 890.32 -428 891.64 -428 893 C-432.68 895.81 -436.81 894.91 -442 894 C-445.12 892.94 -445.12 892.94 -447 892 C-447.99 893.98 -448.98 895.96 -450 898 C-450.61 897.84 -451.21 897.69 -451.84 897.53 C-457.5 896.21 -462.04 895.95 -467.77 897 C-470.7 897 -471.86 895.91 -474 894 C-474.68 894.85 -475.36 895.69 -476.06 896.56 C-479 899 -479 899 -482.81 898.81 C-483.86 898.54 -484.92 898.28 -486 898 C-485.67 895.36 -485.34 892.72 -485 890 C-487.31 890.33 -489.62 890.66 -492 891 C-492 891.66 -492 892.32 -492 893 C-493.32 892.67 -494.64 892.34 -496 892 C-496.33 890.68 -496.66 889.36 -497 888 C-495.68 887.34 -494.36 886.68 -493 886 C-495.29 885.14 -495.29 885.14 -498 885 C-499.35 886.31 -500.69 887.65 -502 889 C-504.56 889.56 -504.56 889.56 -507 889 C-508.81 886.5 -508.81 886.5 -510 884 C-513.43 884.26 -513.43 884.26 -517 885 C-517.66 885.99 -518.32 886.98 -519 888 C-527.22 886.82 -527.22 886.82 -530.44 883.44 C-530.95 882.63 -531.47 881.83 -532 881 C-532.66 880.67 -533.32 880.34 -534 880 C-533 877 -533 877 -530.89 875.61 C-530.02 875.18 -529.15 874.75 -528.25 874.31 C-527.39 873.88 -526.53 873.44 -525.64 872.99 C-522.89 871.96 -520.91 871.81 -518 872 C-518 871.34 -518 870.68 -518 870 C-524.6 870 -531.2 870 -538 870 C-538 869.01 -538 868.02 -538 867 C-537.31 866.97 -536.63 866.95 -535.92 866.92 C-535.02 866.87 -534.12 866.81 -533.19 866.75 C-532.29 866.7 -531.4 866.66 -530.48 866.61 C-527.87 866.2 -527.87 866.2 -526.19 864.12 C-524.76 861.57 -524.76 859.88 -525 857 C-525.66 857 -526.32 857 -527 857 C-527.1 857.76 -527.21 858.53 -527.31 859.31 C-528.04 862.17 -528.77 863.16 -531 865 C-533.37 864.31 -533.37 864.31 -536 863 C-537.57 860.09 -538 858.32 -538 855 C-537.01 855 -536.02 855 -535 855 C-535 854.34 -535 853.68 -535 853 C-536.32 852.67 -537.64 852.34 -539 852 C-538.67 849.36 -538.34 846.72 -538 844 C-538.62 843.73 -539.24 843.46 -539.88 843.19 C-542 842 -542 842 -544 839 C-544 838.01 -544 837.02 -544 836 C-543.34 836 -542.68 836 -542 836 C-542.22 835.43 -542.43 834.86 -542.66 834.28 C-544.46 829.28 -545.34 825.31 -545 820 C-547.31 819.34 -549.62 818.68 -552 818 C-552 816.68 -552 815.36 -552 814 C-554.97 814 -557.94 814 -561 814 C-561 812.68 -561 811.36 -561 810 C-562.32 809.34 -563.64 808.68 -565 808 C-565 807.34 -565 806.68 -565 806 C-562.22 804.22 -560.89 804 -557.5 804.12 C-554.01 804.32 -554.01 804.32 -551.69 802.38 C-549.77 799.68 -548.87 797.18 -548 794 C-551.68 792.77 -553.88 793.3 -557.69 793.94 C-558.87 794.13 -560.05 794.33 -561.26 794.53 C-562.62 794.76 -562.62 794.76 -564 795 C-564.14 794.4 -564.27 793.79 -564.41 793.17 C-565.16 790.42 -566.41 788.35 -568 786 C-568.66 785.67 -569.32 785.34 -570 785 C-570 784.34 -570 783.68 -570 783 C-568.68 782.67 -567.36 782.34 -566 782 C-568.4 779.1 -570.31 778.5 -574 778 C-574 778.66 -574 779.32 -574 780 C-576.74 782.1 -578.69 782.96 -582.12 783.44 C-585 783 -585 783 -586.69 781.06 C-587.12 780.38 -587.55 779.7 -588 779 C-588.99 778.67 -589.98 778.34 -591 778 C-591.33 778.99 -591.66 779.98 -592 781 C-595 783 -595 783 -598 783 C-598 782.34 -598 781.68 -598 781 C-598.99 780.67 -599.98 780.34 -601 780 C-601 778.35 -601 776.7 -601 775 C-604 774.67 -604 774.67 -605.69 776.5 C-606.12 777 -606.55 777.49 -607 778 C-607.58 777.65 -608.15 777.3 -608.75 776.94 C-611.39 775.84 -612.36 776.03 -615 777 C-615.66 777.33 -616.32 777.66 -617 778 C-617.99 777.67 -618.98 777.34 -620 777 C-620.7 777.97 -621.4 778.94 -622.12 779.94 C-624.18 782.41 -624.94 782.98 -628.12 784.06 C-631 784 -631 784 -632.56 782.69 C-633.27 781.85 -633.27 781.85 -634 781 C-634.85 780.77 -635.69 780.55 -636.56 780.31 C-639 779 -639 779 -639.84 777.27 C-640.86 773.73 -641.17 771.59 -640.12 768 C-639.75 767.34 -639.38 766.68 -639 766 C-639.99 766.33 -640.98 766.66 -642 767 C-642 770.3 -642 773.6 -642 777 C-642.33 776.34 -642.66 775.68 -643 775 C-643.99 774.67 -644.98 774.34 -646 774 C-646.66 773.34 -647.32 772.68 -648 772 C-648.99 772 -649.98 772 -651 772 C-651 770.02 -651 768.04 -651 766 C-652.65 766.33 -654.3 766.66 -656 767 C-656.99 764.03 -656.99 764.03 -658 761 C-658.93 761.21 -659.86 761.41 -660.81 761.62 C-664 762 -664 762 -667 760 C-667.5 758.51 -667.5 758.51 -668 757 C-671.01 755.77 -671.01 755.77 -674 755 C-674 754.01 -674 753.02 -674 752 C-672.02 752 -670.04 752 -668 752 C-668.33 750.68 -668.66 749.36 -669 748 C-670.65 748.66 -672.3 749.32 -674 750 C-674 748.68 -674 747.36 -674 746 C-674.99 745.67 -675.98 745.34 -677 745 C-677 746.32 -677 747.64 -677 749 C-678.65 748.67 -680.3 748.34 -682 748 C-681.67 745.69 -681.34 743.38 -681 741 C-682.32 741 -683.64 741 -685 741 C-688.12 739.85 -690.65 738.36 -693 736 C-693.64 733.56 -693.76 731.51 -693.67 728.99 C-693.78 728.33 -693.89 727.68 -694 727 C-695.89 725.87 -695.89 725.87 -698 725 C-698.66 724.01 -699.32 723.02 -700 722 C-699.31 718.88 -699.31 718.88 -698 716 C-697.01 715.67 -696.02 715.34 -695 715 C-695 715.99 -695 716.98 -695 718 C-694.34 718 -693.68 718 -693 718 C-693 716.35 -693 714.7 -693 713 C-692.34 713 -691.68 713 -691 713 C-690.67 711.68 -690.34 710.36 -690 709 C-691.21 709.03 -691.21 709.03 -692.44 709.06 C-695 709 -695 709 -696 708 C-695.91 706.31 -695.75 704.62 -695.56 702.94 C-695.46 702.02 -695.36 701.1 -695.25 700.15 C-695.17 699.44 -695.09 698.73 -695 698 C-694.34 698 -693.68 698 -693 698 C-693 697.34 -693 696.68 -693 696 C-693.66 696 -694.32 696 -695 696 C-695 695.01 -695 694.02 -695 693 C-693.68 692.67 -692.36 692.34 -691 692 C-691.14 691.42 -691.29 690.85 -691.44 690.25 C-691.62 689.51 -691.81 688.76 -692 688 C-692.19 687.42 -692.37 686.85 -692.56 686.25 C-692.98 684.12 -693.17 682.16 -693.25 680 C-693.28 679.34 -693.3 678.68 -693.33 678 C-692.88 675.26 -691.98 673.94 -690 672 C-687.77 671.75 -687.77 671.75 -685.25 672 C-679.87 672.24 -677.39 671.05 -673 668 C-672.01 667.34 -671.02 666.68 -670 666 C-669.01 666.99 -668.02 667.98 -667 669 C-667 668.34 -667 667.68 -667 667 C-666.34 666.67 -665.68 666.34 -665 666 C-664.67 665.01 -664.34 664.02 -664 663 C-664.99 662.67 -665.98 662.34 -667 662 C-666.67 658.93 -666.1 658.09 -663.69 656.06 C-662.8 655.38 -661.91 654.7 -661 654 C-660.34 653.09 -659.68 652.18 -659 651.25 C-658.34 650.51 -657.68 649.76 -657 649 C-655.76 649.03 -655.76 649.03 -654.5 649.06 C-653.67 649.04 -652.85 649.02 -652 649 C-651.4 648.05 -650.8 647.1 -650.19 646.12 C-647.52 642.32 -646.16 642.24 -641.83 641.41 C-639.36 640.86 -638.37 640.13 -637 638 C-635.74 634.72 -634.79 631.42 -634 628 C-637.56 628.61 -640.78 629.35 -644 631 C-645.34 633.02 -645.34 633.02 -646 635 C-646.99 635 -647.98 635 -649 635 C-649.45 634.22 -649.91 633.43 -650.38 632.62 C-652.28 629.55 -653.6 629.01 -657 628 C-657 629.32 -657 630.64 -657 632 C-658.32 632 -659.64 632 -661 632 C-661.33 629.69 -661.66 627.38 -662 625 C-663.32 624.67 -664.64 624.34 -666 624 C-666 623.34 -666 622.68 -666 622 C-666.99 621.67 -667.98 621.34 -669 621 C-669.5 619.51 -669.5 619.51 -670 618 C-672 616.79 -672 616.79 -674 616 C-674 615.34 -674 614.68 -674 614 C-675.65 613.34 -677.3 612.68 -679 612 C-679.33 613.32 -679.66 614.64 -680 616 C-680.66 616 -681.32 616 -682 616 C-681.92 615.09 -681.84 614.18 -681.75 613.25 C-681.65 609.9 -681.65 609.9 -684.06 608 C-684.7 607.34 -685.34 606.68 -686 606 C-685.69 604 -685.36 602 -685 600 C-686.37 596.83 -686.37 596.83 -688 594 C-688 593.01 -688 592.02 -688 591 C-687.38 591.16 -686.76 591.33 -686.12 591.5 C-684.04 592.08 -684.04 592.08 -682 592 C-684.62 589.38 -686.49 589.42 -690.12 588.88 C-691.22 588.71 -692.32 588.54 -693.45 588.37 C-694.29 588.25 -695.13 588.12 -696 588 C-696.1 587.36 -696.21 586.72 -696.31 586.06 C-696.54 585.38 -696.77 584.7 -697 584 C-697.99 583.67 -698.98 583.34 -700 583 C-699.01 580.53 -699.01 580.53 -698 578 C-696.02 578 -694.04 578 -692 578 C-691.67 577.34 -691.34 576.68 -691 576 C-691.99 575.67 -692.98 575.34 -694 575 C-694 574.34 -694 573.68 -694 573 C-692.02 572.67 -690.04 572.34 -688 572 C-688.99 570.51 -688.99 570.51 -690 569 C-690.64 568.88 -691.28 568.75 -691.94 568.62 C-694 568 -694 568 -695.75 565.44 C-696.16 564.63 -696.58 563.83 -697 563 C-696.67 562.67 -696.34 562.34 -696 562 C-696.66 561.67 -697.32 561.34 -698 561 C-698.33 561.66 -698.66 562.32 -699 563 C-699 558.67 -699 554.33 -699 550 C-698.11 550.21 -697.23 550.41 -696.31 550.62 C-692.71 551.03 -691.06 550.92 -688 549 C-687.23 546.65 -687.23 546.65 -687 544 C-685.36 539.18 -685.36 539.18 -683 538 C-683 536.02 -683 534.04 -683 532 C-684.65 531.67 -686.3 531.34 -688 531 C-685.55 528.41 -683.43 526.24 -680.31 524.5 C-677.49 522.67 -676.94 521.16 -676 518 C-674.68 518 -673.36 518 -672 518 C-671.71 516.83 -671.71 516.83 -671.41 515.63 C-671.15 514.62 -670.89 513.61 -670.62 512.56 C-670.24 511.05 -670.24 511.05 -669.85 509.5 C-669 507 -669 507 -667 506 C-666.24 506.16 -665.47 506.33 -664.69 506.5 C-661.78 507.04 -659.84 506.73 -657 506 C-657.33 504.68 -657.66 503.36 -658 502 C-659.32 502 -660.64 502 -662 502 C-662.79 501.81 -663.58 501.62 -664.39 501.43 C-667.53 500.91 -669.73 501.46 -672.81 502.19 C-677.75 503.06 -681.08 503.24 -685.44 500.62 C-688.5 497.43 -689.22 493.24 -690 489 C-692.31 489 -694.62 489 -697 489 C-697.04 489.62 -697.08 490.24 -697.12 490.88 C-698 493 -698 493 -700.81 494.38 C-704 495 -704 495 -706.31 494.44 C-708.58 492.51 -708.56 490.88 -709 488 C-709.66 487.67 -710.32 487.34 -711 487 C-711.36 483.16 -711.36 481.5 -709.06 478.31 C-708.38 477.55 -707.7 476.79 -707 476 C-706.67 475.01 -706.34 474.02 -706 473 C-707.95 473.03 -707.95 473.03 -709.94 473.06 C-711.29 473.08 -712.65 473.07 -714 473 C-714.33 472.67 -714.66 472.34 -715 472 C-716.85 471.77 -718.7 471.59 -720.56 471.44 C-722.08 471.31 -722.08 471.31 -723.63 471.18 C-724.41 471.12 -725.19 471.06 -726 471 C-726 470.34 -726 469.68 -726 469 C-726.99 468.67 -727.98 468.34 -729 468 C-730.19 465.94 -730.19 465.94 -731 464 C-730 463 -730 463 -726.56 462.88 C-723 463 -723 463 -721 464 C-721.33 462.02 -721.66 460.04 -722 458 C-722.99 458.66 -723.98 459.32 -725 460 C-725.66 458.35 -726.32 456.7 -727 455 C-728.32 455.33 -729.64 455.66 -731 456 C-731.06 453.75 -731.06 453.75 -730 451 C-727.8 449.75 -725.6 448.86 -723.23 447.99 C-720.94 447.14 -720.94 447.14 -719.41 445.36 C-718.71 444.69 -718.71 444.69 -718 444 C-714.81 444.31 -714.81 444.31 -712 445 C-711.9 444.4 -711.79 443.8 -711.69 443.19 C-710.91 440.72 -709.93 439.68 -708 438 C-709.08 436.72 -709.08 436.72 -711.62 436.69 C-715.86 437.08 -718.63 438.46 -722 441 C-723.02 442.32 -724.03 443.64 -725 445 C-725.99 445 -726.98 445 -728 445 C-727.19 442.56 -727.19 442.56 -726 440 C-725.01 439.67 -724.02 439.34 -723 439 C-723.5 437.51 -723.5 437.51 -724 436 C-723.24 435.42 -722.47 434.85 -721.69 434.25 C-719.34 432.28 -717.71 430.52 -716 428 C-717.98 427.01 -719.96 426.02 -722 425 C-722.08 425.95 -722.16 426.9 -722.25 427.88 C-723 431 -723 431 -725.06 432.38 C-726.02 432.68 -726.02 432.68 -727 433 C-727 433.66 -727 434.32 -727 435 C-727.99 435.33 -728.98 435.66 -730 436 C-730.33 437.65 -730.66 439.3 -731 441 C-731.66 441 -732.32 441 -733 441 C-733 442.98 -733 444.96 -733 447 C-736.31 448.13 -739.59 449.21 -743 450 C-743 449.01 -743 448.02 -743 447 C-743.33 446.34 -743.66 445.68 -744 445 C-744.1 443.36 -744.13 441.71 -744.12 440.06 C-744.13 439.19 -744.13 438.31 -744.13 437.41 C-744 435 -744 435 -743 432 C-743.39 429.86 -743.39 429.86 -744 428 C-742.35 427.34 -740.7 426.68 -739 426 C-738.01 426.99 -737.02 427.98 -736 429 C-735.32 427.76 -735.32 427.76 -734.62 426.5 C-733.82 425.26 -733.82 425.26 -733 424 C-732.34 424 -731.68 424 -731 424 C-730.94 423.38 -730.88 422.76 -730.81 422.12 C-730 420 -730 420 -727.62 418.75 C-725 418 -725 418 -722 418 C-722.31 417.42 -722.62 416.85 -722.94 416.25 C-723.93 414.16 -724.52 412.25 -725 410 C-726.65 409.67 -728.3 409.34 -730 409 C-730 408.34 -730 407.68 -730 407 C-730.6 407.02 -731.21 407.05 -731.83 407.07 C-732.63 407.09 -733.43 407.11 -734.25 407.12 C-735.04 407.15 -735.83 407.17 -736.64 407.2 C-739.3 406.98 -740.82 406.54 -743 405 C-743.68 403.12 -743.68 403.12 -743.88 401 C-743.95 400.3 -744.03 399.6 -744.12 398.88 C-744 397 -744 397 -742 395 C-745.25 392.83 -745.6 392.79 -749.19 393.38 C-750.45 393.58 -751.7 393.79 -753 394 C-753.33 392.68 -753.66 391.36 -754 390 C-754.66 390 -755.32 390 -756 390 C-757.12 383.25 -757.12 383.25 -756 381 C-754.07 380.51 -754.07 380.51 -751.69 380.12 C-747.57 379.31 -745.79 378.21 -743 375 C-740.81 374.37 -740.81 374.37 -739 374 C-738.67 373.34 -738.34 372.68 -738 372 C-738.74 372.52 -739.49 373.03 -740.25 373.56 C-745.15 376.1 -750.74 374.71 -756 374 C-757.12 370.25 -757.12 370.25 -756 368 C-754.02 368 -752.04 368 -750 368 C-750.99 366.51 -750.99 366.51 -752 365 C-753.98 365.33 -755.96 365.66 -758 366 C-757.31 363.25 -756.64 361.47 -754.31 359.78 C-752.57 358.8 -750.79 357.89 -749 357 C-747.35 358.98 -745.7 360.96 -744 363 C-743.1 360.48 -742.81 359.43 -743.94 356.94 C-744.29 356.3 -744.64 355.66 -745 355 C-745 354.01 -745 353.02 -745 352 C-747.77 351.08 -749.29 350.92 -752.12 351 C-753.4 351 -754.68 351 -756 351 C-757 350 -757 350 -757.06 347.44 C-757.03 346.23 -757.03 346.23 -757 345 C-755.02 344.67 -753.04 344.34 -751 344 C-751 343.34 -751 342.68 -751 342 C-750.34 342 -749.68 342 -749 342 C-748.34 340.02 -747.68 338.04 -747 336 C-744.69 335.67 -742.38 335.34 -740 335 C-739.6 333.89 -739.6 333.89 -739.19 332.75 C-738.06 330.13 -736.79 328.2 -735 326 C-735.66 325.34 -736.32 324.68 -737 324 C-738.68 320.31 -739.16 318.6 -738.12 314.62 C-737.75 313.76 -737.38 312.89 -737 312 C-739.94 310.48 -742.92 309.2 -746 308 C-746 304 -746 304 -744 302 C-745.13 301.65 -746.27 301.3 -747.44 300.94 C-749.37 300.13 -749.37 300.13 -751 299 C-751.94 295.31 -751.94 295.31 -752 292 C-748.12 290.81 -745.08 290 -741 290 C-740.83 291.46 -740.67 292.92 -740.5 294.38 C-740.41 295.19 -740.31 296 -740.22 296.84 C-740 299 -740 299 -740 301 C-739.42 300.34 -738.85 299.68 -738.25 299 C-736 297 -736 297 -732 297 C-732 298.65 -732 300.3 -732 302 C-731.36 302.12 -730.72 302.25 -730.06 302.38 C-729.04 302.68 -729.04 302.68 -728 303 C-727.67 303.66 -727.34 304.32 -727 305 C-726.34 303.35 -725.68 301.7 -725 300 C-725.99 299.67 -726.98 299.34 -728 299 C-727.67 296.36 -727.34 293.72 -727 291 C-725.35 291 -723.7 291 -722 291 C-722.98 288.07 -723.79 286.21 -726 284 C-728.21 281.79 -729.02 279.93 -730 277 C-727.69 276.34 -725.38 275.68 -723 275 C-723.5 273.89 -723.5 273.89 -724 272.75 C-725 270 -725 270 -725 266 C-722.03 265.67 -719.06 265.34 -716 265 C-716.66 263.02 -717.32 261.04 -718 259 C-717 258 -717 258 -713.94 257.94 C-712.97 257.96 -712 257.98 -711 258 C-710.67 257.01 -710.34 256.02 -710 255 C-708.91 254.97 -707.83 254.95 -706.71 254.92 C-705.27 254.87 -703.82 254.81 -702.38 254.75 C-701.66 254.74 -700.95 254.72 -700.21 254.71 C-694.01 254.42 -690.26 252.32 -685.88 247.81 C-683.84 245.85 -682.7 245.56 -680 245 C-679.67 244.34 -679.34 243.68 -679 243 C-676.68 242.59 -674.34 242.26 -672 242 C-671.67 242.99 -671.34 243.98 -671 245 C-670.01 245 -669.02 245 -668 245 C-668.08 244.07 -668.16 243.14 -668.25 242.19 C-668 239 -668 239 -666.44 237.19 C-662.38 235.21 -658.14 235.09 -653.69 234.75 C-652.8 234.5 -651.91 234.25 -651 234 C-649.77 231.54 -649.77 231.54 -649 229 C-646 228 -646 228 -642.88 227.5 C-640.11 227.3 -640.11 227.3 -639 226 C-636.04 225.46 -633.09 224.96 -630.12 224.5 C-628.48 224.24 -626.84 223.98 -625.2 223.72 C-624.46 223.6 -623.73 223.49 -622.98 223.37 C-620.8 223.01 -620.8 223.01 -618 222 C-617.38 220.76 -617.38 220.76 -616.75 219.5 C-615 217 -615 217 -611.5 216.19 C-609.34 216.07 -607.17 216 -605 216 C-604.31 213.51 -604 211.62 -604 209 C-604.6 208.71 -605.2 208.42 -605.81 208.12 C-608 207 -608 207 -611 205 C-610.67 203.68 -610.34 202.36 -610 201 C-608.02 201.33 -606.04 201.66 -604 202 C-604 202.66 -604 203.32 -604 204 C-599.38 204 -594.76 204 -590 204 C-590 203.34 -590 202.68 -590 202 C-586.73 199.82 -586.06 199.79 -582.33 200.02 C-581.44 200.07 -580.55 200.13 -579.63 200.18 C-578.23 200.28 -578.23 200.28 -576.81 200.38 C-575.87 200.43 -574.93 200.49 -573.96 200.55 C-571.64 200.69 -569.32 200.84 -567 201 C-567 200.34 -567 199.68 -567 199 C-564 197 -564 197 -561.62 197.19 C-558.75 198.08 -556.51 199.35 -554 201 C-553.57 199.58 -553.57 199.58 -553.12 198.12 C-552 195 -552 195 -550 193 C-547.48 192.86 -545.03 193 -542.51 193.12 C-539.82 192.99 -538.29 192.36 -536 191 C-536 190.34 -536 189.68 -536 189 C-536.66 189 -537.32 189 -538 189 C-537.81 188.38 -537.63 187.76 -537.44 187.12 C-536.76 184.96 -536.76 184.96 -538 183 C-540.34 183.26 -542.68 183.59 -545 184 C-545.33 184.66 -545.66 185.32 -546 186 C-546.99 185.67 -547.98 185.34 -549 185 C-549.33 184.34 -549.66 183.68 -550 183 C-550.66 184.32 -551.32 185.64 -552 187 C-554 186 -554 186 -555 183 C-556.5 181.33 -556.5 181.33 -558 180 C-555.86 177.86 -554.87 177.57 -552 177 C-552.99 177 -553.98 177 -555 177 C-555 175.35 -555 173.7 -555 172 C-555.99 172 -556.98 172 -558 172 C-558.33 172.99 -558.66 173.98 -559 175 C-562.63 175.93 -564.41 176.27 -567.88 174.69 C-568.93 173.85 -568.93 173.85 -570 173 C-570 172.34 -570 171.68 -570 171 C-570.66 171 -571.32 171 -572 171 C-571.95 170.39 -571.91 169.77 -571.86 169.14 C-571.82 168.33 -571.79 167.52 -571.75 166.69 C-571.7 165.89 -571.66 165.09 -571.61 164.26 C-571.8 161.87 -571.8 161.87 -573.72 160.3 C-576.06 158.97 -578.15 158.16 -580.75 157.44 C-582.07 157.07 -582.07 157.07 -583.41 156.69 C-584.27 156.46 -585.12 156.24 -586 156 C-586.71 155.8 -587.42 155.61 -588.15 155.4 C-591.53 154.5 -594.84 153.87 -598.31 153.5 C-602 153 -602 153 -605 151 C-605.73 148.84 -605.73 148.84 -606.19 146.38 C-606.35 145.56 -606.5 144.74 -606.67 143.9 C-606.78 143.27 -606.89 142.65 -607 142 C-605.68 141.67 -604.36 141.34 -603 141 C-603.66 140.01 -604.32 139.02 -605 138 C-605.12 135.31 -605.12 135.31 -605 133 C-603.02 133 -601.04 133 -599 133 C-598.76 132.35 -598.52 131.71 -598.27 131.04 C-597 129 -597 129 -594.98 128.43 C-593.81 128.37 -593.81 128.37 -592.62 128.31 C-589.62 128.14 -586.91 127.82 -584 127 C-584 126.34 -584 125.68 -584 125 C-581.69 125.33 -579.38 125.66 -577 126 C-577.35 125.26 -577.7 124.51 -578.06 123.75 C-579.04 120.87 -579.27 119.73 -578 117 C-577.01 116.67 -576.02 116.34 -575 116 C-574.67 115.34 -574.34 114.68 -574 114 C-572.68 114 -571.36 114 -570 114 C-570 113.34 -570 112.68 -570 112 C-569.46 111.75 -568.91 111.49 -568.36 111.23 C-567.28 110.71 -567.28 110.71 -566.19 110.19 C-565.48 109.85 -564.77 109.51 -564.04 109.17 C-561.99 107.99 -560.58 106.74 -559 105 C-561.1 103.67 -561.1 103.67 -563.94 104.81 C-567.1 105.91 -567.1 105.91 -570 108 C-572.94 108.12 -572.94 108.12 -576 108 C-577.32 108 -578.64 108 -580 108 C-580.99 107.67 -581.98 107.34 -583 107 C-582.86 105.56 -582.71 104.12 -582.56 102.69 C-582.44 101.49 -582.44 101.49 -582.32 100.26 C-582 98 -582 98 -581 95 C-581.09 92.93 -581.09 92.93 -581.44 90.81 C-581.62 89.55 -581.81 88.3 -582 87 C-579.69 87.33 -577.38 87.66 -575 88 C-574.67 86.68 -574.34 85.36 -574 84 C-573.04 84.02 -573.04 84.02 -572.07 84.04 C-570.83 84.05 -570.83 84.05 -569.56 84.06 C-568.74 84.07 -567.92 84.09 -567.07 84.1 C-565.01 84.23 -565.01 84.23 -564 83 C-562.06 82.93 -560.12 82.92 -558.19 82.94 C-557.13 82.95 -556.07 82.96 -554.98 82.96 C-554 82.98 -553.01 82.99 -552 83 C-547.95 83.37 -547.95 83.37 -545 81 C-539.82 79.24 -535.09 77.71 -529.85 79.9 C-527.86 80.88 -525.92 81.91 -524 83 C-524.33 82.01 -524.66 81.02 -525 80 C-521.25 78 -521.25 78 -519 78 C-517.42 76.02 -516.05 73.94 -514.63 71.85 C-512.79 69.76 -511.72 69.37 -509 69 C-508.81 68.04 -508.81 68.04 -508.62 67.06 C-508.42 66.38 -508.21 65.7 -508 65 C-505.06 63.53 -502.63 64.15 -499.38 64.44 C-497.59 64.59 -497.59 64.59 -495.77 64.75 C-494.4 64.87 -494.4 64.87 -493 65 C-492.67 65.99 -492.34 66.98 -492 68 C-489.13 65.28 -489.13 65.28 -487 62 C-485.68 62.33 -484.36 62.66 -483 63 C-482.88 62.22 -482.75 61.43 -482.62 60.62 C-482 58 -482 58 -480 56 C-477.94 56.19 -477.94 56.19 -476 57 C-475.67 57.99 -475.34 58.98 -475 60 C-474.1 59.75 -474.1 59.75 -473.17 59.49 C-472.37 59.29 -471.57 59.08 -470.75 58.88 C-469.96 58.67 -469.17 58.46 -468.36 58.24 C-466 58 -466 58 -464.05 59.04 C-461.11 60.42 -459.52 59.56 -456.5 58.56 C-452.88 57.37 -450.64 56.69 -447 58 C-447 56.35 -447 54.7 -447 53 C-445.91 52.88 -444.81 52.75 -443.69 52.62 C-439.93 52.25 -439.93 52.25 -437 50 C-436.34 50.66 -435.68 51.32 -435 52 C-433.35 52.71 -431.68 53.38 -430 54 C-429.2 53.01 -429.2 53.01 -428.38 52 C-426 50 -426 50 -422.75 49.75 C-421.84 49.83 -420.94 49.91 -420 50 C-419.66 48.79 -419.66 48.79 -419.31 47.56 C-418 45 -418 45 -415.69 44.25 C-414.8 44.17 -413.91 44.09 -413 44 C-409.79 43.49 -407.55 42.79 -404.56 41.38 C-398.94 39.2 -395.35 40.83 -390 43 C-389.01 43 -388.02 43 -387 43 C-386.34 43 -385.68 43 -385 43 C-385 43.66 -385 44.32 -385 45 C-381.04 45.5 -381.04 45.5 -377 46 C-377.66 44.68 -378.32 43.36 -379 42 C-380.65 42.33 -382.3 42.66 -384 43 C-383.88 41.19 -383.88 41.19 -383 39 C-380.06 37.31 -380.06 37.31 -377 36 C-376.34 35.67 -375.68 35.34 -375 35 C-374.34 35.33 -373.68 35.66 -373 36 C-372.62 37.66 -372.29 39.32 -372 41 C-371.67 41.66 -371.34 42.32 -371 43 C-368.03 42.67 -365.06 42.34 -362 42 C-363.49 40.52 -363.49 40.52 -365 39 C-363.1 37.1 -359.93 37.26 -357.38 36.88 C-356.17 36.69 -354.96 36.5 -353.71 36.3 C-350 36 -350 36 -346.16 36.57 C-345.12 36.71 -344.08 36.85 -343 37 C-342.34 36.34 -341.68 35.68 -341 35 C-339.2 34.15 -339.2 34.15 -337.12 33.38 C-336.11 32.98 -336.11 32.98 -335.07 32.59 C-333 32 -333 32 -329 32 C-329 30.35 -329 28.7 -329 27 C-326.9 27.09 -324.79 27.2 -322.69 27.31 C-321.52 27.37 -320.34 27.43 -319.14 27.49 C-316 28 -316 28 -314.07 29.41 C-313 31 -313 31 -313.25 33.06 C-314 35 -314 35 -315 37 C-313.51 36.5 -313.51 36.5 -312 36 C-311.67 35.34 -311.34 34.68 -311 34 C-310.34 34 -309.68 34 -309 34 C-308.81 33.42 -308.63 32.84 -308.44 32.25 C-306.25 28.83 -303.64 27.75 -300 26 C-299.34 26.33 -298.68 26.66 -298 27 C-299.49 28.98 -299.49 28.98 -301 31 C-300.01 31.66 -299.02 32.32 -298 33 C-298.75 34.94 -298.75 34.94 -300 37 C-302.12 37.75 -302.12 37.75 -304 38 C-304 38.66 -304 39.32 -304 40 C-303.24 39.99 -302.48 39.98 -301.7 39.96 C-300.21 39.95 -300.21 39.95 -298.69 39.94 C-297.21 39.92 -297.21 39.92 -295.7 39.9 C-293 40 -293 40 -290 41 C-287.83 40.94 -285.66 40.81 -283.5 40.62 C-282.36 40.53 -281.21 40.44 -280.03 40.35 C-276.96 40.1 -276.96 40.1 -274 39 C-272.79 37 -272.79 37 -272 35 C-271.41 35.1 -270.82 35.19 -270.21 35.29 C-263.89 36.2 -263.89 36.2 -258 34 C-257.67 33.34 -257.34 32.68 -257 32 C-254.67 31.63 -252.34 31.3 -250 31 C-247.66 30.34 -245.33 29.68 -243 29 C-241.48 28.75 -241.48 28.75 -239.94 28.5 C-233.88 27.55 -233.88 27.55 -229.25 23.88 C-228.84 23.26 -228.42 22.64 -228 22 C-227.34 22 -226.68 22 -226 22 C-225.67 23.65 -225.34 25.3 -225 27 C-224.34 27 -223.68 27 -223 27 C-222.9 26.05 -222.79 25.1 -222.69 24.12 C-222 21 -222 21 -219 19 C-218.01 19 -217.02 19 -216 19 C-215.67 19.66 -215.34 20.32 -215 21 C-214.15 21.5 -213.31 21.99 -212.44 22.5 C-211.63 23 -210.83 23.49 -210 24 C-210 24.66 -210 25.32 -210 26 C-208.68 26.33 -207.36 26.66 -206 27 C-206 25.35 -206 23.7 -206 22 C-205.01 22 -204.02 22 -203 22 C-202.8 22.63 -202.6 23.27 -202.4 23.92 C-201.12 26.3 -201.12 26.3 -198.1 26.83 C-196.95 26.97 -195.81 27.11 -194.62 27.25 C-193.48 27.4 -192.34 27.55 -191.16 27.7 C-187.87 28.06 -187.87 28.06 -184 28 C-183.01 28.33 -182.02 28.66 -181 29 C-180.34 28.01 -179.68 27.02 -179 26 C-176.88 24.81 -176.88 24.81 -175 24 C-175.66 23.01 -176.32 22.02 -177 21 C-176.34 20.34 -175.68 19.68 -175 19 C-173.68 19 -172.36 19 -171 19 C-170.67 17.02 -170.34 15.04 -170 13 C-166.69 12.69 -166.69 12.69 -163 13 C-161.19 15.44 -161.19 15.44 -160 18 C-159.34 18.33 -158.68 18.66 -158 19 C-158 18.34 -158 17.68 -158 17 C-154.76 14.84 -153.76 14.36 -150 15 C-147.22 17.78 -146 19.01 -146 23 C-142.58 23.25 -142.58 23.25 -139 23 C-138.34 22.01 -137.68 21.02 -137 20 C-136.01 20 -135.02 20 -134 20 C-134 20.66 -134 21.32 -134 22 C-133.34 22 -132.68 22 -132 22 C-132 20.35 -132 18.7 -132 17 C-130.4 17.14 -128.79 17.29 -127.19 17.44 C-126.29 17.52 -125.4 17.6 -124.48 17.68 C-122 18 -122 18 -119 19 C-118.73 18.2 -118.46 17.39 -118.19 16.56 C-117.6 15.29 -117.6 15.29 -117 14 C-115.51 13.5 -115.51 13.5 -114 13 C-113.67 14.32 -113.34 15.64 -113 17 C-109.37 17 -105.74 17 -102 17 C-101.67 15.35 -101.34 13.7 -101 12 C-100.01 12 -99.02 12 -98 12 C-98 12.66 -98 13.32 -98 14 C-96.35 13.34 -94.7 12.68 -93 12 C-92.01 13.32 -91.02 14.64 -90 16 C-89.34 15.34 -88.68 14.68 -88 14 C-85.87 14.38 -85.87 14.38 -84 15 C-84.35 14.26 -84.7 13.52 -85.06 12.75 C-86.05 9.87 -86.03 8.79 -85 6 C-81.99 5.07 -81.13 4.96 -78 6 C-77.34 5.67 -76.68 5.34 -76 5 C-72.94 4.88 -72.94 4.88 -70 5 C-69.67 5.33 -69.34 5.66 -69 6 C-67.53 6.23 -66.05 6.41 -64.56 6.56 C-63.76 6.65 -62.96 6.73 -62.13 6.82 C-60.02 7.03 -60.02 7.03 -58 7 C-56.61 5.04 -55.27 3.04 -54 1 C-53.01 1.33 -52.02 1.66 -51 2 C-51 2.66 -51 3.32 -51 4 C-50.37 4.13 -49.75 4.27 -49.1 4.4 C-48.28 4.58 -47.47 4.76 -46.62 4.94 C-45.41 5.2 -45.41 5.2 -44.16 5.46 C-42 6 -42 6 -40 7 C-39.32 7.12 -38.64 7.25 -37.94 7.38 C-35.33 7.93 -32.81 8.56 -30.25 9.31 C-29.08 9.65 -29.08 9.65 -27.89 9.99 C-26 11 -26 11 -25.23 13.11 C-25.16 13.73 -25.08 14.36 -25 15 C-18.72 12.91 -18.72 12.91 -14.44 8.25 C-14.29 7.51 -14.15 6.77 -14 6 C-11.69 6.33 -9.38 6.66 -7 7 C-6.67 6.01 -6.34 5.02 -6 4 C-4.35 4 -2.7 4 -1 4 C-0.67 2.68 -0.34 1.36 0 0 Z M62 12 C61.67 12.99 61.34 13.98 61 15 C62.32 15 63.64 15 65 15 C65 14.01 65 13.02 65 12 C64.01 12 63.02 12 62 12 Z M-167 18 C-166.67 18.66 -166.34 19.32 -166 20 C-165.34 20 -164.68 20 -164 20 C-164 19.34 -164 18.68 -164 18 C-164.99 18 -165.98 18 -167 18 Z M-171 36 C-170.66 38.47 -170.66 38.47 -170 41 C-169.34 41.33 -168.68 41.66 -168 42 C-168 40.35 -168 38.7 -168 37 C-168.99 36.67 -169.98 36.34 -171 36 Z M122 46 C121.67 47.32 121.34 48.64 121 50 C121.99 50 122.98 50 124 50 C124.33 49.01 124.66 48.02 125 47 C124.01 46.67 123.02 46.34 122 46 Z M-300 56 C-300 56.66 -300 57.32 -300 58 C-299.01 58 -298.02 58 -297 58 C-297 57.34 -297 56.68 -297 56 C-297.99 56 -298.98 56 -300 56 Z M125 64 C125 64.66 125 65.32 125 66 C125.66 66 126.32 66 127 66 C127 65.34 127 64.68 127 64 C126.34 64 125.68 64 125 64 Z M164 76 C163.67 76.66 163.34 77.32 163 78 C164.62 79.71 166.29 81.37 168 83 C168.66 83 169.32 83 170 83 C170 82.34 170 81.68 170 81 C169.34 80.67 168.68 80.34 168 80 C167.67 79.01 167.34 78.02 167 77 C166.01 76.67 165.02 76.34 164 76 Z M171 79 C170.67 79.66 170.34 80.32 170 81 C171.65 81 173.3 81 175 81 C173.68 80.34 172.36 79.68 171 79 Z M152 82 C153.32 83.32 154.64 84.64 156 86 C156.33 85.01 156.66 84.02 157 83 C155.35 82.67 153.7 82.34 152 82 Z M179 87 C179.66 88.32 180.32 89.64 181 91 C182.32 91 183.64 91 185 91 C185 90.34 185 89.68 185 89 C185.66 88.67 186.32 88.34 187 88 C185.82 86.58 185.82 86.58 182.44 86.94 C180.74 86.97 180.74 86.97 179 87 Z M-548 94 C-548.33 94.99 -548.66 95.98 -549 97 C-551.06 97.69 -551.06 97.69 -553 98 C-553 99.65 -553 101.3 -553 103 C-553.99 103 -554.98 103 -556 103 C-556 103.99 -556 104.98 -556 106 C-551.21 106.23 -551.21 106.23 -547 104 C-546.64 101.56 -546.64 101.56 -546.81 98.88 C-546.85 97.51 -546.85 97.51 -546.89 96.12 C-546.95 95.07 -546.95 95.07 -547 94 C-547.33 94 -547.66 94 -548 94 Z M-572 95 C-571.34 95.66 -570.68 96.32 -570 97 C-570 96.34 -570 95.68 -570 95 C-570.66 95 -571.32 95 -572 95 Z M-532 95 C-532.33 95.99 -532.66 96.98 -533 98 C-532.34 98 -531.68 98 -531 98 C-531.33 97.01 -531.66 96.02 -532 95 Z M-543 100 C-543 101.32 -543 102.64 -543 104 C-542.34 104 -541.68 104 -541 104 C-541.33 102.68 -541.66 101.36 -542 100 C-542.33 100 -542.66 100 -543 100 Z M-192 123 C-192 124.32 -192 125.64 -192 127 C-191.34 127 -190.68 127 -190 127 C-190 126.34 -190 125.68 -190 125 C-189.34 125 -188.68 125 -188 125 C-187.67 125.99 -187.34 126.98 -187 128 C-186.67 126.68 -186.34 125.36 -186 124 C-188.97 123.5 -188.97 123.5 -192 123 Z M-568 157 C-568.66 158.98 -569.32 160.96 -570 163 C-568.02 163 -566.04 163 -564 163 C-563.34 161.02 -562.68 159.04 -562 157 C-563.98 157 -565.96 157 -568 157 Z M-504 177 C-504.33 178.98 -504.66 180.96 -505 183 C-503.68 183 -502.36 183 -501 183 C-501 181.02 -501 179.04 -501 177 C-501.99 177 -502.98 177 -504 177 Z M-522 188 C-524 189.31 -524 189.31 -526 191 C-527.32 191.7 -528.65 192.37 -530 193 C-527.83 193.95 -526.44 194.14 -524.18 193.4 C-522.43 192.64 -520.71 191.82 -519 191 C-519 190.34 -519 189.68 -519 189 C-519.99 188.67 -520.98 188.34 -522 188 Z M-603 207 C-603.33 207.66 -603.66 208.32 -604 209 C-602.68 208.67 -601.36 208.34 -600 208 C-600.99 207.67 -601.98 207.34 -603 207 Z M279 208 C279 208.66 279 209.32 279 210 C280.32 209.67 281.64 209.34 283 209 C283 208.34 283 207.68 283 207 C280.93 206.85 280.93 206.85 279 208 Z M323 239 C322.67 239.99 322.34 240.98 322 242 C322.66 242 323.32 242 324 242 C323.67 241.01 323.34 240.02 323 239 Z M-735 310 C-735 310.66 -735 311.32 -735 312 C-734.01 312 -733.02 312 -732 312 C-732 311.34 -732 310.68 -732 310 C-732.99 310 -733.98 310 -735 310 Z M264 336 C263.67 336.99 263.34 337.98 263 339 C263.99 338.67 264.98 338.34 266 338 C265.34 337.34 264.68 336.68 264 336 Z M307 341 C308 343 308 343 308 343 Z M-737 344 C-737.33 344.99 -737.66 345.98 -738 347 C-736.68 347.33 -735.36 347.66 -734 348 C-734 348.66 -734 349.32 -734 350 C-733.01 349.67 -732.02 349.34 -731 349 C-730.67 348.01 -730.34 347.02 -730 346 C-732.31 345.34 -734.62 344.68 -737 344 Z M340 366 C339.67 368.31 339.34 370.62 339 373 C339.99 373 340.98 373 342 373 C342 370.69 342 368.38 342 366 C341.34 366 340.68 366 340 366 Z M361 369 C360.67 370.98 360.34 372.96 360 375 C360.99 375.5 360.99 375.5 362 376 C362.12 375.22 362.25 374.43 362.38 373.62 C363 371 363 371 365 369 C363.68 369 362.36 369 361 369 Z M333 371 C334 373 334 373 334 373 Z M-730.25 374.94 C-731.14 375.13 -732.03 375.33 -732.95 375.53 C-733.63 375.68 -734.3 375.84 -735 376 C-733.74 379.15 -733.74 379.15 -730.94 380.81 C-729.98 380.91 -729.98 380.91 -729 381 C-728.67 380.67 -728.34 380.34 -728 380 C-725.56 379.81 -725.56 379.81 -723 380 C-722.34 380.66 -721.68 381.32 -721 382 C-721 379.69 -721 377.38 -721 375 C-724.4 373.86 -726.77 374.16 -730.25 374.94 Z M-717 374 C-716 377 -716 377 -716 377 Z M356 374 C357 376 357 376 357 376 Z M366 384 C365.34 384.66 364.68 385.32 364 386 C364.32 388.11 364.32 388.11 365 390 C366.65 389.67 368.3 389.34 370 389 C370 388.34 370 387.68 370 387 C368.04 385.36 368.04 385.36 366 384 Z M-738 389 C-738.66 390.65 -739.32 392.3 -740 394 C-737.36 393.67 -734.72 393.34 -732 393 C-732.33 392.01 -732.66 391.02 -733 390 C-734.65 389.67 -736.3 389.34 -738 389 Z M-740 402 C-739 404 -739 404 -739 404 Z M-730 405 C-729.67 405.66 -729.34 406.32 -729 407 C-728.67 406.34 -728.34 405.68 -728 405 C-728.66 405 -729.32 405 -730 405 Z M-698.38 412.94 C-698.91 413.62 -699.45 414.3 -700 415 C-698.63 416.54 -698.63 416.54 -697 418 C-696.34 418 -695.68 418 -695 418 C-695 417.34 -695 416.68 -695 416 C-693.68 416 -692.36 416 -691 416 C-690.67 414.68 -690.34 413.36 -690 412 C-694.51 410.67 -694.51 410.67 -698.38 412.94 Z M361 413 C361 413.99 361 414.98 361 416 C361.66 416 362.32 416 363 416 C362.67 415.01 362.34 414.02 362 413 C361.67 413 361.34 413 361 413 Z M363 416 C363.33 418.31 363.66 420.62 364 423 C366.03 422.36 366.03 422.36 368 421 C368.81 418.44 368.81 418.44 369 416 C368.67 416.99 368.34 417.98 368 419 C367.55 418.5 367.09 418.01 366.62 417.5 C365.12 415.77 365.12 415.77 363 416 Z M366 428 C366.33 429.32 366.66 430.64 367 432 C367.33 431.34 367.66 430.68 368 430 C367.34 429.34 366.68 428.68 366 428 Z M-740 437 C-740 437.99 -740 438.98 -740 440 C-739.34 440 -738.68 440 -738 440 C-738 440.99 -738 441.98 -738 443 C-737.34 443 -736.68 443 -736 443 C-736.33 441.35 -736.66 439.7 -737 438 C-737.99 437.67 -738.98 437.34 -740 437 Z M345 441 C345 441.99 345 442.98 345 444 C345.66 444 346.32 444 347 444 C347 443.01 347 442.02 347 441 C346.34 441 345.68 441 345 441 Z M-719 451 C-719.66 452.98 -720.32 454.96 -721 457 C-719.33 457.04 -717.67 457.04 -716 457 C-714.7 455.93 -714.7 455.93 -714.94 453.44 C-714.96 452.63 -714.98 451.83 -715 451 C-716.32 451 -717.64 451 -719 451 Z M-714 466 C-713 468 -713 468 -713 468 Z M-645 489 C-644.34 490.65 -643.68 492.3 -643 494 C-642.34 493.34 -641.68 492.68 -641 492 C-641 491.01 -641 490.02 -641 489 C-642.32 489 -643.64 489 -645 489 Z M276 509 C275.34 509.66 274.68 510.32 274 511 C274.66 511 275.32 511 276 511 C276 511.66 276 512.32 276 513 C276.66 513 277.32 513 278 513 C277.67 511.68 277.34 510.36 277 509 C276.67 509 276.34 509 276 509 Z M242 515 C241.01 517.97 240.02 520.94 239 524 C241.48 524.99 241.48 524.99 244 526 C244 525.34 244 524.68 244 524 C244.99 523.67 245.98 523.34 247 523 C246.34 520.36 245.68 517.72 245 515 C244.01 515 243.02 515 242 515 Z M371 517 C372 520 372 520 372 520 Z M233 518 C230.63 520.65 230.63 520.65 230 524 C231.32 524 232.64 524 234 524 C234 522.02 234 520.04 234 518 C233.67 518 233.34 518 233 518 Z M251 518 C251 518.99 251 519.98 251 521 C251.99 521 252.98 521 254 521 C254 520.01 254 519.02 254 518 C253.01 518 252.02 518 251 518 Z M220 520 C219.67 521.32 219.34 522.64 219 524 C221.31 524.66 223.62 525.32 226 526 C226.33 525.01 226.66 524.02 227 523 C226.67 522.34 226.34 521.68 226 521 C222.97 520.34 222.97 520.34 220 520 Z M215 522 C216 524 216 524 216 524 Z M179 525 C180 527 180 527 180 527 Z M212 527 C213 530 213 530 213 530 Z M476 601 C476 601.66 476 602.32 476 603 C476.99 603.33 477.98 603.66 479 604 C479 603.34 479 602.68 479 602 C478.01 601.67 477.02 601.34 476 601 Z M479 604 C478.67 605.32 478.34 606.64 478 608 C478.99 608 479.98 608 481 608 C480.34 606.68 479.68 605.36 479 604 Z M476 609 C477 611 477 611 477 611 Z M-640 625 C-639 627 -639 627 -639 627 Z M437 648 C437.66 648.66 438.32 649.32 439 650 C439.33 649.34 439.66 648.68 440 648 C439.01 648 438.02 648 437 648 Z M-681 680 C-684.75 681.79 -684.75 681.79 -686.81 685.19 C-686.87 685.79 -686.94 686.38 -687 687 C-684.89 687.23 -684.89 687.23 -683.5 685.56 C-683 685.05 -682.51 684.53 -682 684 C-681.34 683.67 -680.68 683.34 -680 683 C-680.33 682.01 -680.66 681.02 -681 680 Z M-676 739 C-675 741 -675 741 -675 741 Z M-667 752 C-667 752.66 -667 753.32 -667 754 C-666.01 753.67 -665.02 753.34 -664 753 C-664.99 752.67 -665.98 752.34 -667 752 Z M-568 771 C-567.67 771.66 -567.34 772.32 -567 773 C-566.34 772.34 -565.68 771.68 -565 771 C-565.99 771 -566.98 771 -568 771 Z M304 774 C303.75 776.58 303.75 776.58 304 779 C305.32 778.67 306.64 778.34 308 778 C308.33 778.99 308.66 779.98 309 781 C309.99 780.67 310.98 780.34 312 780 C311.67 777.69 311.34 775.38 311 773 C307.51 771.8 307.32 771.79 304 774 Z M-597 775 C-597 775.66 -597 776.32 -597 777 C-596.34 777 -595.68 777 -595 777 C-595 776.34 -595 775.68 -595 775 C-595.66 775 -596.32 775 -597 775 Z M234 781 C233.34 783.31 232.68 785.62 232 788 C233.65 787.67 235.3 787.34 237 787 C237.33 785.02 237.66 783.04 238 781 C236.68 781 235.36 781 234 781 Z M243 781 C243.33 781.66 243.66 782.32 244 783 C244.99 782.67 245.98 782.34 247 782 C245.68 781.67 244.36 781.34 243 781 Z M141 795 C141.33 796.32 141.66 797.64 142 799 C142 797.68 142 796.36 142 795 C141.67 795 141.34 795 141 795 Z M141 800 C141 800.66 141 801.32 141 802 C141.99 802 142.98 802 144 802 C144 801.34 144 800.68 144 800 C143.01 800 142.02 800 141 800 Z M147 803 C146.01 803.5 146.01 803.5 145 804 C145.66 805.32 146.32 806.64 147 808 C147.66 808 148.32 808 149 808 C149.33 806.68 149.66 805.36 150 804 C149.01 803.67 148.02 803.34 147 803 Z M-24 813 C-23.67 813.66 -23.34 814.32 -23 815 C-21.35 814.34 -19.7 813.68 -18 813 C-18.33 812.34 -18.66 811.68 -19 811 C-21.32 810.82 -21.32 810.82 -24 813 Z M15 814 C15 814.66 15 815.32 15 816 C15.66 815.67 16.32 815.34 17 815 C16.34 814.67 15.68 814.34 15 814 Z M-18 815 C-18.33 815.99 -18.66 816.98 -19 818 C-17.27 820.15 -17.27 820.15 -15 822 C-12.78 821.86 -12.78 821.86 -11 821 C-11 820.34 -11 819.68 -11 819 C-12.65 819 -14.3 819 -16 819 C-16.33 817.68 -16.66 816.36 -17 815 C-17.33 815 -17.66 815 -18 815 Z M-59 824 C-59.33 824.66 -59.66 825.32 -60 826 C-59.34 826 -58.68 826 -58 826 C-58.33 825.34 -58.66 824.68 -59 824 Z M-236 831 C-236.33 831.66 -236.66 832.32 -237 833 C-234.52 833.5 -234.52 833.5 -232 834 C-232 833.34 -232 832.68 -232 832 C-233.32 831.67 -234.64 831.34 -236 831 Z M-221 832 C-220.34 833.32 -219.68 834.64 -219 836 C-217.68 835.67 -216.36 835.34 -215 835 C-216.32 834.67 -217.64 834.34 -219 834 C-219 833.34 -219 832.68 -219 832 C-219.66 832 -220.32 832 -221 832 Z M-520 856 C-520.33 856.99 -520.66 857.98 -521 859 C-520.34 859 -519.68 859 -519 859 C-519.33 858.01 -519.66 857.02 -520 856 Z " fill="#000000" transform="translate(774,31)"/>
<path d="M0 0 C1.68 0.29 3.34 0.62 5 1 C5.62 2.88 5.62 2.88 6 5 C5.34 5.66 4.68 6.32 4 7 C6.47 7.99 6.47 7.99 9 9 C8.67 10.65 8.34 12.3 8 14 C2.37 14.99 -1.56 15.24 -7 13 C-8.94 10.88 -8.94 10.88 -10 9 C-9.01 8.67 -8.02 8.34 -7 8 C-7 6.35 -7 4.7 -7 3 C-5.55 2.54 -5.55 2.54 -4.06 2.06 C-1.16 1.3 -1.16 1.3 0 0 Z " fill="#000000" transform="translate(1238,667)"/>
<path d="M0 0 C1.65 1.65 3.3 3.3 5 5 C1.73 8.92 -1.15 9.72 -6 11 C-6.87 11.54 -7.73 12.07 -8.62 12.62 C-11.33 14.19 -12.93 14.26 -16 14 C-17 11 -17 11 -16 8 C-13.79 5.86 -12.5 5.06 -9.42 4.71 C-8.54 4.74 -7.66 4.78 -6.75 4.81 C-5.86 4.84 -4.97 4.87 -4.05 4.89 C-3.37 4.93 -2.7 4.96 -2 5 C-1.34 3.35 -0.68 1.7 0 0 Z " fill="#000000" transform="translate(162,143)"/>
<path d="M0 0 C0.69 2.31 0.69 2.31 1 5 C-0.19 6.88 -0.19 6.88 -2 8 C-4.14 7.75 -5.46 7.54 -7 6 C-7.04 4.33 -7.04 2.67 -7 1 C-4.54 -0.23 -2.72 -0.07 0 0 Z " fill="#000000" transform="translate(199,199)"/>
<path d="M0 0 C0.6 0.23 1.2 0.45 1.81 0.69 C1.48 2.01 1.15 3.33 0.81 4.69 C1.47 5.02 2.13 5.35 2.81 5.69 C1.82 7.01 0.83 8.33 -0.19 9.69 C-2.12 9 -2.12 9 -4.19 7.69 C-5.12 5.25 -5.12 5.25 -5.19 2.69 C-3.61 0.19 -2.98 -0.43 0 0 Z " fill="#000000" transform="translate(74.1875,730.3125)"/>
<path d="M0 0 C2.97 1.98 2.97 1.98 6 4 C5.67 5.98 5.34 7.96 5 10 C4.01 10.33 3.02 10.66 2 11 C1.01 7.7 0.02 4.4 -1 1 C-0.67 0.67 -0.34 0.34 0 0 Z " fill="#000000" transform="translate(221,859)"/>
<path d="M0 0 C2.44 0.62 2.44 0.62 5 2 C5.81 5.12 5.81 5.12 6 8 C3.69 7.81 3.69 7.81 1 7 C-0.81 4.44 -0.81 4.44 -2 2 C-1.34 1.34 -0.68 0.68 0 0 Z " fill="#000000" transform="translate(80,531)"/>
<path d="M0 0 C0.76 0.21 1.53 0.41 2.31 0.62 C2.06 2.5 2.06 2.5 1.31 4.62 C-0.75 5.88 -0.75 5.88 -2.69 6.62 C-3.68 4.98 -4.67 3.32 -5.69 1.62 C-2.69 -0.38 -2.69 -0.38 0 0 Z " fill="#000000" transform="translate(1116.6875,370.375)"/>
<path d="M0 0 C4.75 0.75 4.75 0.75 7 3 C7.12 6.12 7.12 6.12 7 9 C5.06 8.25 5.06 8.25 3 7 C2.38 4.94 2.38 4.94 2 3 C1.34 2.67 0.68 2.34 0 2 C0 1.34 0 0.68 0 0 Z " fill="#000000" transform="translate(1142,489)"/>
<path d="M0 0 C1.68 0.29 3.34 0.62 5 1 C3.75 3.5 3.75 3.5 2 6 C0.68 6 -0.64 6 -2 6 C-1.12 1.12 -1.12 1.12 0 0 Z " fill="#000000" transform="translate(21,427)"/>
<path d="M0 0 C1.68 0.29 3.34 0.62 5 1 C4 4 4 4 1.94 5.19 C1.3 5.46 0.66 5.72 0 6 C-0.38 4.34 -0.71 2.68 -1 1 C-0.67 0.67 -0.34 0.34 0 0 Z " fill="#000000" transform="translate(679,30)"/>
<path d="M0 0 C0.99 0.33 1.98 0.66 3 1 C2.67 2.65 2.34 4.3 2 6 C1.01 5.67 0.02 5.34 -1 5 C-0.67 3.35 -0.34 1.7 0 0 Z " fill="#000000" transform="translate(1165,432)"/>
<path d="M0 0 C0.99 0.66 1.98 1.32 3 2 C2.67 3.32 2.34 4.64 2 6 C0.68 5.34 -0.64 4.68 -2 4 C-1.34 2.68 -0.68 1.36 0 0 Z " fill="#000000" transform="translate(75,599)"/>
<path d="M0 0 C1.32 0 2.64 0 4 0 C4.33 1.65 4.66 3.3 5 5 C2.53 4.01 2.53 4.01 0 3 C0 2.01 0 1.02 0 0 Z " fill="#000000" transform="translate(1108,363)"/>
<path d="M0 0 C1.32 0 2.64 0 4 0 C3.67 1.65 3.34 3.3 3 5 C2.01 4.67 1.02 4.34 0 4 C0 2.68 0 1.36 0 0 Z " fill="#000000" transform="translate(998,824)"/>
<path d="M0 0 C0.99 0 1.98 0 3 0 C3 1.65 3 3.3 3 5 C2.01 5 1.02 5 0 5 C-0.56 3.06 -0.56 3.06 -1 1 C-0.67 0.67 -0.34 0.34 0 0 Z " fill="#000000" transform="translate(230,880)"/>
<path d="M0 0 C1.98 0.5 1.98 0.5 4 1 C3.34 2.32 2.68 3.64 2 5 C1.01 4.34 0.02 3.68 -1 3 C-0.67 2.01 -0.34 1.02 0 0 Z " fill="#000000" transform="translate(1026,821)"/>
<path d="M0 0 C0.66 0.33 1.32 0.66 2 1 C1.67 1.99 1.34 2.98 1 4 C-0.65 3.67 -2.3 3.34 -4 3 C-3 1 -3 1 0 0 Z " fill="#000000" transform="translate(1007,109)"/>
<path d="M0 0 C1.65 0 3.3 0 5 0 C5.33 0.66 5.66 1.32 6 2 C4.35 2.33 2.7 2.66 1 3 C0.67 2.01 0.34 1.02 0 0 Z " fill="#000000" transform="translate(1063,197)"/>
<path d="M0 0 C1.98 0.66 3.96 1.32 6 2 C6 2.66 6 3.32 6 4 C4.68 4 3.36 4 2 4 C1.34 2.68 0.68 1.36 0 0 Z " fill="#000000" transform="translate(1261,592)"/>
<path d="M0 0 C0.66 0 1.32 0 2 0 C2 1.65 2 3.3 2 5 C1.01 4.67 0.02 4.34 -1 4 C-0.67 2.68 -0.34 1.36 0 0 Z " fill="#000000" transform="translate(39,495)"/>
<path d="M0 0 C0.99 0.33 1.98 0.66 3 1 C2.67 1.99 2.34 2.98 2 4 C1.01 3.67 0.02 3.34 -1 3 C-0.67 2.01 -0.34 1.02 0 0 Z " fill="#000000" transform="translate(18,478)"/>
<path d="M0 0 C1.98 0.5 1.98 0.5 4 1 C3.01 1.99 2.02 2.98 1 4 C0.34 3.34 -0.32 2.68 -1 2 C-0.67 1.34 -0.34 0.68 0 0 Z " fill="#000000" transform="translate(1111,288)"/>
<path d="M0 0 C1.32 0.33 2.64 0.66 4 1 C4 1.66 4 2.32 4 3 C3.01 3.33 2.02 3.66 1 4 C0.67 2.68 0.34 1.36 0 0 Z " fill="#000000" transform="translate(56,281)"/>
<path d="M0 0 C0.33 0 0.66 0 1 0 C1.33 1.98 1.66 3.96 2 6 C1.01 6.33 0.02 6.66 -1 7 C-0.67 4.69 -0.34 2.38 0 0 Z " fill="#000000" transform="translate(70,569)"/>
<path d="M0 0 C1.32 0.33 2.64 0.66 4 1 C4 1.66 4 2.32 4 3 C2.68 3 1.36 3 0 3 C0 2.01 0 1.02 0 0 Z " fill="#000000" transform="translate(1190,540)"/>
<path d="M0 0 C0.66 0.33 1.32 0.66 2 1 C1.67 1.99 1.34 2.98 1 4 C0.01 3.67 -0.98 3.34 -2 3 C-2 2.34 -2 1.68 -2 1 C-1.34 0.67 -0.68 0.34 0 0 Z " fill="#000000" transform="translate(1017,127)"/>
<path d="M0 0 C0.99 0.33 1.98 0.66 3 1 C2.67 1.66 2.34 2.32 2 3 C1.01 3 0.02 3 -1 3 C-0.67 2.01 -0.34 1.02 0 0 Z " fill="#000000" transform="translate(1173,698)"/>
<path d="M0 0 C0.66 0.33 1.32 0.66 2 1 C1.67 1.99 1.34 2.98 1 4 C0.34 3.67 -0.32 3.34 -1 3 C-0.67 2.01 -0.34 1.02 0 0 Z " fill="#000000" transform="translate(131,662)"/>
<path d="M0 0 C1.32 0 2.64 0 4 0 C4 0.66 4 1.32 4 2 C2.68 2 1.36 2 0 2 C0 1.34 0 0.68 0 0 Z " fill="#000000" transform="translate(1201,545)"/>
<path d="M0 0 C0.99 0 1.98 0 3 0 C2.67 0.99 2.34 1.98 2 3 C1.34 2.67 0.68 2.34 0 2 C0 1.34 0 0.68 0 0 Z " fill="#000000" transform="translate(38,443)"/>
<path d="M0 0 C0.66 0 1.32 0 2 0 C1.67 0.99 1.34 1.98 1 3 C0.34 2.34 -0.32 1.68 -1 1 C-0.67 0.67 -0.34 0.34 0 0 Z " fill="#000000" transform="translate(1127,732)"/>
<path d="M0 0 C0.66 0.33 1.32 0.66 2 1 C2 1.66 2 2.32 2 3 C1.01 2.67 0.02 2.34 -1 2 C-0.67 1.34 -0.34 0.68 0 0 Z " fill="#000000" transform="translate(1237,560)"/>
<path d="M0 0 C0.99 0 1.98 0 3 0 C3 0.66 3 1.32 3 2 C2.01 2 1.02 2 0 2 C0 1.34 0 0.68 0 0 Z " fill="#000000" transform="translate(1139,494)"/>
<path d="M0 0 C0.99 0 1.98 0 3 0 C3 0.66 3 1.32 3 2 C2.01 2 1.02 2 0 2 C0 1.34 0 0.68 0 0 Z " fill="#000000" transform="translate(1146,487)"/>
<path d="M0 0 C0.66 0 1.32 0 2 0 C1.67 0.99 1.34 1.98 1 3 C0.34 2.34 -0.32 1.68 -1 1 C-0.67 0.67 -0.34 0.34 0 0 Z " fill="#000000" transform="translate(44,476)"/>
<path d="M0 0 C0.66 0 1.32 0 2 0 C2 0.99 2 1.98 2 3 C1.34 3 0.68 3 0 3 C0 2.01 0 1.02 0 0 Z " fill="#000000" transform="translate(228,217)"/>
<path d="M0 0 C0.99 0 1.98 0 3 0 C3 0.66 3 1.32 3 2 C2.01 2 1.02 2 0 2 C0 1.34 0 0.68 0 0 Z " fill="#000000" transform="translate(215,215)"/>
<path d="M0 0 C0.66 0 1.32 0 2 0 C2 0.99 2 1.98 2 3 C1.34 3 0.68 3 0 3 C0 2.01 0 1.02 0 0 Z " fill="#000000" transform="translate(159,198)"/>
<path d="M0 0 C0.99 0.33 1.98 0.66 3 1 C2.34 1.66 1.68 2.32 1 3 C0.67 2.01 0.34 1.02 0 0 Z " fill="#000000" transform="translate(663,36)"/>
<path d="M0 0 C0.33 0 0.66 0 1 0 C1 1.65 1 3.3 1 5 C0.67 5 0.34 5 0 5 C0 3.35 0 1.7 0 0 Z " fill="#000000" transform="translate(1186,698)"/>
<path d="M0 0 C0.66 0 1.32 0 2 0 C2 0.66 2 1.32 2 2 C1.34 2 0.68 2 0 2 C0 1.34 0 0.68 0 0 Z " fill="#000000" transform="translate(26,479)"/>
<path d="M0 0 C0.66 0 1.32 0 2 0 C2 0.66 2 1.32 2 2 C1.34 2 0.68 2 0 2 C0 1.34 0 0.68 0 0 Z " fill="#000000" transform="translate(481,67)"/>
<path d="M0 0 C0.66 0 1.32 0 2 0 C2 0.66 2 1.32 2 2 C1.34 2 0.68 2 0 2 C0 1.34 0 0.68 0 0 Z " fill="#000000" transform="translate(584,52)"/>
<path d="M0 0 C0.66 0 1.32 0 2 0 C2 0.66 2 1.32 2 2 C1.34 2 0.68 2 0 2 C0 1.34 0 0.68 0 0 Z " fill="#000000" transform="translate(653,44)"/>
<path d="M0 0 C0.66 0 1.32 0 2 0 C2 0.66 2 1.32 2 2 C1.34 2 0.68 2 0 2 C0 1.34 0 0.68 0 0 Z " fill="#000000" transform="translate(681,41)"/>
<path d="M0 0 C3 1 3 1 3 1 Z " fill="#000000" transform="translate(633,881)"/>
<path d="M0 0 C3 1 3 1 3 1 Z " fill="#000000" transform="translate(200,812)"/>
<path d="M0 0 C0.99 0.5 0.99 0.5 2 1 C1.01 1.5 1.01 1.5 0 2 C0 1.34 0 0.68 0 0 Z " fill="#000000" transform="translate(113,666)"/>
<path d="M0 0 C0.33 0.66 0.66 1.32 1 2 C0.34 1.67 -0.32 1.34 -1 1 C-0.67 0.67 -0.34 0.34 0 0 Z " fill="#000000" transform="translate(24,468)"/>
<path d="M0 0 C0.66 0 1.32 0 2 0 C1.67 0.66 1.34 1.32 1 2 C0.67 1.34 0.34 0.68 0 0 Z " fill="#000000" transform="translate(187,139)"/>
<path d="M0 0 C0.99 0.49 0.99 0.49 2 1 C1.01 1.49 1.01 1.49 0 2 C0 1.34 0 0.68 0 0 Z " fill="#000000" transform="translate(510,62)"/>
<path d="M0 0 C3 1 3 1 3 1 Z " fill="#000000" transform="translate(638,47)"/>
<path d="" fill="#000000" transform="translate(0,0)"/>
<path d="" fill="#000000" transform="translate(0,0)"/>
<path d="" fill="#000000" transform="translate(0,0)"/>
<path d="M0 0 C2 1 2 1 2 1 Z " fill="#000000" transform="translate(771,850)"/>
<path d="M0 0 C2 1 2 1 2 1 Z " fill="#000000" transform="translate(950,835)"/>
<path d="M0 0 C2 1 2 1 2 1 Z " fill="#000000" transform="translate(976,830)"/>
<path d="M0 0 C2 1 2 1 2 1 Z " fill="#000000" transform="translate(200,830)"/>
<path d="" fill="#000000" transform="translate(0,0)"/>
<path d="" fill="#000000" transform="translate(0,0)"/>
<path d="" fill="#000000" transform="translate(0,0)"/>
<path d="" fill="#000000" transform="translate(0,0)"/>
<path d="M0 0 C2 1 2 1 2 1 Z " fill="#000000" transform="translate(1083,520)"/>
<path d="M0 0 C2 1 2 1 2 1 Z " fill="#000000" transform="translate(26,359)"/>
<path d="M0 0 C2 1 2 1 2 1 Z " fill="#000000" transform="translate(231,221)"/>
<path d="M0 0 C2 1 2 1 2 1 Z " fill="#000000" transform="translate(164,180)"/>
<path d="M0 0 C2 1 2 1 2 1 Z " fill="#000000" transform="translate(187,134)"/>
<path d="M0 0 C2 1 2 1 2 1 Z " fill="#000000" transform="translate(182,129)"/>
<path d="M0 0 C2 1 2 1 2 1 Z " fill="#000000" transform="translate(275,93)"/>
<path d="" fill="#000000" transform="translate(0,0)"/>
<path d="" fill="#000000" transform="translate(0,0)"/>
<path d="" fill="#000000" transform="translate(0,0)"/>
<path d="" fill="#000000" transform="translate(0,0)"/>
<path d="" fill="#000000" transform="translate(0,0)"/>
<path d="" fill="#000000" transform="translate(0,0)"/>
<path d="" fill="#000000" transform="translate(0,0)"/>
<path d="" fill="#000000" transform="translate(0,0)"/>
<path d="" fill="#000000" transform="translate(0,0)"/>
<path d="" fill="#000000" transform="translate(0,0)"/>
<path d="" fill="#000000" transform="translate(0,0)"/>
<path d="" fill="#000000" transform="translate(0,0)"/>
<path d="" fill="#000000" transform="translate(0,0)"/>
<path d="" fill="#000000" transform="translate(0,0)"/>
<path d="" fill="#000000" transform="translate(0,0)"/>
</svg>
