<?xml version="1.0" encoding="UTF-8"?>
<!-- Generator: visioncortex VTracer 0.6.3 -->
<svg id="pattern2mask" version="1.1" xmlns="http://www.w3.org/2000/svg" width="1280" height="1050">
<path d="M0 0 C3.45 2.51 5.8 5.34 8.38 8.73 C7.18 11.22 5.92 13.41 4.38 15.73 C5.04 16.72 5.7 17.71 6.38 18.73 C2.12 24.18 -1.1 27.39 -7.62 29.73 C-8.3 30.27 -8.98 30.8 -9.68 31.36 C-14.85 35.02 -22.48 33.73 -28.52 33.43 C-33.09 33.31 -33.09 33.31 -36.88 35.64 C-37.74 36.68 -37.74 36.68 -38.62 37.73 C-48.12 42.17 -60.22 43.15 -70.56 44.54 C-78.25 45.68 -85.75 47.62 -93.29 49.48 C-100.41 51.22 -107.52 52.78 -114.73 54.09 C-117.59 54.63 -117.59 54.63 -119.98 55.75 C-123.66 57.12 -127.29 57.37 -131.18 57.73 C-140.82 58.71 -150.36 59.78 -159.62 62.73 C-158.61 62.79 -157.6 62.85 -156.56 62.92 C-152.24 63.56 -148.37 65.27 -145.62 68.73 C-144.93 72.41 -144.93 72.41 -144.62 75.73 C-134.53 76.13 -125.24 75.24 -115.32 73.39 C-111.81 72.76 -108.81 72.73 -105.26 72.8 C-103.3 72.83 -103.3 72.83 -101.31 72.86 C-100.01 72.88 -98.72 72.9 -97.38 72.93 C-93.7 72.73 -91.07 71.94 -87.62 70.73 C-81.54 70.22 -75.63 70.8 -69.62 71.73 C-55.57 73.14 -55.57 73.14 -41.62 71.73 C-37.39 71.53 -33.66 71.38 -29.62 72.73 C-27.75 72.82 -25.87 72.86 -24 72.86 C-23.01 72.86 -22.03 72.86 -21.02 72.86 C-18.67 73 -18.67 73 -17.62 71.73 C-16.19 71.63 -14.75 71.6 -13.31 71.61 C-12.14 71.6 -12.14 71.6 -10.95 71.6 C-8.62 71.73 -8.62 71.73 -6.52 72.36 C-4.3 73.02 -4.3 73.02 -1.62 70.73 C4.91 69.27 9.24 70.21 15.38 72.73 C16 75.61 16 75.61 16.38 78.73 C14.02 81.09 12.6 81.22 9.38 81.73 C10.37 82.06 11.36 82.39 12.38 82.73 C12.38 83.39 12.38 84.05 12.38 84.73 C11.72 84.73 11.06 84.73 10.38 84.73 C10.38 87.04 10.38 89.35 10.38 91.73 C13.77 92.45 16.67 92.75 20.13 92.66 C21.2 92.64 22.27 92.62 23.38 92.61 C24.45 92.58 25.52 92.56 26.63 92.54 C29.38 92.73 29.38 92.73 31.38 94.73 C31.05 95.06 30.72 95.39 30.38 95.73 C31.37 95.73 32.36 95.73 33.38 95.73 C33.38 95.07 33.38 94.41 33.38 93.73 C38.75 92.76 38.75 92.76 41.38 92.73 C43.38 94.17 43.38 94.17 44.38 95.73 C44.05 96.72 43.72 97.71 43.38 98.73 C39.85 99.93 36.34 100.85 32.72 101.75 C28.23 102.94 25.38 103.94 22.38 107.73 C29.16 107.97 34.8 108.05 40.69 104.23 C45.73 101.42 51.63 100.36 57.38 100.73 C57.5 101.6 57.5 101.6 57.63 102.48 C58.58 105.35 60.16 106.73 62.38 108.73 C61.08 112.62 60.01 112.91 56.38 114.73 C54.09 115.54 51.79 116.28 49.46 116.98 C47.12 117.73 47.12 117.73 44.38 119.73 C42.58 120.33 40.77 120.86 38.94 121.36 C37.99 121.62 37.05 121.88 36.07 122.14 C33.38 122.73 33.38 122.73 29.38 122.73 C29.14 123.35 28.89 123.97 28.64 124.6 C27.09 127.22 25.93 127.69 23.13 128.79 C20.47 129.87 18.11 130.89 15.63 132.36 C10.41 134.56 4.97 135.03 -0.62 135.73 C-1.31 135.82 -1.99 135.9 -2.7 135.99 C-6.16 136.43 -9.62 136.85 -13.09 137.27 C-15.97 137.65 -18.78 138.11 -21.62 138.73 C-21.95 139.72 -22.28 140.71 -22.62 141.73 C-22.02 141.79 -21.42 141.85 -20.81 141.92 C-18.62 142.73 -18.62 142.73 -16.87 144.92 C-15.45 148.12 -15.31 150.26 -15.62 153.73 C-15.95 154.39 -16.28 155.05 -16.62 155.73 C-15.63 156.06 -14.64 156.39 -13.62 156.73 C-12.5 164.48 -12.5 164.48 -13.62 166.73 C-14.28 166.73 -14.94 166.73 -15.62 166.73 C-16.51 175.3 -16.51 175.3 -13.25 182.79 C-12.38 183.43 -11.51 184.07 -10.62 184.73 C-9.31 187.04 -9.31 187.04 -8.62 188.73 C-4.56 188.9 -1.28 188.74 2.63 187.61 C3.87 187.32 5.1 187.03 6.38 186.73 C7.37 187.39 8.36 188.05 9.38 188.73 C12.3 188.68 12.3 188.68 15.44 188.23 C18.66 187.82 18.66 187.82 21.38 187.73 C22.04 188.39 22.7 189.05 23.38 189.73 C23.97 188.59 23.97 188.59 24.57 187.42 C27.02 183.78 29.21 182.16 33.56 181.29 C37.52 180.77 40.52 180.7 44.38 181.73 C45.51 181.73 46.65 181.73 47.82 181.73 C51.38 181.73 51.38 181.73 54.07 182.42 C54.83 182.52 55.59 182.62 56.38 182.73 C57.02 182.24 57.66 181.74 58.32 181.23 C60.38 179.73 60.38 179.73 63.63 180.04 C64.54 180.27 65.44 180.5 66.38 180.73 C66.71 180.07 67.04 179.41 67.38 178.73 C72.61 178.35 75.79 179.39 80.38 181.73 C80.71 182.39 81.04 183.05 81.38 183.73 C84.63 183.38 85.4 182.71 87.63 180.17 C88.21 179.36 88.78 178.56 89.38 177.73 C96.95 179.5 96.95 179.5 99.57 180.92 C102.08 182.05 103.75 181.35 106.38 180.73 C107.04 181.06 107.7 181.39 108.38 181.73 C109.37 181.4 110.36 181.07 111.38 180.73 C113.68 183.25 115.23 184.97 115.88 188.36 C115.38 190.73 115.38 190.73 113.75 192.54 C110.81 194.02 108.63 193.95 105.38 193.73 C105.38 194.39 105.38 195.05 105.38 195.73 C103.75 197.11 102.09 198.45 100.38 199.73 C100.71 201.05 101.04 202.37 101.38 203.73 C104.65 203.73 107.23 203.43 110.38 202.73 C110.71 204.38 111.04 206.03 111.38 207.73 C112.37 207.73 113.36 207.73 114.38 207.73 C114.38 207.07 114.38 206.41 114.38 205.73 C116.18 203.7 117.67 202.82 120.37 202.47 C124.92 202.37 128.91 202.98 133.28 204.23 C135.67 204.8 137.99 205.03 140.44 205.23 C144.66 205.59 148.36 206.42 152.38 207.73 C152.38 206.74 152.38 205.75 152.38 204.73 C151.37 204.34 150.36 203.95 149.32 203.54 C145.34 201.8 141.38 199.94 138.38 196.73 C137.94 193.42 137.94 193.42 138.38 190.73 C138.94 190.89 139.5 191.06 140.08 191.23 C142.51 191.76 144.65 191.83 147.13 191.79 C147.93 191.78 148.73 191.77 149.55 191.77 C150.15 191.75 150.76 191.74 151.38 191.73 C151.71 192.72 152.04 193.71 152.38 194.73 C154.69 195.06 157 195.39 159.38 195.73 C159.71 197.05 160.04 198.37 160.38 199.73 C161.7 200.06 163.02 200.39 164.38 200.73 C163.75 203.54 163.75 203.54 162.38 206.73 C159.25 208.61 159.25 208.61 156.38 209.73 C156.98 210.27 157.57 210.82 158.19 211.38 C161.23 214.64 162.92 218.31 164.91 222.27 C166.29 224.98 166.29 224.98 169.38 226.73 C169.38 227.39 169.38 228.05 169.38 228.73 C174.17 229.2 174.17 229.2 178.32 227.23 C178.84 226.49 178.84 226.49 179.38 225.73 C180.04 226.06 180.7 226.39 181.38 226.73 C181.38 227.39 181.38 228.05 181.38 228.73 C183.36 228.4 185.34 228.07 187.38 227.73 C188.92 230.82 187.55 233.32 186.66 236.54 C186.1 239.02 186.1 239.02 188.38 241.73 C188.83 248.69 188.83 248.69 187.44 251.91 C185.95 255.87 185.57 259.79 185.13 263.98 C185.03 264.79 184.92 265.6 184.82 266.43 C184.35 270.74 184.36 274.24 185.45 278.45 C187.06 284.74 184.56 289.3 181.38 294.73 C179.35 297.35 177.17 298.97 174.38 300.73 C173.85 301.07 173.32 301.41 172.78 301.76 C170.95 302.93 169.11 304.05 167.25 305.17 C166.66 305.54 166.06 305.9 165.44 306.28 C162.55 307.94 160.81 308.77 157.45 308.45 C156.77 308.21 156.08 307.98 155.38 307.73 C154.82 308.51 154.27 309.3 153.69 310.11 C149.23 315.17 143.42 315.26 137.02 316.07 C134.05 316.5 134.05 316.5 132.38 319.73 C131.39 320.06 130.4 320.39 129.38 320.73 C128.37 322.39 127.37 324.06 126.38 325.73 C124.19 327.54 124.19 327.54 122.38 328.73 C123.99 331.78 124.99 333.5 128 335.29 C131.42 338.8 131.3 342.03 131.53 346.8 C131.33 350.6 130.53 352.64 128.38 355.73 C130.03 355.73 131.68 355.73 133.38 355.73 C133.05 357.05 132.72 358.37 132.38 359.73 C131.06 359.4 129.74 359.07 128.38 358.73 C128.14 359.34 127.91 359.94 127.66 360.57 C126.07 363.26 124.6 363.94 121.82 365.29 C119.41 366.42 119.41 366.42 117.38 367.73 C117.05 368.72 116.72 369.71 116.38 370.73 C117.7 371.06 119.02 371.39 120.38 371.73 C120.38 372.39 120.38 373.05 120.38 373.73 C121.2 373.81 122.03 373.9 122.88 373.98 C126.49 374.75 129.13 375.97 132.36 377.69 C134.27 378.67 136.19 379.5 138.19 380.29 C142.26 382.13 143.76 383.28 145.5 387.36 C145.79 388.14 146.08 388.92 146.38 389.73 C146.71 390.06 147.04 390.39 147.38 390.73 C147.3 394.26 147.2 397.78 146.99 401.3 C146.87 405.68 146.87 407.15 149.89 410.59 C150.71 411.3 151.53 412 152.38 412.73 C152.38 413.72 152.38 414.71 152.38 415.73 C153 416.04 153.62 416.35 154.25 416.67 C155.63 417.36 157 418.04 158.38 418.73 C158.38 419.39 158.38 420.05 158.38 420.73 C159.04 420.73 159.7 420.73 160.38 420.73 C161.61 424.42 161.02 426.94 160.38 430.73 C159.72 430.73 159.06 430.73 158.38 430.73 C159.04 432.05 159.7 433.37 160.38 434.73 C161.04 434.07 161.7 433.41 162.38 432.73 C165.38 432.73 165.38 432.73 167.5 434.42 C169.55 436.94 170.02 438.54 170.38 441.73 C177.79 443.58 183.8 444.11 191.38 442.73 C192.04 442.73 192.7 442.73 193.38 442.73 C193.71 442.07 194.04 441.41 194.38 440.73 C195.04 440.73 195.7 440.73 196.38 440.73 C196.05 441.72 195.72 442.71 195.38 443.73 C197.69 443.4 200 443.07 202.38 442.73 C203.04 443.72 203.7 444.71 204.38 445.73 C208.48 447.29 212.71 447.73 217.07 447.73 C225.59 447.73 232.52 453.16 239.38 457.73 C239.57 460.86 239.57 460.86 239.38 463.73 C241.03 464.06 242.68 464.39 244.38 464.73 C244.38 467.37 244.38 470.01 244.38 472.73 C243.72 472.73 243.06 472.73 242.38 472.73 C242.38 475.37 242.38 478.01 242.38 480.73 C243.18 480.98 243.99 481.23 244.82 481.48 C247.38 482.73 247.38 482.73 248.32 484.61 C248.4 487.42 248.12 488.48 246.38 490.73 C244.09 491.97 241.83 492.82 239.38 493.73 C239.89 494.31 240.41 494.89 240.94 495.48 C242.38 497.73 242.38 497.73 242.07 499.98 C241.84 500.56 241.61 501.14 241.38 501.73 C240.72 501.73 240.06 501.73 239.38 501.73 C239.46 502.95 239.54 504.16 239.63 505.42 C239.62 509.81 238.39 511.48 235.38 514.73 C234.6 516.1 233.83 517.47 233.07 518.86 C230.1 523.72 226.92 524.78 221.48 526.24 C217.13 527.26 212.71 527.96 208.32 528.73 C207.33 528.91 206.34 529.09 205.33 529.27 C199.51 530.29 193.77 531.04 187.88 531.43 C184.31 531.86 181.05 532.99 177.64 534.11 C174.53 534.97 171.6 534.79 168.38 534.73 C163.66 535.45 159.04 536.54 154.44 537.79 C150.3 538.88 146.16 539.14 141.89 539.39 C139.29 539.74 137.68 540.51 135.38 541.73 C133.05 542.1 130.72 542.43 128.38 542.73 C127.39 543.06 126.4 543.39 125.38 543.73 C125.38 544.39 125.38 545.05 125.38 545.73 C124.39 545.73 123.4 545.73 122.38 545.73 C122.38 545.07 122.38 544.41 122.38 543.73 C121.39 544.39 120.4 545.05 119.38 545.73 C117.49 546.11 115.6 546.41 113.69 546.67 C110.11 547.21 106.94 547.76 103.63 549.23 C99.04 551.15 94.21 551.43 89.32 551.96 C84.68 552.49 80.52 553.37 76.18 555.05 C74.38 555.73 74.38 555.73 72.39 556.13 C70.28 556.62 70.28 556.62 68.57 558.18 C65.63 560.26 62.89 560.75 59.38 561.48 C58.16 561.74 56.95 562.01 55.69 562.28 C52.65 562.69 51.21 562.63 48.38 561.73 C47.06 561.73 45.74 561.73 44.38 561.73 C44.38 563.71 44.38 565.69 44.38 567.73 C45.52 567.92 45.52 567.92 46.69 568.11 C49.38 568.73 49.38 568.73 52.38 570.73 C49.32 572.51 47.16 572.96 43.63 572.86 C42.83 572.84 42.03 572.82 41.21 572.8 C40.3 572.77 40.3 572.77 39.38 572.73 C39.05 573.72 38.72 574.71 38.38 575.73 C37.06 575.73 35.74 575.73 34.38 575.73 C34.38 577.71 34.38 579.69 34.38 581.73 C37.35 581.39 37.35 581.39 40.38 580.73 C40.71 580.07 41.04 579.41 41.38 578.73 C43.03 579.06 44.68 579.39 46.38 579.73 C46.38 580.39 46.38 581.05 46.38 581.73 C49.2 581.61 49.2 581.61 52.38 580.73 C53.31 579.47 53.31 579.47 54.25 578.18 C59.3 574.22 64.55 575.3 70.75 575.67 C72.01 575.73 73.27 575.79 74.57 575.85 C82.52 576.31 89.84 577.29 97.4 579.79 C100.47 580.85 100.47 580.85 104.14 581.27 C107.38 581.73 107.38 581.73 109.32 583.17 C110.38 584.73 110.38 584.73 110.38 586.73 C115.33 586.73 120.28 586.73 125.38 586.73 C125.71 587.72 126.04 588.71 126.38 589.73 C127.43 589.67 128.48 589.61 129.57 589.54 C133.54 589.74 135.29 590.3 138.38 592.73 C138.38 593.39 138.38 594.05 138.38 594.73 C139.37 595.06 140.36 595.39 141.38 595.73 C141.38 597.05 141.38 598.37 141.38 599.73 C145.95 600.65 149.22 600.6 153.82 599.73 C157.39 599.34 158.81 599.33 161.79 601.42 C165.79 605.72 168.82 609.82 169.38 615.73 C168.11 619.1 166.92 621.19 164.38 623.73 C164 627.46 164.23 628.51 166.38 631.73 C165.99 634.72 164.71 637.06 163.38 639.73 C163.38 640.39 163.38 641.05 163.38 641.73 C164.04 641.73 164.7 641.73 165.38 641.73 C165.71 642.39 166.04 643.05 166.38 643.73 C167.37 643.73 168.36 643.73 169.38 643.73 C169.38 645.05 169.38 646.37 169.38 647.73 C168.06 648.06 166.74 648.39 165.38 648.73 C165.05 647.74 164.72 646.75 164.38 645.73 C163.72 645.73 163.06 645.73 162.38 645.73 C162.87 646.41 163.37 647.09 163.88 647.79 C166.08 652.1 165.99 655.53 164.7 660.18 C163.97 662.38 163.21 664.56 162.38 666.73 C160.73 667.06 159.08 667.39 157.38 667.73 C157.38 668.39 157.38 669.05 157.38 669.73 C154.04 669.8 151.58 669.8 148.38 668.73 C145.66 669.39 145.66 669.39 142.63 670.48 C135.29 672.86 127.96 674.35 120.38 675.73 C118.82 680.12 118.82 680.12 118.38 684.73 C119.8 684.67 119.8 684.67 121.25 684.61 C124.38 684.73 124.38 684.73 126.38 686.73 C129.52 687.74 132.64 688.58 135.88 689.23 C140.92 690.24 145.62 691.83 150.38 693.73 C151.58 694.06 152.77 694.39 154 694.73 C157.38 695.73 157.38 695.73 160.38 697.73 C160.38 698.39 160.38 699.05 160.38 699.73 C161.37 700.06 162.36 700.39 163.38 700.73 C164.37 702.59 164.37 702.59 165.25 704.92 C167.09 709.31 168.96 712.4 172.38 715.73 C173.7 715.73 175.02 715.73 176.38 715.73 C176.71 715.07 177.04 714.41 177.38 713.73 C179.44 715.42 179.44 715.42 181.38 717.73 C181.13 720.48 181.13 720.48 180.38 722.73 C179.06 722.73 177.74 722.73 176.38 722.73 C176.23 723.7 176.09 724.67 175.94 725.67 C175.38 728.73 175.38 728.73 174.38 729.73 C174.15 731.41 173.97 733.1 173.82 734.79 C173.69 736.17 173.69 736.17 173.56 737.58 C173.5 738.29 173.44 739 173.38 739.73 C174.04 739.73 174.7 739.73 175.38 739.73 C176.96 742.9 176.72 745.21 176.38 748.73 C173.98 754.41 170.09 759.2 164.38 761.73 C160.88 762.35 157.64 762.49 154.5 760.6 C151.4 759.33 149.72 760.28 146.63 761.42 C145.03 761.99 145.03 761.99 143.41 762.58 C142.41 762.96 141.41 763.34 140.38 763.73 C139.27 764.14 139.27 764.14 138.13 764.57 C136.86 765.04 135.59 765.53 134.32 766.02 C131.38 767.1 128.37 767.99 125.36 768.89 C123.14 769.83 122.01 770.98 120.38 772.73 C116.43 774.76 112.32 775.33 107.98 775.97 C104.63 776.95 102.26 778.78 99.38 780.73 C92.37 783.73 85.21 786.09 77.66 787.18 C75.2 787.67 75.2 787.67 72.56 789.27 C68.78 791 66.13 791.03 62 790.92 C60.76 790.89 59.51 790.86 58.23 790.84 C56.82 790.78 56.82 790.78 55.38 790.73 C55.05 791.72 54.72 792.71 54.38 793.73 C52.73 793.73 51.08 793.73 49.38 793.73 C49.05 795.05 48.72 796.37 48.38 797.73 C41.86 798.75 41.86 798.75 38.63 798.61 C36.32 798.48 36.32 798.48 35 800.11 C32.56 802.55 29.66 802.86 26.38 803.73 C29.4 803.93 32.42 804.11 35.44 804.29 C36.29 804.35 37.14 804.41 38.01 804.46 C42.98 804.75 47.44 804.48 52.38 803.73 C53.37 804.06 54.36 804.39 55.38 804.73 C60.08 805.04 60.08 805.04 64.52 803.74 C68.59 802.3 72.41 802.4 76.69 802.42 C77.51 802.4 78.32 802.39 79.17 802.37 C84.05 802.37 87.42 803.09 91.97 805.01 C97.68 806.72 103.94 806.49 109.88 806.73 C120.96 807.18 130.31 807.7 139.38 814.73 C139.38 815.39 139.38 816.05 139.38 816.73 C140.04 816.73 140.7 816.73 141.38 816.73 C141.71 819.04 142.04 821.35 142.38 823.73 C143.04 823.73 143.7 823.73 144.38 823.73 C144.73 828.61 143.8 831.5 141.38 835.73 C140.72 835.73 140.06 835.73 139.38 835.73 C139.83 840.21 139.83 840.21 142.38 843.73 C142.13 848.25 140.13 851.24 137.38 854.73 C133.35 857.97 130.41 858.98 125.38 859.73 C124.64 860.2 123.89 860.68 123.13 861.17 C115.59 865.45 105.77 865.23 97.32 865.79 C95.08 865.95 92.83 866.11 90.59 866.27 C89.54 866.34 88.48 866.41 87.39 866.49 C84.63 866.71 81.91 867.04 79.17 867.41 C77.92 867.51 76.67 867.62 75.38 867.73 C73.75 865.86 73.75 865.86 72.38 863.73 C68.97 862.56 68.97 862.56 65.38 862.73 C63.36 864.5 63.36 864.5 61.38 866.73 C52.64 871.09 43.09 872.1 33.5 872.79 C31.44 872.95 29.38 873.1 27.32 873.27 C26.42 873.33 25.52 873.4 24.59 873.47 C22.34 873.61 22.34 873.61 20.38 874.73 C18.05 874.86 15.72 874.93 13.39 874.98 C11.97 875.01 10.55 875.04 9.12 875.08 C6.88 875.12 4.64 875.17 2.39 875.21 C0.23 875.25 -1.94 875.3 -4.11 875.35 C-6.05 875.39 -6.05 875.39 -8.03 875.43 C-11.56 875.73 -14.32 876.5 -17.62 877.73 C-26.16 879.4 -34.45 879.84 -43.12 879.69 C-50.32 879.62 -57.45 880.11 -64.62 880.67 C-65.77 880.75 -66.93 880.84 -68.11 880.93 C-73.54 881.16 -73.54 881.16 -78.62 882.73 C-80.43 882.99 -82.24 883.19 -84.06 883.36 C-85.03 883.45 -85.99 883.55 -86.99 883.64 C-89.94 883.71 -92.43 883.52 -95.33 883.14 C-103.05 882.37 -110.63 883.39 -118.3 884.25 C-120.88 884.54 -123.46 884.82 -126.04 885.08 C-127.69 885.26 -129.35 885.44 -131.01 885.62 C-132.15 885.75 -132.15 885.75 -133.32 885.87 C-137.93 886.4 -142.16 887.38 -146.62 888.73 C-148.53 888.97 -150.45 889.17 -152.37 889.29 C-155.42 889.5 -157.71 889.76 -160.62 890.73 C-162.83 890.86 -165.04 890.96 -167.25 891.04 C-172.75 891.39 -176.67 892.29 -181.52 894.82 C-184.53 896.13 -187.42 896.31 -190.68 896.46 C-192.94 896.63 -192.94 896.63 -195.62 898.73 C-197.29 899.15 -198.99 899.5 -200.68 899.79 C-204.27 900.41 -204.27 900.41 -207.62 901.73 C-209.64 901.89 -211.66 902.01 -213.68 902.11 C-218.65 902.45 -222.75 903.23 -227.38 904.97 C-231.67 906.42 -236.17 906.98 -240.62 907.73 C-242.41 908.05 -244.21 908.39 -246 908.73 C-246.77 908.87 -247.54 909.02 -248.33 909.17 C-250.68 909.68 -250.68 909.68 -253 910.77 C-257.08 912.27 -261.16 912.13 -265.46 912.29 C-268.93 912.77 -270.69 913.9 -273.62 915.73 C-276.48 916.43 -276.48 916.43 -279.37 916.86 C-282.8 917.13 -282.8 917.13 -285.62 918.73 C-289.21 919.27 -292.8 919.7 -296.4 920.13 C-299.7 920.43 -299.7 920.43 -301.62 922.73 C-306.64 923.78 -311.47 923.79 -316.58 923.67 C-318.62 923.5 -318.62 923.5 -319.62 924.73 C-321.64 925.03 -323.66 925.29 -325.68 925.54 C-330.74 926.27 -334.38 927.39 -338.77 929.91 C-342.05 931.36 -345.09 930.98 -348.62 930.73 C-348.62 931.39 -348.62 932.05 -348.62 932.73 C-354.03 933.88 -359.14 934.87 -364.68 934.61 C-371.39 934.43 -377.11 937.06 -382.62 940.73 C-384.65 941.09 -386.63 941.23 -388.68 941.39 C-390.94 941.65 -390.94 941.65 -393.62 943.73 C-396.4 944.1 -399.14 944.38 -401.93 944.61 C-410.24 945.39 -417.67 947.18 -425.62 949.73 C-437.12 953.13 -448.75 955.2 -460.62 956.73 C-460.62 957.39 -460.62 958.05 -460.62 958.73 C-464.11 960.48 -468.12 960.19 -471.97 960.45 C-474.54 960.44 -474.54 960.44 -475.62 961.73 C-478.6 961.94 -481.57 962.11 -484.56 962.23 C-486.21 962.3 -487.87 962.37 -489.52 962.45 C-490.63 962.49 -490.63 962.49 -491.76 962.54 C-493.71 962.63 -493.71 962.63 -495.62 963.73 C-497.5 963.7 -499.37 963.63 -501.25 963.54 C-508.99 963.49 -513.32 965.94 -519.31 970.54 C-522.62 972.73 -522.62 972.73 -525.43 972.67 C-527.62 971.73 -527.62 971.73 -529.62 969.73 C-533.76 970.03 -536.14 970.41 -539.62 972.73 C-542.36 973.76 -545.18 974.54 -548 975.36 C-548.75 975.58 -549.51 975.81 -550.29 976.05 C-554.16 977.19 -557.54 978.04 -561.62 977.73 C-561.62 978.39 -561.62 979.05 -561.62 979.73 C-566.33 982.52 -570.13 983.12 -575.5 982.92 C-576.18 982.9 -576.87 982.89 -577.58 982.88 C-579.26 982.84 -580.94 982.79 -582.62 982.73 C-583.28 981.08 -583.94 979.43 -584.62 977.73 C-583.49 977.46 -582.35 977.19 -581.18 976.92 C-579.42 976.33 -579.42 976.33 -577.62 975.73 C-577.29 974.74 -576.96 973.75 -576.62 972.73 C-578.93 972.73 -581.24 972.73 -583.62 972.73 C-583.95 971.74 -584.28 970.75 -584.62 969.73 C-581.99 965.78 -579.2 965.62 -574.81 964.67 C-570.22 963.63 -565.99 962.49 -561.62 960.73 C-559.45 960.39 -559.45 960.39 -557.31 960.23 C-552.92 959.83 -548.88 958.89 -544.62 957.73 C-545.28 957.07 -545.94 956.41 -546.62 955.73 C-546.62 954.41 -546.62 953.09 -546.62 951.73 C-548.93 951.73 -551.24 951.73 -553.62 951.73 C-553.95 953.05 -554.28 954.37 -554.62 955.73 C-556.27 955.73 -557.92 955.73 -559.62 955.73 C-559.62 952.73 -559.62 952.73 -557.56 950.36 C-549.75 943.38 -540.29 937.67 -529.75 936.18 C-528.2 935.96 -528.2 935.96 -526.62 935.73 C-526.29 935.07 -525.96 934.41 -525.62 933.73 C-523.3 933.32 -520.96 932.99 -518.62 932.73 C-517.96 931.08 -517.3 929.43 -516.62 927.73 C-521.17 928.06 -524.61 928.59 -528.68 930.67 C-532.85 932.7 -536.65 933.2 -541.25 933.67 C-547.45 934.32 -547.45 934.32 -552.68 937.42 C-555.62 939.73 -555.62 939.73 -558.75 939.61 C-559.69 939.32 -560.64 939.03 -561.62 938.73 C-562.47 938.57 -563.31 938.4 -564.18 938.23 C-564.99 938.07 -565.79 937.9 -566.62 937.73 C-567.49 937.59 -568.35 937.44 -569.25 937.29 C-571.62 936.73 -571.62 936.73 -574.62 934.73 C-572.49 929.8 -569.38 927.99 -564.62 925.73 C-558.22 923.49 -551.75 921.85 -545.06 920.79 C-539.17 919.83 -529.95 918.06 -525.62 913.73 C-524 913.36 -522.38 913.03 -520.75 912.73 C-517.92 912.2 -515.35 911.64 -512.62 910.73 C-512.04 911.06 -511.47 911.39 -510.87 911.73 C-507.62 913.17 -505.05 912.31 -501.62 911.73 C-501.29 912.06 -500.96 912.39 -500.62 912.73 C-495.77 913.18 -492.76 912.27 -488.62 909.73 C-487.96 908.74 -487.3 907.75 -486.62 906.73 C-484.49 905.82 -484.49 905.82 -482.06 905.11 C-479.08 904.38 -479.08 904.38 -476.62 902.73 C-474.56 902.41 -472.5 902.22 -470.43 902.01 C-468.6 901.91 -468.6 901.91 -467.62 900.73 C-468.86 900.9 -470.1 901.06 -471.37 901.23 C-475.1 901.65 -478.74 901.77 -482.5 901.73 C-488.86 901.67 -495.44 901.73 -501.65 903.22 C-505.94 903.96 -510.22 904.06 -514.56 904.23 C-515.52 904.27 -516.47 904.31 -517.46 904.35 C-521.55 904.53 -525.63 904.69 -529.72 904.86 C-532.71 904.98 -535.7 905.1 -538.68 905.23 C-539.6 905.27 -540.53 905.3 -541.47 905.34 C-545.64 905.52 -549.53 905.85 -553.62 906.73 C-557.58 906.95 -561.53 906.92 -565.5 906.92 C-566.56 906.93 -567.62 906.94 -568.72 906.96 C-574.37 906.97 -579.38 906.95 -584.62 904.73 C-585.09 904.05 -585.56 903.36 -586.04 902.66 C-587.62 900.31 -587.62 900.31 -591.42 900.05 C-592.92 899.97 -594.43 899.9 -595.93 899.86 C-597.05 899.79 -597.05 899.79 -598.2 899.71 C-602.84 899.5 -606.2 900.14 -610.62 901.73 C-613.16 901.75 -613.16 901.75 -615.68 901.54 C-622.61 901.37 -628.42 903.84 -634.62 906.73 C-634.95 907.06 -635.28 907.39 -635.62 907.73 C-637.95 908.06 -640.29 908.4 -642.62 908.73 C-642.95 909.06 -643.28 909.39 -643.62 909.73 C-645.14 909.8 -646.66 909.81 -648.18 909.79 C-649.01 909.78 -649.84 909.77 -650.69 909.77 C-651.33 909.75 -651.96 909.74 -652.62 909.73 C-652.95 909.07 -653.28 908.41 -653.62 907.73 C-657.76 907.48 -657.76 907.48 -661.62 908.73 C-664.44 910.14 -666.51 910.05 -669.62 909.73 C-672 908.36 -672 908.36 -673.62 906.73 C-673.62 906.07 -673.62 905.41 -673.62 904.73 C-675.26 904.82 -675.26 904.82 -676.93 904.92 C-680.62 904.73 -680.62 904.73 -682.43 903.61 C-685.29 899.1 -686.22 893.99 -686.62 888.73 C-683.94 886.05 -681.21 885.62 -677.62 884.61 C-676.96 884.32 -676.3 884.03 -675.62 883.73 C-675.29 882.74 -674.96 881.75 -674.62 880.73 C-676.48 880.85 -676.48 880.85 -678.37 880.98 C-681.38 881.18 -682.38 880.9 -684.87 879.11 C-687.13 876.04 -687.03 874.25 -686.87 870.48 C-686.84 869.4 -686.8 868.33 -686.76 867.21 C-686.72 866.39 -686.67 865.58 -686.62 864.73 C-687.61 865.39 -688.6 866.05 -689.62 866.73 C-693.12 866.87 -696.58 866.73 -700.08 866.61 C-703.67 866.73 -706.27 867.51 -709.62 868.73 C-712.37 868.73 -714.25 868.36 -716.87 867.67 C-722.29 866.43 -726.54 867.04 -731.81 868.79 C-736.16 869.86 -739.98 869.82 -744.43 869.73 C-747.6 869.73 -750.66 869.97 -753.81 870.29 C-765.6 871.37 -765.6 871.37 -770.48 868.72 C-772.8 867.65 -774.34 867.47 -776.89 867.42 C-777.69 867.4 -778.5 867.37 -779.34 867.35 C-781.01 867.31 -782.68 867.28 -784.36 867.25 C-790.09 867.07 -794.32 865.92 -799.62 863.73 C-802.46 863.48 -802.46 863.48 -804.62 863.73 C-804.62 863.07 -804.62 862.41 -804.62 861.73 C-805.61 861.4 -806.6 861.07 -807.62 860.73 C-806.96 859.41 -806.3 858.09 -805.62 856.73 C-809.01 853.13 -809.01 853.13 -813.12 850.43 C-817.98 847.12 -819.17 841.2 -820.62 835.73 C-821.27 829.59 -820.77 823.79 -819.62 817.73 C-819.95 817.4 -820.28 817.07 -820.62 816.73 C-820.83 814.48 -820.99 812.23 -821.12 809.98 C-821.37 805.8 -821.69 801.81 -822.62 797.73 C-821.96 797.73 -821.3 797.73 -820.62 797.73 C-820.13 795.26 -820.13 795.26 -819.62 792.73 C-818.96 793.06 -818.3 793.39 -817.62 793.73 C-817.62 794.39 -817.62 795.05 -817.62 795.73 C-816.96 795.73 -816.3 795.73 -815.62 795.73 C-815.68 794.99 -815.73 794.25 -815.79 793.48 C-815.59 790.27 -814.86 789.15 -812.87 786.67 C-812.05 785.64 -812.05 785.64 -811.21 784.59 C-809.44 782.52 -807.61 780.59 -805.62 778.73 C-805.19 778.21 -804.75 777.7 -804.31 777.17 C-802.25 775.41 -800.02 774.55 -797.52 773.55 C-795.58 772.71 -793.81 771.74 -792 770.67 C-789.2 769.07 -786.61 767.88 -783.62 766.73 C-782.11 765.93 -782.11 765.93 -780.56 765.11 C-777.62 763.73 -777.62 763.73 -773.62 763.73 C-773.29 762.74 -772.96 761.75 -772.62 760.73 C-771.51 760.58 -771.51 760.58 -770.37 760.42 C-767.65 759.93 -767.65 759.93 -765.87 758.42 C-762.45 755.85 -758.55 754.38 -754.62 752.73 C-754.62 752.4 -754.62 752.07 -754.62 751.73 C-762.52 751.38 -769.75 751.8 -777.5 753.23 C-785.16 754.59 -792.65 755.06 -800.43 755.11 C-801.45 755.12 -802.47 755.13 -803.52 755.15 C-808.91 755.11 -813.05 754.92 -817.62 751.73 C-818.5 749.04 -818.5 749.04 -818.62 746.73 C-820.27 746.4 -821.92 746.07 -823.62 745.73 C-823.62 745.07 -823.62 744.41 -823.62 743.73 C-824.28 743.73 -824.94 743.73 -825.62 743.73 C-828.25 741.42 -829.5 740.09 -830.62 736.73 C-837.22 736.4 -843.82 736.07 -850.62 735.73 C-851.12 738.21 -851.12 738.21 -851.62 740.73 C-852.94 740.4 -854.26 740.07 -855.62 739.73 C-855.62 738.41 -855.62 737.09 -855.62 735.73 C-856.4 735.48 -857.19 735.24 -858 734.98 C-860.94 733.58 -861.52 732.72 -862.62 729.73 C-860.97 729.4 -859.32 729.07 -857.62 728.73 C-857.95 727.84 -858.28 726.96 -858.62 726.04 C-859.53 723.02 -859.8 720.85 -859.62 717.73 C-861.27 717.4 -862.92 717.07 -864.62 716.73 C-865.28 714.42 -865.94 712.11 -866.62 709.73 C-864.04 707.08 -861.7 704.79 -858.62 702.73 C-858.26 699.6 -858.26 699.6 -858.43 696.11 C-858.47 694.32 -858.47 694.32 -858.52 692.5 C-858.55 691.59 -858.59 690.67 -858.62 689.73 C-860.38 689.08 -860.38 689.08 -862.18 688.42 C-864.9 687.41 -867.53 686.33 -870.18 685.17 C-873.6 683.65 -873.6 683.65 -877.25 682.73 C-881.73 681.4 -884.62 680.04 -887.5 676.29 C-889.48 673.91 -890.67 672.98 -893.31 671.54 C-896.62 669.73 -896.62 669.73 -897.62 667.73 C-898.8 667.58 -898.8 667.58 -900 667.42 C-902.62 666.73 -902.62 666.73 -904.37 664.73 C-905.99 660.85 -906.8 656.95 -906.62 652.73 C-904.06 650.17 -902.14 650.19 -898.62 649.73 C-902.3 648.55 -905.79 648.66 -909.62 648.73 C-909.95 647.41 -910.28 646.09 -910.62 644.73 C-909.63 644.07 -908.64 643.41 -907.62 642.73 C-907.29 643.06 -906.96 643.39 -906.62 643.73 C-906.29 642.74 -905.96 641.75 -905.62 640.73 C-906.61 640.4 -907.6 640.07 -908.62 639.73 C-908.81 637.36 -908.81 637.36 -908.62 634.73 C-907.63 634.07 -906.64 633.41 -905.62 632.73 C-905.95 631.6 -906.28 630.46 -906.62 629.29 C-909.22 618.43 -906.53 609.64 -901.05 599.95 C-899.72 597.89 -898.51 596.29 -896.62 594.73 C-895.96 594.73 -895.3 594.73 -894.62 594.73 C-894.47 593.86 -894.47 593.86 -894.31 592.98 C-893.62 590.73 -893.62 590.73 -892.03 588.95 C-890.35 586.77 -890.35 586.77 -890.77 583.93 C-890.99 582.96 -891.21 581.98 -891.43 580.98 C-891.65 580 -891.86 579.01 -892.08 578 C-892.26 577.25 -892.44 576.5 -892.62 575.73 C-893.22 575.68 -893.83 575.63 -894.45 575.57 C-900.9 574.66 -900.9 574.66 -903.11 571.82 C-904.08 569.81 -904.92 567.84 -905.62 565.73 C-906.61 566.06 -907.6 566.39 -908.62 566.73 C-909.28 564.42 -909.94 562.11 -910.62 559.73 C-911.28 559.73 -911.94 559.73 -912.62 559.73 C-915.16 550.38 -915.16 550.38 -914.62 546.73 C-913.63 546.07 -912.64 545.41 -911.62 544.73 C-911.95 544.4 -912.28 544.07 -912.62 543.73 C-912.85 541.7 -913.07 539.67 -913.24 537.64 C-913.48 535.5 -913.48 535.5 -915.62 533.73 C-915.96 527.41 -915.96 527.41 -914.62 524.73 C-914.79 522.65 -914.79 522.65 -915.62 520.73 C-916.61 520.4 -917.6 520.07 -918.62 519.73 C-919.61 520.72 -920.6 521.71 -921.62 522.73 C-922.28 522.4 -922.94 522.07 -923.62 521.73 C-923.62 521.07 -923.62 520.41 -923.62 519.73 C-924.38 519.67 -925.15 519.61 -925.93 519.54 C-928.62 518.73 -928.62 518.73 -930.43 516.48 C-931.7 513.55 -932.12 511.88 -931.62 508.73 C-930.37 506.92 -930.37 506.92 -928.62 505.73 C-927.3 505.73 -925.98 505.73 -924.62 505.73 C-924.66 505.14 -924.69 504.54 -924.73 503.93 C-925.05 494.07 -923.29 485.24 -916.62 477.73 C-915.63 477.73 -914.64 477.73 -913.62 477.73 C-913.35 477.19 -913.08 476.66 -912.81 476.11 C-912.42 475.32 -912.02 474.54 -911.62 473.73 C-911 472.18 -911 472.18 -910.37 470.61 C-908.17 466.98 -906.54 466.98 -902.62 465.73 C-901.37 463.32 -901.37 463.32 -900.62 460.73 C-898.44 458.16 -896 456.65 -893.06 455.04 C-892.27 454.61 -891.49 454.17 -890.68 453.72 C-888.62 452.73 -888.62 452.73 -886.62 452.73 C-886.58 452.15 -886.54 451.58 -886.5 450.98 C-885.18 447.6 -882.66 446.54 -879.62 444.73 C-884.27 444.46 -884.27 444.46 -888.62 445.73 C-895.74 446.28 -902.51 446.55 -909.18 443.73 C-915.48 441.08 -921.88 440.81 -928.62 441.73 C-930.29 442.73 -931.96 443.73 -933.62 444.73 C-934.94 444.4 -936.26 444.07 -937.62 443.73 C-935.31 441.75 -933 439.77 -930.62 437.73 C-930.97 436.45 -931.32 435.17 -931.68 433.86 C-932.75 429.98 -932.75 429.98 -931.62 427.73 C-932.21 427.53 -932.8 427.32 -933.41 427.11 C-938.18 424.14 -940.02 417.9 -941.62 412.73 C-941.54 409.22 -940.86 407.06 -939.62 403.73 C-941.6 403.73 -943.58 403.73 -945.62 403.73 C-945.62 400.95 -945.41 398.31 -945.12 395.54 C-944.98 394.19 -944.98 394.19 -944.84 392.81 C-944.77 392.13 -944.7 391.44 -944.62 390.73 C-945.61 390.4 -946.6 390.07 -947.62 389.73 C-946.63 387.75 -946.63 387.75 -945.62 385.73 C-944.96 386.06 -944.3 386.39 -943.62 386.73 C-943.62 387.72 -943.62 388.71 -943.62 389.73 C-942.96 389.73 -942.3 389.73 -941.62 389.73 C-941.93 388.84 -942.24 387.96 -942.56 387.04 C-943.45 384.26 -944.11 381.6 -944.62 378.73 C-943.96 378.73 -943.3 378.73 -942.62 378.73 C-943.24 377.52 -943.24 377.52 -943.87 376.29 C-944.8 371.89 -944.05 369.86 -942.09 365.9 C-940.04 362.88 -937.6 361.09 -934.58 359.08 C-932.35 357.64 -932.35 357.64 -929.87 354.86 C-927.62 352.73 -927.62 352.73 -923.62 352.73 C-923.62 352.07 -923.62 351.41 -923.62 350.73 C-922.25 349.11 -922.25 349.11 -920.62 347.73 C-919.96 347.73 -919.3 347.73 -918.62 347.73 C-918.29 346.74 -917.96 345.75 -917.62 344.73 C-913.29 341.73 -913.29 341.73 -910.62 341.73 C-910.62 341.07 -910.62 340.41 -910.62 339.73 C-909.33 339.23 -908.04 338.73 -906.75 338.23 C-905.67 337.81 -905.67 337.81 -904.57 337.39 C-902.62 336.73 -902.62 336.73 -900.62 336.73 C-900.29 335.74 -899.96 334.75 -899.62 333.73 C-897.64 332.37 -895.64 331.04 -893.62 329.73 C-892.96 329.03 -892.3 328.33 -891.62 327.61 C-889.15 325.29 -886.85 324.61 -883.62 323.73 C-883.62 323.07 -883.62 322.41 -883.62 321.73 C-881.06 319.43 -880.14 318.73 -876.62 318.73 C-876.29 317.74 -875.96 316.75 -875.62 315.73 C-874.23 315.67 -874.23 315.67 -872.81 315.61 C-869.35 315.05 -869.35 315.05 -867.87 311.79 C-867.46 310.78 -867.05 309.77 -866.62 308.73 C-865.96 308.07 -865.3 307.41 -864.62 306.73 C-864.95 306.4 -865.28 306.07 -865.62 305.73 C-865.71 304.39 -865.73 303.04 -865.72 301.7 C-865.71 300.48 -865.71 300.48 -865.71 299.24 C-865.7 297.97 -865.7 297.97 -865.68 296.67 C-865.68 295.81 -865.67 294.96 -865.67 294.08 C-865.66 291.96 -865.64 289.85 -865.62 287.73 C-864.3 287.07 -862.98 286.41 -861.62 285.73 C-861.79 284.95 -861.95 284.16 -862.12 283.36 C-862.62 280.73 -862.62 280.73 -862.62 278.73 C-863.24 279.08 -863.86 279.43 -864.5 279.79 C-865.55 280.26 -865.55 280.26 -866.62 280.73 C-867.28 280.4 -867.94 280.07 -868.62 279.73 C-868.89 277.77 -869.14 275.81 -869.34 273.85 C-869.58 271.53 -869.58 271.53 -870.68 268.67 C-871.82 265.1 -872.02 262.46 -871.62 258.73 C-869.75 255.29 -869.75 255.29 -867.62 252.73 C-866.96 252.73 -866.3 252.73 -865.62 252.73 C-865.27 251.86 -865.27 251.86 -864.9 250.96 C-863.35 248.25 -861.6 246.87 -859.12 244.98 C-858.33 244.37 -857.53 243.75 -856.71 243.12 C-854.62 241.73 -854.62 241.73 -852.62 241.73 C-852.62 241.07 -852.62 240.41 -852.62 239.73 C-847.13 235.22 -841.13 232.5 -834.62 229.73 C-833.61 229.3 -833.61 229.3 -832.57 228.86 C-831.99 228.61 -831.41 228.36 -830.81 228.11 C-827.61 226.79 -827.61 226.79 -824.68 225.11 C-821.97 223.89 -820.42 223.5 -817.56 223.23 C-813.5 222.72 -812.01 221.82 -808.62 219.73 C-806.77 218.95 -804.89 218.22 -803 217.54 C-802.06 217.2 -801.11 216.85 -800.14 216.5 C-797.62 215.73 -797.62 215.73 -794.62 215.73 C-794.62 215.07 -794.62 214.41 -794.62 213.73 C-782.14 208.17 -782.14 208.17 -775.62 207.73 C-778.92 206.52 -781.88 205.7 -785.37 205.23 C-788.62 204.73 -788.62 204.73 -790.62 202.73 C-791.83 202.36 -791.83 202.36 -793.06 201.98 C-796.52 200.29 -796.99 198.13 -798.62 194.73 C-800.64 193.6 -800.64 193.6 -802.62 192.73 C-803.87 190.61 -803.87 190.61 -804.62 188.73 C-804.29 188.4 -803.96 188.07 -803.62 187.73 C-803.38 185.25 -803.24 182.76 -803.1 180.27 C-802.55 177.34 -801.66 175.88 -799.62 173.73 C-798.96 173.73 -798.3 173.73 -797.62 173.73 C-797.29 171.75 -796.96 169.77 -796.62 167.73 C-800.25 167.4 -803.88 167.07 -807.62 166.73 C-807.29 165.08 -806.96 163.43 -806.62 161.73 C-799.15 159.2 -791.8 157.9 -784 156.86 C-773.75 155.39 -764.35 153.25 -754.62 149.73 C-749.32 147.81 -743.99 146.81 -738.46 145.88 C-734.6 145.19 -731.22 144.23 -727.62 142.73 C-725.96 142.37 -724.3 142.06 -722.62 141.79 C-712.94 140.11 -703.7 137.83 -694.4 134.64 C-685.42 131.59 -676.23 129.47 -666.95 127.55 C-657.43 125.57 -648.47 123.6 -639.49 119.8 C-635.46 118.3 -631.43 117.67 -627.18 117.09 C-624.93 116.77 -622.81 116.33 -620.62 115.73 C-620.62 115.07 -620.62 114.41 -620.62 113.73 C-619.61 113.66 -618.59 113.58 -617.54 113.5 C-609.15 112.75 -603 111.29 -595.56 107.12 C-591.36 105.13 -587.24 104.7 -582.66 104.15 C-577.22 103.4 -572.34 101.44 -567.29 99.35 C-560.96 96.98 -554.32 95.7 -547.75 94.23 C-539.97 92.48 -532.28 90.69 -524.67 88.32 C-522.12 87.59 -519.64 87.23 -517 87.04 C-516.16 86.98 -515.32 86.91 -514.46 86.84 C-513.85 86.81 -513.25 86.77 -512.62 86.73 C-512.62 86.07 -512.62 85.41 -512.62 84.73 C-511.95 84.68 -511.27 84.63 -510.57 84.58 C-509.24 84.47 -509.24 84.47 -507.87 84.36 C-506.55 84.25 -506.55 84.25 -505.2 84.14 C-502.6 83.73 -500.93 82.94 -498.62 81.73 C-496.29 81.38 -493.96 81.04 -491.62 80.73 C-491.29 80.4 -490.96 80.07 -490.62 79.73 C-489.32 79.79 -488.02 79.85 -486.68 79.92 C-481.94 79.98 -478.6 78.71 -474.32 76.81 C-470.38 75.23 -466.32 74.36 -462.19 73.44 C-459.41 72.82 -459.41 72.82 -456.62 70.73 C-455.01 70.76 -453.39 70.8 -451.78 70.86 C-448.11 70.64 -444.71 69.42 -441.2 68.39 C-438.26 67.64 -435.64 67.66 -432.62 67.73 C-431 67.27 -429.38 66.8 -427.77 66.3 C-425.09 65.59 -422.42 65.2 -419.68 64.79 C-414.48 64.03 -409.3 63.18 -404.12 62.23 C-403.12 62.05 -403.12 62.05 -402.09 61.87 C-397.3 60.98 -393.29 59.72 -389.1 57.23 C-383.89 54.98 -378.53 54.44 -372.93 53.67 C-370.68 53.35 -368.42 53.03 -366.17 52.7 C-365.18 52.56 -364.18 52.42 -363.16 52.28 C-360.39 51.84 -360.39 51.84 -357.62 49.73 C-355.63 49.02 -353.63 48.36 -351.62 47.73 C-350.75 47.4 -349.89 47.07 -349 46.73 C-345.03 45.56 -341.09 44.92 -337.01 44.29 C-334.31 43.84 -331.64 43.34 -328.95 42.8 C-325.27 42.05 -321.57 41.35 -317.87 40.7 C-316.43 40.44 -316.43 40.44 -314.97 40.18 C-312.99 39.83 -311.02 39.49 -309.04 39.14 C-307.62 38.89 -307.62 38.89 -306.18 38.63 C-305.33 38.48 -304.47 38.33 -303.6 38.18 C-301.63 37.92 -301.63 37.92 -300.62 36.73 C-292.94 35.1 -285.08 34.25 -277.29 33.23 C-270.15 32.26 -263.07 31.01 -256 29.67 C-251.58 28.84 -247.2 28.37 -242.71 28.07 C-240.32 27.83 -240.32 27.83 -237.62 25.73 C-235.57 25.5 -233.5 25.37 -231.43 25.29 C-224.57 24.9 -218.05 23.81 -211.31 22.45 C-205.51 21.32 -199.9 20.66 -194.01 20.49 C-185.54 20.23 -178.01 19.16 -169.92 16.67 C-166.49 15.69 -163.15 15.21 -159.62 14.73 C-158.8 14.4 -157.97 14.07 -157.12 13.73 C-153.98 12.47 -150.98 12.18 -147.62 11.73 C-146.14 11.39 -144.66 11.03 -143.18 10.67 C-139.59 9.82 -136.44 9.8 -132.73 9.92 C-129.19 9.6 -126.14 8.14 -122.92 6.7 C-117.85 4.56 -112.85 4.39 -107.4 4.01 C-104.54 3.82 -104.54 3.82 -101.62 2.73 C-98.79 2.43 -95.96 2.22 -93.12 2.01 C-90.63 1.88 -90.63 1.88 -88.62 0.73 C-86.95 1.06 -85.29 1.39 -83.62 1.73 C-83.29 1.4 -82.96 1.07 -82.62 0.73 C-80.89 0.53 -79.15 0.38 -77.41 0.27 C-76.33 0.19 -75.25 0.11 -74.13 0.03 C-71.87 -0.13 -69.6 -0.28 -67.34 -0.43 C-61.38 -0.86 -55.67 -1.56 -49.83 -2.83 C-46.75 -3.44 -43.69 -3.62 -40.56 -3.77 C-36.54 -4.01 -32.78 -4.34 -28.87 -5.33 C-18.17 -7.98 -9.25 -5.72 0 0 Z M-277.62 56.73 C-277.62 57.06 -277.62 57.39 -277.62 57.73 C-275.97 57.73 -274.32 57.73 -272.62 57.73 C-272.62 57.4 -272.62 57.07 -272.62 56.73 C-274.27 56.73 -275.92 56.73 -277.62 56.73 Z M-176.62 64.73 C-176.62 65.06 -176.62 65.39 -176.62 65.73 C-173.32 65.73 -170.02 65.73 -166.62 65.73 C-166.62 65.4 -166.62 65.07 -166.62 64.73 C-169.92 64.73 -173.22 64.73 -176.62 64.73 Z M-228.62 72.73 C-228.62 73.06 -228.62 73.39 -228.62 73.73 C-225.98 73.73 -223.34 73.73 -220.62 73.73 C-220.62 73.4 -220.62 73.07 -220.62 72.73 C-223.26 72.73 -225.9 72.73 -228.62 72.73 Z M171.38 264.73 C170.57 266.78 170.57 266.78 170.38 268.73 C173.05 270.06 174.55 269.4 177.38 268.73 C177.38 266.75 177.38 264.77 177.38 262.73 C174.82 262.73 173.53 263.35 171.38 264.73 Z M158.38 437.73 C157.06 439.05 155.74 440.37 154.38 441.73 C156.85 442.23 156.85 442.23 159.38 442.73 C159.71 441.74 160.04 440.75 160.38 439.73 C159.72 439.07 159.06 438.41 158.38 437.73 Z M-924.62 506.73 C-923.62 509.73 -923.62 509.73 -923.62 509.73 Z M-3.62 563.73 C-5.28 564.12 -6.94 564.46 -8.62 564.73 C-8.62 565.06 -8.62 565.39 -8.62 565.73 C-4.33 565.73 -0.04 565.73 4.38 565.73 C4.71 564.74 5.04 563.75 5.38 562.73 C4.33 561.47 4.33 561.47 2 561.54 C-0.86 561.53 -0.86 561.53 -3.62 563.73 Z M12.38 577.04 C11.52 577.08 10.65 577.11 9.76 577.15 C4.68 577.41 0.17 577.97 -4.62 579.73 C-4.95 580.39 -5.28 581.05 -5.62 581.73 C-3.33 582.09 -1.04 582.44 1.25 582.79 C2.53 582.99 3.81 583.19 5.12 583.39 C8.26 584.01 8.26 584.01 10.38 582.73 C11.83 582.58 13.28 582.48 14.73 582.41 C15.58 582.37 16.43 582.33 17.31 582.29 C18.64 582.23 18.64 582.23 20 582.17 C20.9 582.12 21.8 582.08 22.72 582.04 C24.94 581.93 27.16 581.83 29.38 581.73 C29.38 580.41 29.38 579.09 29.38 577.73 C23.62 576.69 18.21 576.73 12.38 577.04 Z M-31.62 583.73 C-30.63 585.22 -30.63 585.22 -29.62 586.73 C-27.52 587.17 -27.52 587.17 -25.18 587.04 C-24.01 587.04 -24.01 587.04 -22.81 587.03 C-20.33 586.85 -20.33 586.85 -17.62 584.73 C-17.95 583.74 -18.28 582.75 -18.62 581.73 C-23.27 581.44 -27.17 582.52 -31.62 583.73 Z M-37.62 585.73 C-36.96 586.39 -36.3 587.05 -35.62 587.73 C-35.29 587.07 -34.96 586.41 -34.62 585.73 C-35.61 585.73 -36.6 585.73 -37.62 585.73 Z M-853.62 703.73 C-853.35 704.29 -853.08 704.84 -852.81 705.42 C-852.75 706.18 -852.68 706.94 -852.62 707.73 C-854.24 709.44 -855.91 711.1 -857.62 712.73 C-858.48 714.9 -858.48 714.9 -858.62 716.73 C-857.69 716.38 -856.76 716.03 -855.81 715.67 C-852.62 714.73 -852.62 714.73 -849.62 715.73 C-847.31 712.17 -845.86 708.79 -844.62 704.73 C-844.29 703.74 -843.96 702.75 -843.62 701.73 C-847.8 700.34 -849.76 701.91 -853.62 703.73 Z M160.38 722.73 C160.38 723.39 160.38 724.05 160.38 724.73 C157.08 724.73 153.78 724.73 150.38 724.73 C150.38 725.39 150.38 726.05 150.38 726.73 C153.11 726.87 155.83 726.96 158.57 727.04 C159.34 727.08 160.1 727.13 160.9 727.17 C165.26 727.26 166.87 727.13 170.43 724.34 C172.58 722.01 172.58 722.01 172.38 719.73 C167.63 719.3 164.6 720.75 160.38 722.73 Z M-514.62 930.73 C-510.62 931.73 -510.62 931.73 -510.62 931.73 Z " fill="#000000" transform="translate(975.62109375,41.26953125)"/>
<path d="M0 0 C0 2 0 4 0 6 C0.99 6.33 1.98 6.66 3 7 C0.55 12.76 0.55 12.76 -2.12 13.94 C-2.74 13.96 -3.36 13.98 -4 14 C-4.5 13.5 -4.5 13.5 -5 13 C-11.36 12.55 -16.1 13.72 -22 16 C-30.34 19.14 -30.34 19.14 -34 20 C-34.5 18.51 -34.5 18.51 -35 17 C-35.99 17 -36.98 17 -38 17 C-38.33 17.66 -38.66 18.32 -39 19 C-41.65 19.59 -44.29 19.74 -47 20 C-47.66 22.31 -48.32 24.62 -49 27 C-42.52 27.19 -42.52 27.19 -36.12 26.38 C-33.45 25.9 -32.26 26.58 -30 28 C-30 28.99 -30 29.98 -30 31 C-31.41 31.68 -32.83 32.34 -34.25 33 C-35.04 33.37 -35.83 33.74 -36.64 34.12 C-39 35 -39 35 -43 35 C-43 35.66 -43 36.32 -43 37 C-41.68 37.66 -40.36 38.32 -39 39 C-39.33 39.33 -39.66 39.66 -40 40 C-38.02 40 -36.04 40 -34 40 C-33.67 40.66 -33.34 41.32 -33 42 C-33.99 42.5 -33.99 42.5 -35 43 C-35 43.99 -35 44.98 -35 46 C-33.35 46.66 -31.7 47.32 -30 48 C-30 50.31 -30 50.31 -31 53 C-35.82 56.01 -40.47 56 -46 56 C-47.61 56.42 -49.22 56.88 -50.81 57.38 C-70.79 62.98 -70.79 62.98 -78.31 59.45 C-82.47 56.14 -86.51 52.67 -87.5 47.25 C-86.66 41.82 -82.76 38.76 -79 35 C-79.29 33.32 -79.62 31.66 -80 30 C-79 29 -79 29 -77.15 28.9 C-75.1 28.93 -73.05 28.97 -71 29 C-71 28.34 -71 27.68 -71 27 C-71.99 26.67 -72.98 26.34 -74 26 C-72.15 21.96 -70.32 20.24 -66.14 18.69 C-60.03 16.73 -54.26 14.97 -47.81 14.69 C-44.06 14.4 -42.27 13.72 -39.44 11.25 C-33.9 6.55 -26.86 5.34 -19.98 3.54 C-17.43 2.85 -14.94 2.02 -12.44 1.19 C-8.16 -0.12 -4.45 -0.25 0 0 Z M-59.25 26.88 C-59.83 27.25 -60.4 27.62 -61 28 C-59.51 28.99 -59.51 28.99 -58 30 C-55.33 29.2 -55.33 29.2 -53 28 C-55.94 26.06 -55.94 26.06 -59.25 26.88 Z " fill="#000000" transform="translate(397,976)"/>
<path d="M0 0 C0.93 0 1.86 0.01 2.82 0.01 C4.26 0.02 4.26 0.02 5.73 0.04 C6.71 0.04 7.69 0.04 8.7 0.05 C11.1 0.06 13.51 0.08 15.92 0.1 C15.92 1.42 15.92 2.74 15.92 4.1 C14.76 4.17 14.76 4.17 13.57 4.25 C6.48 4.73 6.48 4.73 -0.39 6.41 C-4.29 7.14 -4.85 7.06 -8.08 5.22 C-9.07 4.52 -10.06 3.82 -11.08 3.1 C-10.75 2.44 -10.42 1.78 -10.08 1.1 C-6.7 0.16 -3.5 -0.02 0 0 Z " fill="#000000" transform="translate(1003.08203125,111.90234375)"/>
<path d="M0 0 C1.98 1.65 3.96 3.3 6 5 C5.01 6.49 5.01 6.49 4 8 C1.37 8.22 -1.01 8.28 -3.62 8.19 C-4.33 8.17 -5.04 8.16 -5.77 8.15 C-7.51 8.11 -9.26 8.06 -11 8 C-11 6.68 -11 5.36 -11 4 C-9.68 4 -8.36 4 -7 4 C-5.33 3.7 -3.66 3.37 -2 3 C-2 2.34 -2 1.68 -2 1 C-1.34 0.67 -0.68 0.34 0 0 Z " fill="#000000" transform="translate(375,941)"/>
<path d="M0 0 C1.06 1.88 1.06 1.88 2 4 C1.67 4.66 1.34 5.32 1 6 C-2.3 5.67 -5.6 5.34 -9 5 C-9 3.68 -9 2.36 -9 1 C-6.04 -0.48 -3.26 -0.06 0 0 Z " fill="#000000" transform="translate(1036,128)"/>
<path d="M0 0 C-0.33 1.65 -0.66 3.3 -1 5 C-1.99 5.33 -2.98 5.66 -4 6 C-4.99 5.34 -5.98 4.68 -7 4 C-6.67 3.01 -6.34 2.02 -6 1 C-3.9 0.25 -2.23 0 0 0 Z " fill="#000000" transform="translate(413,982)"/>
<path d="M0 0 C1.65 0 3.3 0 5 0 C5 0.99 5 1.98 5 3 C3.35 2.67 1.7 2.34 0 2 C0 1.34 0 0.68 0 0 Z " fill="#000000" transform="translate(1098,721)"/>
<path d="M0 0 C2.62 0.38 2.62 0.38 5 1 C4.34 1.66 3.68 2.32 3 3 C0.38 2.62 0.38 2.62 -2 2 C-1.34 1.34 -0.68 0.68 0 0 Z " fill="#000000" transform="translate(149,205)"/>
<path d="M0 0 C0.99 0.33 1.98 0.66 3 1 C2.67 2.32 2.34 3.64 2 5 C1.34 5 0.68 5 0 5 C-0.56 3.06 -0.56 3.06 -1 1 C-0.67 0.67 -0.34 0.34 0 0 Z " fill="#000000" transform="translate(1162,310)"/>
<path d="M0 0 C0.66 0.33 1.32 0.66 2 1 C1.67 1.99 1.34 2.98 1 4 C0.34 3.67 -0.32 3.34 -1 3 C-0.67 2.01 -0.34 1.02 0 0 Z " fill="#000000" transform="translate(1020,131)"/>
<path d="M0 0 C0.33 0.66 0.66 1.32 1 2 C0.34 1.67 -0.32 1.34 -1 1 C-0.67 0.67 -0.34 0.34 0 0 Z " fill="#000000" transform="translate(1107,721)"/>
<path d="M0 0 C3 1 3 1 3 1 Z " fill="#000000" transform="translate(1037,143)"/>
<path d="" fill="#000000" transform="translate(0,0)"/>
<path d="" fill="#000000" transform="translate(0,0)"/>
</svg>
