<svg xmlns="http://www.w3.org/2000/svg" height="64" width="64" viewBox="16 0 256 326" preserveAspectRatio="xMidYMid" fill="#fff" xmlns:v="https://vecta.io/nano"><path d="M114 0h53.278v244.191c-27.29 5.162-47.381 7.193-69.117 7.193C33.873 251.316 0 222.245 0 166.412c0-53.795 35.93-88.708 91.608-88.708 8.64 0 15.222.679 23.176 2.717V0zm1.867 124.427c-6.24-2.038-11.382-2.717-17.965-2.717-26.948 0-42.513 16.437-42.513 45.244 0 28.046 14.879 43.532 42.17 43.532 5.897 0 10.697-.333 18.308-1.352v-84.707zm138.536-40.166v122.262c0 42.106-3.154 62.354-12.411 79.81-8.64 16.784-20.022 27.366-43.541 39.056l-49.438-23.298c23.519-10.929 34.902-20.588 42.17-35.327 7.611-15.072 10.011-32.528 10.011-78.445V84.261h53.209 0zM196.608 0h53.278v54.135h-53.278V0h0z"/></svg>