<svg xmlns="http://www.w3.org/2000/svg" width="2000" height="2000"><mask id="b" x="0" y="0" width="2000" height="2000"><path fill="url(#a)" d="M0 0h2000v2000H0z"/></mask><path fill="#187298" d="M0 0h2000v2000H0z"/><g style="transform-origin:center center" stroke="#a9bdff" stroke-width="3.2" mask="url(#b)"><path fill="none" d="M0 0h56v56H0zM56 0h56v56H56z"/><path fill="#a9bdff51" d="M112 0h56v56h-56z"/><path fill="none" d="M168 0h56v56h-56zM224 0h56v56h-56zM280 0h56v56h-56zM336 0h56v56h-56z"/><path fill="#a9bdffa1" d="M392 0h56v56h-56z"/><path fill="none" d="M448 0h56v56h-56zM504 0h56v56h-56z"/><path fill="#a9bdff52" d="M560 0h56v56h-56z"/><path fill="none" d="M616 0h56v56h-56zM672 0h56v56h-56zM728 0h56v56h-56zM784 0h56v56h-56zM840 0h56v56h-56z"/><path fill="#a9bdffb9" d="M896 0h56v56h-56z"/><path fill="#a9bdff4f" d="M952 0h56v56h-56z"/><path fill="none" d="M1008 0h56v56h-56zM1064 0h56v56h-56z"/><path fill="#a9bdffb5" d="M1120 0h56v56h-56z"/><path fill="#a9bdff43" d="M1176 0h56v56h-56z"/><path fill="none" d="M1232 0h56v56h-56zM1288 0h56v56h-56zM1344 0h56v56h-56z"/><path fill="#a9bdffd1" d="M1400 0h56v56h-56z"/><path fill="none" d="M1456 0h56v56h-56z"/><path fill="#a9bdff58" d="M1512 0h56v56h-56z"/><path fill="none" d="M1568 0h56v56h-56zM1624 0h56v56h-56zM1680 0h56v56h-56zM1736 0h56v56h-56z"/><path fill="#a9bdffdf" d="M1792 0h56v56h-56z"/><path fill="#a9bdff14" d="M1848 0h56v56h-56z"/><path fill="none" d="M1904 0h56v56h-56zM1960 0h56v56h-56zM0 56h56v56H0zM56 56h56v56H56zM112 56h56v56h-56zM168 56h56v56h-56zM224 56h56v56h-56zM280 56h56v56h-56zM336 56h56v56h-56zM392 56h56v56h-56zM448 56h56v56h-56z"/><path fill="#a9bdfffa" d="M504 56h56v56h-56z"/><path fill="none" d="M560 56h56v56h-56z"/><path fill="#a9bdff45" d="M616 56h56v56h-56z"/><path fill="none" d="M672 56h56v56h-56zM728 56h56v56h-56zM784 56h56v56h-56zM840 56h56v56h-56zM896 56h56v56h-56z"/><path fill="#a9bdff41" d="M952 56h56v56h-56z"/><path fill="none" d="M1008 56h56v56h-56z"/><path fill="#a9bdffbd" d="M1064 56h56v56h-56z"/><path fill="#a9bdffc9" d="M1120 56h56v56h-56z"/><path fill="#a9bdffbb" d="M1176 56h56v56h-56z"/><path fill="none" d="M1232 56h56v56h-56z"/><path fill="#a9bdff3e" d="M1288 56h56v56h-56z"/><path fill="none" d="M1344 56h56v56h-56zM1400 56h56v56h-56z"/><path fill="#a9bdffc2" d="M1456 56h56v56h-56z"/><path fill="none" d="M1512 56h56v56h-56zM1568 56h56v56h-56z"/><path fill="#a9bdff7b" d="M1624 56h56v56h-56z"/><path fill="none" d="M1680 56h56v56h-56zM1736 56h56v56h-56zM1792 56h56v56h-56zM1848 56h56v56h-56zM1904 56h56v56h-56zM1960 56h56v56h-56zM0 112h56v56H0zM56 112h56v56H56zM112 112h56v56h-56zM168 112h56v56h-56zM224 112h56v56h-56zM280 112h56v56h-56zM336 112h56v56h-56z"/><path fill="#a9bdffda" d="M392 112h56v56h-56z"/><path fill="none" d="M448 112h56v56h-56z"/><path fill="#a9bdff99" d="M504 112h56v56h-56z"/><path fill="none" d="M560 112h56v56h-56z"/><path fill="#a9bdff14" d="M616 112h56v56h-56z"/><path fill="#a9bdffd0" d="M672 112h56v56h-56z"/><path fill="none" d="M728 112h56v56h-56zM784 112h56v56h-56zM840 112h56v56h-56zM896 112h56v56h-56z"/><path fill="#a9bdfffc" d="M952 112h56v56h-56z"/><path fill="none" d="M1008 112h56v56h-56zM1064 112h56v56h-56zM1120 112h56v56h-56zM1176 112h56v56h-56zM1232 112h56v56h-56zM1288 112h56v56h-56zM1344 112h56v56h-56zM1400 112h56v56h-56zM1456 112h56v56h-56zM1512 112h56v56h-56z"/><path fill="#a9bdfffb" d="M1568 112h56v56h-56z"/><path fill="#a9bdff0d" d="M1624 112h56v56h-56z"/><path fill="none" d="M1680 112h56v56h-56z"/><path fill="#a9bdff59" d="M1736 112h56v56h-56z"/><path fill="none" d="M1792 112h56v56h-56zM1848 112h56v56h-56zM1904 112h56v56h-56zM1960 112h56v56h-56zM0 168h56v56H0zM56 168h56v56H56zM112 168h56v56h-56z"/><path fill="#a9bdffcc" d="M168 168h56v56h-56z"/><path fill="none" d="M224 168h56v56h-56zM280 168h56v56h-56z"/><path fill="#a9bdff4e" d="M336 168h56v56h-56z"/><path fill="none" d="M392 168h56v56h-56zM448 168h56v56h-56z"/><path fill="#a9bdff9e" d="M504 168h56v56h-56z"/><path fill="#a9bdff1f" d="M560 168h56v56h-56z"/><path fill="none" d="M616 168h56v56h-56zM672 168h56v56h-56zM728 168h56v56h-56z"/><path fill="#a9bdff3f" d="M784 168h56v56h-56z"/><path fill="none" d="M840 168h56v56h-56zM896 168h56v56h-56zM952 168h56v56h-56zM1008 168h56v56h-56zM1064 168h56v56h-56zM1120 168h56v56h-56z"/><path fill="#a9bdffa1" d="M1176 168h56v56h-56z"/><path fill="#a9bdff0f" d="M1232 168h56v56h-56z"/><path fill="none" d="M1288 168h56v56h-56zM1344 168h56v56h-56z"/><path fill="#a9bdff25" d="M1400 168h56v56h-56z"/><path fill="#a9bdff26" d="M1456 168h56v56h-56z"/><path fill="none" d="M1512 168h56v56h-56zM1568 168h56v56h-56zM1624 168h56v56h-56z"/><path fill="#a9bdff48" d="M1680 168h56v56h-56z"/><path fill="none" d="M1736 168h56v56h-56zM1792 168h56v56h-56zM1848 168h56v56h-56zM1904 168h56v56h-56z"/><path fill="#a9bdffff" d="M1960 168h56v56h-56z"/><path fill="none" d="M0 224h56v56H0zM56 224h56v56H56zM112 224h56v56h-56zM168 224h56v56h-56zM224 224h56v56h-56z"/><path fill="#a9bdffaf" d="M280 224h56v56h-56z"/><path fill="none" d="M336 224h56v56h-56zM392 224h56v56h-56z"/><path fill="#a9bdffd5" d="M448 224h56v56h-56z"/><path fill="#a9bdff3e" d="M504 224h56v56h-56z"/><path fill="#a9bdff90" d="M560 224h56v56h-56z"/><path fill="#a9bdffd9" d="M616 224h56v56h-56z"/><path fill="none" d="M672 224h56v56h-56zM728 224h56v56h-56zM784 224h56v56h-56zM840 224h56v56h-56zM896 224h56v56h-56zM952 224h56v56h-56zM1008 224h56v56h-56zM1064 224h56v56h-56zM1120 224h56v56h-56zM1176 224h56v56h-56zM1232 224h56v56h-56z"/><path fill="#a9bdfffd" d="M1288 224h56v56h-56z"/><path fill="none" d="M1344 224h56v56h-56zM1400 224h56v56h-56z"/><path fill="#a9bdff58" d="M1456 224h56v56h-56z"/><path fill="none" d="M1512 224h56v56h-56zM1568 224h56v56h-56zM1624 224h56v56h-56zM1680 224h56v56h-56zM1736 224h56v56h-56zM1792 224h56v56h-56z"/><path fill="#a9bdff91" d="M1848 224h56v56h-56z"/><path fill="none" d="M1904 224h56v56h-56z"/><path fill="#a9bdfff6" d="M1960 224h56v56h-56z"/><path fill="none" d="M0 280h56v56H0zM56 280h56v56H56zM112 280h56v56h-56zM168 280h56v56h-56zM224 280h56v56h-56zM280 280h56v56h-56z"/><path fill="#a9bdfff9" d="M336 280h56v56h-56z"/><path fill="none" d="M392 280h56v56h-56zM448 280h56v56h-56zM504 280h56v56h-56z"/><path fill="#a9bdfff6" d="M560 280h56v56h-56z"/><path fill="none" d="M616 280h56v56h-56z"/><path fill="#a9bdff68" d="M672 280h56v56h-56z"/><path fill="none" d="M728 280h56v56h-56z"/><path fill="#a9bdff16" d="M784 280h56v56h-56z"/><path fill="none" d="M840 280h56v56h-56zM896 280h56v56h-56zM952 280h56v56h-56z"/><path fill="#a9bdffb7" d="M1008 280h56v56h-56z"/><path fill="#a9bdffab" d="M1064 280h56v56h-56z"/><path fill="none" d="M1120 280h56v56h-56zM1176 280h56v56h-56zM1232 280h56v56h-56zM1288 280h56v56h-56z"/><path fill="#a9bdff44" d="M1344 280h56v56h-56z"/><path fill="#a9bdff78" d="M1400 280h56v56h-56z"/><path fill="none" d="M1456 280h56v56h-56zM1512 280h56v56h-56z"/><path fill="#a9bdff4f" d="M1568 280h56v56h-56z"/><path fill="none" d="M1624 280h56v56h-56z"/><path fill="#a9bdff66" d="M1680 280h56v56h-56z"/><path fill="none" d="M1736 280h56v56h-56zM1792 280h56v56h-56zM1848 280h56v56h-56zM1904 280h56v56h-56z"/><path fill="#a9bdffdb" d="M1960 280h56v56h-56z"/><path fill="#a9bdff7f" d="M0 336h56v56H0z"/><path fill="#a9bdff8d" d="M56 336h56v56H56z"/><path fill="none" d="M112 336h56v56h-56zM168 336h56v56h-56zM224 336h56v56h-56zM280 336h56v56h-56zM336 336h56v56h-56zM392 336h56v56h-56zM448 336h56v56h-56zM504 336h56v56h-56zM560 336h56v56h-56z"/><path fill="#a9bdffc0" d="M616 336h56v56h-56z"/><path fill="none" d="M672 336h56v56h-56zM728 336h56v56h-56zM784 336h56v56h-56z"/><path fill="#a9bdff33" d="M840 336h56v56h-56z"/><path fill="#a9bdffc9" d="M896 336h56v56h-56z"/><path fill="none" d="M952 336h56v56h-56zM1008 336h56v56h-56z"/><path fill="#a9bdff3f" d="M1064 336h56v56h-56z"/><path fill="none" d="M1120 336h56v56h-56zM1176 336h56v56h-56z"/><path fill="#a9bdffe2" d="M1232 336h56v56h-56z"/><path fill="#a9bdff7c" d="M1288 336h56v56h-56z"/><path fill="none" d="M1344 336h56v56h-56z"/><path fill="#a9bdfffd" d="M1400 336h56v56h-56z"/><path fill="#a9bdff79" d="M1456 336h56v56h-56z"/><path fill="none" d="M1512 336h56v56h-56z"/><path fill="#a9bdffa8" d="M1568 336h56v56h-56z"/><path fill="none" d="M1624 336h56v56h-56z"/><path fill="#a9bdff20" d="M1680 336h56v56h-56z"/><path fill="none" d="M1736 336h56v56h-56zM1792 336h56v56h-56z"/><path fill="#a9bdff50" d="M1848 336h56v56h-56z"/><path fill="none" d="M1904 336h56v56h-56zM1960 336h56v56h-56z"/><path fill="#a9bdffb4" d="M0 392h56v56H0z"/><path fill="none" d="M56 392h56v56H56zM112 392h56v56h-56z"/><path fill="#a9bdfff7" d="M168 392h56v56h-56z"/><path fill="none" d="M224 392h56v56h-56z"/><path fill="#a9bdff33" d="M280 392h56v56h-56z"/><path fill="#a9bdff8b" d="M336 392h56v56h-56z"/><path fill="none" d="M392 392h56v56h-56z"/><path fill="#a9bdff4d" d="M448 392h56v56h-56z"/><path fill="none" d="M504 392h56v56h-56zM560 392h56v56h-56zM616 392h56v56h-56zM672 392h56v56h-56zM728 392h56v56h-56z"/><path fill="#a9bdffe7" d="M784 392h56v56h-56z"/><path fill="none" d="M840 392h56v56h-56zM896 392h56v56h-56z"/><path fill="#a9bdff5c" d="M952 392h56v56h-56z"/><path fill="none" d="M1008 392h56v56h-56z"/><path fill="#a9bdff4f" d="M1064 392h56v56h-56z"/><path fill="none" d="M1120 392h56v56h-56zM1176 392h56v56h-56zM1232 392h56v56h-56zM1288 392h56v56h-56zM1344 392h56v56h-56z"/><path fill="#a9bdff90" d="M1400 392h56v56h-56z"/><path fill="#a9bdffc0" d="M1456 392h56v56h-56z"/><path fill="none" d="M1512 392h56v56h-56z"/><path fill="#a9bdff6b" d="M1568 392h56v56h-56z"/><path fill="none" d="M1624 392h56v56h-56z"/><path fill="#a9bdff9e" d="M1680 392h56v56h-56z"/><path fill="none" d="M1736 392h56v56h-56z"/><path fill="#a9bdffed" d="M1792 392h56v56h-56z"/><path fill="#a9bdffe7" d="M1848 392h56v56h-56z"/><path fill="none" d="M1904 392h56v56h-56zM1960 392h56v56h-56z"/><path fill="#a9bdff83" d="M0 448h56v56H0z"/><path fill="none" d="M56 448h56v56H56z"/><path fill="#a9bdffe7" d="M112 448h56v56h-56z"/><path fill="#a9bdffc9" d="M168 448h56v56h-56z"/><path fill="none" d="M224 448h56v56h-56zM280 448h56v56h-56zM336 448h56v56h-56zM392 448h56v56h-56zM448 448h56v56h-56zM504 448h56v56h-56zM560 448h56v56h-56zM616 448h56v56h-56zM672 448h56v56h-56zM728 448h56v56h-56zM784 448h56v56h-56zM840 448h56v56h-56zM896 448h56v56h-56zM952 448h56v56h-56zM1008 448h56v56h-56zM1064 448h56v56h-56zM1120 448h56v56h-56zM1176 448h56v56h-56z"/><path fill="#a9bdffe7" d="M1232 448h56v56h-56z"/><path fill="none" d="M1288 448h56v56h-56zM1344 448h56v56h-56z"/><path fill="#a9bdff37" d="M1400 448h56v56h-56z"/><path fill="none" d="M1456 448h56v56h-56z"/><path fill="#a9bdff31" d="M1512 448h56v56h-56z"/><path fill="none" d="M1568 448h56v56h-56zM1624 448h56v56h-56z"/><path fill="#a9bdffef" d="M1680 448h56v56h-56z"/><path fill="none" d="M1736 448h56v56h-56z"/><path fill="#a9bdff67" d="M1792 448h56v56h-56z"/><path fill="none" d="M1848 448h56v56h-56zM1904 448h56v56h-56zM1960 448h56v56h-56z"/><path fill="#a9bdfff4" d="M0 504h56v56H0z"/><path fill="none" d="M56 504h56v56H56zM112 504h56v56h-56zM168 504h56v56h-56zM224 504h56v56h-56zM280 504h56v56h-56z"/><path fill="#a9bdff3e" d="M336 504h56v56h-56z"/><path fill="none" d="M392 504h56v56h-56zM448 504h56v56h-56z"/><path fill="#a9bdffaf" d="M504 504h56v56h-56z"/><path fill="none" d="M560 504h56v56h-56zM616 504h56v56h-56zM672 504h56v56h-56zM728 504h56v56h-56zM784 504h56v56h-56z"/><path fill="#a9bdff21" d="M840 504h56v56h-56z"/><path fill="none" d="M896 504h56v56h-56zM952 504h56v56h-56zM1008 504h56v56h-56zM1064 504h56v56h-56zM1120 504h56v56h-56zM1176 504h56v56h-56zM1232 504h56v56h-56zM1288 504h56v56h-56zM1344 504h56v56h-56z"/><path fill="#a9bdff56" d="M1400 504h56v56h-56z"/><path fill="#a9bdff72" d="M1456 504h56v56h-56z"/><path fill="none" d="M1512 504h56v56h-56z"/><path fill="#a9bdff96" d="M1568 504h56v56h-56z"/><path fill="#a9bdff03" d="M1624 504h56v56h-56z"/><path fill="none" d="M1680 504h56v56h-56z"/><path fill="#a9bdffae" d="M1736 504h56v56h-56z"/><path fill="#a9bdff82" d="M1792 504h56v56h-56z"/><path fill="none" d="M1848 504h56v56h-56zM1904 504h56v56h-56z"/><path fill="#a9bdff21" d="M1960 504h56v56h-56z"/><path fill="none" d="M0 560h56v56H0zM56 560h56v56H56zM112 560h56v56h-56z"/><path fill="#a9bdff73" d="M168 560h56v56h-56z"/><path fill="#a9bdff5d" d="M224 560h56v56h-56z"/><path fill="none" d="M280 560h56v56h-56zM336 560h56v56h-56zM392 560h56v56h-56zM448 560h56v56h-56zM504 560h56v56h-56zM560 560h56v56h-56zM616 560h56v56h-56zM672 560h56v56h-56zM728 560h56v56h-56zM784 560h56v56h-56zM840 560h56v56h-56zM896 560h56v56h-56zM952 560h56v56h-56z"/><path fill="#a9bdffc9" d="M1008 560h56v56h-56z"/><path fill="#a9bdff7c" d="M1064 560h56v56h-56z"/><path fill="none" d="M1120 560h56v56h-56zM1176 560h56v56h-56zM1232 560h56v56h-56zM1288 560h56v56h-56zM1344 560h56v56h-56zM1400 560h56v56h-56zM1456 560h56v56h-56zM1512 560h56v56h-56zM1568 560h56v56h-56zM1624 560h56v56h-56z"/><path fill="#a9bdfff4" d="M1680 560h56v56h-56z"/><path fill="#a9bdff3b" d="M1736 560h56v56h-56z"/><path fill="none" d="M1792 560h56v56h-56zM1848 560h56v56h-56zM1904 560h56v56h-56zM1960 560h56v56h-56zM0 616h56v56H0zM56 616h56v56H56zM112 616h56v56h-56z"/><path fill="#a9bdffe9" d="M168 616h56v56h-56z"/><path fill="none" d="M224 616h56v56h-56z"/><path fill="#a9bdffc7" d="M280 616h56v56h-56z"/><path fill="none" d="M336 616h56v56h-56zM392 616h56v56h-56zM448 616h56v56h-56zM504 616h56v56h-56z"/><path fill="#a9bdffce" d="M560 616h56v56h-56z"/><path fill="#a9bdff20" d="M616 616h56v56h-56z"/><path fill="#a9bdff53" d="M672 616h56v56h-56z"/><path fill="none" d="M728 616h56v56h-56zM784 616h56v56h-56z"/><path fill="#a9bdffff" d="M840 616h56v56h-56z"/><path fill="none" d="M896 616h56v56h-56zM952 616h56v56h-56zM1008 616h56v56h-56zM1064 616h56v56h-56zM1120 616h56v56h-56zM1176 616h56v56h-56zM1232 616h56v56h-56zM1288 616h56v56h-56z"/><path fill="#a9bdffb7" d="M1344 616h56v56h-56z"/><path fill="none" d="M1400 616h56v56h-56zM1456 616h56v56h-56z"/><path fill="#a9bdff13" d="M1512 616h56v56h-56z"/><path fill="none" d="M1568 616h56v56h-56zM1624 616h56v56h-56zM1680 616h56v56h-56z"/><path fill="#a9bdffdb" d="M1736 616h56v56h-56z"/><path fill="#a9bdffed" d="M1792 616h56v56h-56z"/><path fill="none" d="M1848 616h56v56h-56zM1904 616h56v56h-56zM1960 616h56v56h-56zM0 672h56v56H0z"/><path fill="#a9bdfff1" d="M56 672h56v56H56z"/><path fill="none" d="M112 672h56v56h-56zM168 672h56v56h-56zM224 672h56v56h-56z"/><path fill="#a9bdff9d" d="M280 672h56v56h-56z"/><path fill="#a9bdffff" d="M336 672h56v56h-56z"/><path fill="#a9bdff91" d="M392 672h56v56h-56z"/><path fill="none" d="M448 672h56v56h-56zM504 672h56v56h-56zM560 672h56v56h-56z"/><path fill="#a9bdff9a" d="M616 672h56v56h-56z"/><path fill="#a9bdff64" d="M672 672h56v56h-56z"/><path fill="none" d="M728 672h56v56h-56z"/><path fill="#a9bdff82" d="M784 672h56v56h-56z"/><path fill="#a9bdffbe" d="M840 672h56v56h-56z"/><path fill="none" d="M896 672h56v56h-56z"/><path fill="#a9bdff06" d="M952 672h56v56h-56z"/><path fill="none" d="M1008 672h56v56h-56zM1064 672h56v56h-56zM1120 672h56v56h-56zM1176 672h56v56h-56z"/><path fill="#a9bdff6e" d="M1232 672h56v56h-56z"/><path fill="none" d="M1288 672h56v56h-56zM1344 672h56v56h-56z"/><path fill="#a9bdffc5" d="M1400 672h56v56h-56z"/><path fill="#a9bdff5f" d="M1456 672h56v56h-56z"/><path fill="none" d="M1512 672h56v56h-56z"/><path fill="#a9bdffad" d="M1568 672h56v56h-56z"/><path fill="none" d="M1624 672h56v56h-56z"/><path fill="#a9bdffb3" d="M1680 672h56v56h-56z"/><path fill="none" d="M1736 672h56v56h-56zM1792 672h56v56h-56zM1848 672h56v56h-56z"/><path fill="#a9bdffbe" d="M1904 672h56v56h-56z"/><path fill="#a9bdffb6" d="M1960 672h56v56h-56z"/><path fill="none" d="M0 728h56v56H0z"/><path fill="#a9bdff91" d="M56 728h56v56H56z"/><path fill="#a9bdfffe" d="M112 728h56v56h-56z"/><path fill="none" d="M168 728h56v56h-56zM224 728h56v56h-56zM280 728h56v56h-56zM336 728h56v56h-56z"/><path fill="#a9bdff9c" d="M392 728h56v56h-56z"/><path fill="none" d="M448 728h56v56h-56zM504 728h56v56h-56z"/><path fill="#a9bdff5e" d="M560 728h56v56h-56z"/><path fill="none" d="M616 728h56v56h-56zM672 728h56v56h-56zM728 728h56v56h-56zM784 728h56v56h-56z"/><path fill="#a9bdffcd" d="M840 728h56v56h-56z"/><path fill="none" d="M896 728h56v56h-56zM952 728h56v56h-56zM1008 728h56v56h-56z"/><path fill="#a9bdff09" d="M1064 728h56v56h-56z"/><path fill="#a9bdff1b" d="M1120 728h56v56h-56z"/><path fill="#a9bdff9e" d="M1176 728h56v56h-56z"/><path fill="#a9bdffe6" d="M1232 728h56v56h-56z"/><path fill="none" d="M1288 728h56v56h-56z"/><path fill="#a9bdff55" d="M1344 728h56v56h-56z"/><path fill="none" d="M1400 728h56v56h-56z"/><path fill="#a9bdffd1" d="M1456 728h56v56h-56z"/><path fill="none" d="M1512 728h56v56h-56z"/><path fill="#a9bdff63" d="M1568 728h56v56h-56z"/><path fill="none" d="M1624 728h56v56h-56zM1680 728h56v56h-56z"/><path fill="#a9bdff3e" d="M1736 728h56v56h-56z"/><path fill="none" d="M1792 728h56v56h-56zM1848 728h56v56h-56zM1904 728h56v56h-56zM1960 728h56v56h-56zM0 784h56v56H0z"/><path fill="#a9bdff6f" d="M56 784h56v56H56z"/><path fill="#a9bdff16" d="M112 784h56v56h-56z"/><path fill="none" d="M168 784h56v56h-56zM224 784h56v56h-56zM280 784h56v56h-56z"/><path fill="#a9bdff96" d="M336 784h56v56h-56z"/><path fill="none" d="M392 784h56v56h-56zM448 784h56v56h-56z"/><path fill="#a9bdff4a" d="M504 784h56v56h-56z"/><path fill="none" d="M560 784h56v56h-56z"/><path fill="#a9bdffcb" d="M616 784h56v56h-56z"/><path fill="#a9bdff57" d="M672 784h56v56h-56z"/><path fill="none" d="M728 784h56v56h-56zM784 784h56v56h-56zM840 784h56v56h-56zM896 784h56v56h-56zM952 784h56v56h-56z"/><path fill="#a9bdff83" d="M1008 784h56v56h-56z"/><path fill="#a9bdff5d" d="M1064 784h56v56h-56z"/><path fill="#a9bdff2d" d="M1120 784h56v56h-56z"/><path fill="none" d="M1176 784h56v56h-56zM1232 784h56v56h-56z"/><path fill="#a9bdff2b" d="M1288 784h56v56h-56z"/><path fill="none" d="M1344 784h56v56h-56zM1400 784h56v56h-56zM1456 784h56v56h-56zM1512 784h56v56h-56zM1568 784h56v56h-56zM1624 784h56v56h-56z"/><path fill="#a9bdffea" d="M1680 784h56v56h-56z"/><path fill="none" d="M1736 784h56v56h-56zM1792 784h56v56h-56z"/><path fill="#a9bdfff1" d="M1848 784h56v56h-56z"/><path fill="none" d="M1904 784h56v56h-56zM1960 784h56v56h-56zM0 840h56v56H0zM56 840h56v56H56z"/><path fill="#a9bdffb5" d="M112 840h56v56h-56z"/><path fill="#a9bdff44" d="M168 840h56v56h-56z"/><path fill="#a9bdffef" d="M224 840h56v56h-56z"/><path fill="none" d="M280 840h56v56h-56zM336 840h56v56h-56zM392 840h56v56h-56zM448 840h56v56h-56z"/><path fill="#a9bdffdb" d="M504 840h56v56h-56z"/><path fill="none" d="M560 840h56v56h-56zM616 840h56v56h-56z"/><path fill="#a9bdffd2" d="M672 840h56v56h-56z"/><path fill="none" d="M728 840h56v56h-56zM784 840h56v56h-56zM840 840h56v56h-56z"/><path fill="#a9bdff8b" d="M896 840h56v56h-56z"/><path fill="none" d="M952 840h56v56h-56zM1008 840h56v56h-56z"/><path fill="#a9bdff42" d="M1064 840h56v56h-56z"/><path fill="none" d="M1120 840h56v56h-56zM1176 840h56v56h-56zM1232 840h56v56h-56zM1288 840h56v56h-56zM1344 840h56v56h-56zM1400 840h56v56h-56z"/><path fill="#a9bdff21" d="M1456 840h56v56h-56z"/><path fill="none" d="M1512 840h56v56h-56zM1568 840h56v56h-56zM1624 840h56v56h-56zM1680 840h56v56h-56zM1736 840h56v56h-56z"/><path fill="#a9bdffd5" d="M1792 840h56v56h-56z"/><path fill="#a9bdff43" d="M1848 840h56v56h-56z"/><path fill="none" d="M1904 840h56v56h-56z"/><path fill="#a9bdff99" d="M1960 840h56v56h-56z"/><path fill="none" d="M0 896h56v56H0z"/><path fill="#a9bdff8e" d="M56 896h56v56H56z"/><path fill="none" d="M112 896h56v56h-56zM168 896h56v56h-56zM224 896h56v56h-56zM280 896h56v56h-56z"/><path fill="#a9bdff88" d="M336 896h56v56h-56z"/><path fill="#a9bdff63" d="M392 896h56v56h-56z"/><path fill="#a9bdff72" d="M448 896h56v56h-56z"/><path fill="none" d="M504 896h56v56h-56zM560 896h56v56h-56z"/><path fill="#a9bdffba" d="M616 896h56v56h-56z"/><path fill="none" d="M672 896h56v56h-56zM728 896h56v56h-56zM784 896h56v56h-56zM840 896h56v56h-56z"/><path fill="#a9bdff4e" d="M896 896h56v56h-56z"/><path fill="#a9bdffd6" d="M952 896h56v56h-56z"/><path fill="none" d="M1008 896h56v56h-56zM1064 896h56v56h-56zM1120 896h56v56h-56zM1176 896h56v56h-56z"/><path fill="#a9bdffde" d="M1232 896h56v56h-56z"/><path fill="none" d="M1288 896h56v56h-56z"/><path fill="#a9bdff4a" d="M1344 896h56v56h-56z"/><path fill="none" d="M1400 896h56v56h-56z"/><path fill="#a9bdffe7" d="M1456 896h56v56h-56z"/><path fill="#a9bdffb3" d="M1512 896h56v56h-56z"/><path fill="#a9bdffe9" d="M1568 896h56v56h-56z"/><path fill="#a9bdffc8" d="M1624 896h56v56h-56z"/><path fill="none" d="M1680 896h56v56h-56z"/><path fill="#a9bdff56" d="M1736 896h56v56h-56z"/><path fill="none" d="M1792 896h56v56h-56z"/><path fill="#a9bdff39" d="M1848 896h56v56h-56z"/><path fill="#a9bdffa4" d="M1904 896h56v56h-56z"/><path fill="#a9bdffc2" d="M1960 896h56v56h-56z"/><path fill="none" d="M0 952h56v56H0zM56 952h56v56H56z"/><path fill="#a9bdff9c" d="M112 952h56v56h-56z"/><path fill="none" d="M168 952h56v56h-56z"/><path fill="#a9bdff2b" d="M224 952h56v56h-56z"/><path fill="none" d="M280 952h56v56h-56zM336 952h56v56h-56zM392 952h56v56h-56z"/><path fill="#a9bdffa3" d="M448 952h56v56h-56z"/><path fill="#a9bdff26" d="M504 952h56v56h-56z"/><path fill="none" d="M560 952h56v56h-56zM616 952h56v56h-56zM672 952h56v56h-56z"/><path fill="#a9bdffa2" d="M728 952h56v56h-56z"/><path fill="none" d="M784 952h56v56h-56zM840 952h56v56h-56zM896 952h56v56h-56z"/><path fill="#a9bdff5b" d="M952 952h56v56h-56z"/><path fill="none" d="M1008 952h56v56h-56zM1064 952h56v56h-56z"/><path fill="#a9bdff2b" d="M1120 952h56v56h-56z"/><path fill="none" d="M1176 952h56v56h-56z"/><path fill="#a9bdffcb" d="M1232 952h56v56h-56z"/><path fill="none" d="M1288 952h56v56h-56z"/><path fill="#a9bdff95" d="M1344 952h56v56h-56z"/><path fill="none" d="M1400 952h56v56h-56z"/><path fill="#a9bdffae" d="M1456 952h56v56h-56z"/><path fill="none" d="M1512 952h56v56h-56zM1568 952h56v56h-56z"/><path fill="#a9bdff07" d="M1624 952h56v56h-56z"/><path fill="none" d="M1680 952h56v56h-56zM1736 952h56v56h-56zM1792 952h56v56h-56zM1848 952h56v56h-56zM1904 952h56v56h-56zM1960 952h56v56h-56zM0 1008h56v56H0zM56 1008h56v56H56zM112 1008h56v56h-56zM168 1008h56v56h-56zM224 1008h56v56h-56zM280 1008h56v56h-56zM336 1008h56v56h-56zM392 1008h56v56h-56zM448 1008h56v56h-56zM504 1008h56v56h-56zM560 1008h56v56h-56z"/><path fill="#a9bdffca" d="M616 1008h56v56h-56z"/><path fill="none" d="M672 1008h56v56h-56zM728 1008h56v56h-56zM784 1008h56v56h-56zM840 1008h56v56h-56zM896 1008h56v56h-56z"/><path fill="#a9bdffcc" d="M952 1008h56v56h-56z"/><path fill="none" d="M1008 1008h56v56h-56z"/><path fill="#a9bdffd5" d="M1064 1008h56v56h-56z"/><path fill="#a9bdffd1" d="M1120 1008h56v56h-56z"/><path fill="none" d="M1176 1008h56v56h-56zM1232 1008h56v56h-56zM1288 1008h56v56h-56z"/><path fill="#a9bdffc8" d="M1344 1008h56v56h-56z"/><path fill="none" d="M1400 1008h56v56h-56z"/><path fill="#a9bdff2b" d="M1456 1008h56v56h-56z"/><path fill="none" d="M1512 1008h56v56h-56z"/><path fill="#a9bdffef" d="M1568 1008h56v56h-56z"/><path fill="none" d="M1624 1008h56v56h-56zM1680 1008h56v56h-56zM1736 1008h56v56h-56zM1792 1008h56v56h-56zM1848 1008h56v56h-56zM1904 1008h56v56h-56zM1960 1008h56v56h-56z"/><path fill="#a9bdfff2" d="M0 1064h56v56H0z"/><path fill="none" d="M56 1064h56v56H56zM112 1064h56v56h-56z"/><path fill="#a9bdff12" d="M168 1064h56v56h-56z"/><path fill="#a9bdffbe" d="M224 1064h56v56h-56z"/><path fill="none" d="M280 1064h56v56h-56zM336 1064h56v56h-56z"/><path fill="#a9bdffb5" d="M392 1064h56v56h-56z"/><path fill="none" d="M448 1064h56v56h-56z"/><path fill="#a9bdfff2" d="M504 1064h56v56h-56z"/><path fill="none" d="M560 1064h56v56h-56z"/><path fill="#a9bdff97" d="M616 1064h56v56h-56z"/><path fill="none" d="M672 1064h56v56h-56zM728 1064h56v56h-56zM784 1064h56v56h-56zM840 1064h56v56h-56z"/><path fill="#a9bdff4e" d="M896 1064h56v56h-56z"/><path fill="none" d="M952 1064h56v56h-56zM1008 1064h56v56h-56zM1064 1064h56v56h-56zM1120 1064h56v56h-56z"/><path fill="#a9bdff87" d="M1176 1064h56v56h-56z"/><path fill="none" d="M1232 1064h56v56h-56zM1288 1064h56v56h-56zM1344 1064h56v56h-56zM1400 1064h56v56h-56z"/><path fill="#a9bdff2e" d="M1456 1064h56v56h-56z"/><path fill="none" d="M1512 1064h56v56h-56zM1568 1064h56v56h-56z"/><path fill="#a9bdffda" d="M1624 1064h56v56h-56z"/><path fill="none" d="M1680 1064h56v56h-56z"/><path fill="#a9bdff6e" d="M1736 1064h56v56h-56z"/><path fill="none" d="M1792 1064h56v56h-56z"/><path fill="#a9bdff56" d="M1848 1064h56v56h-56z"/><path fill="none" d="M1904 1064h56v56h-56z"/><path fill="#a9bdff25" d="M1960 1064h56v56h-56z"/><path fill="none" d="M0 1120h56v56H0zM56 1120h56v56H56zM112 1120h56v56h-56zM168 1120h56v56h-56z"/><path fill="#a9bdff97" d="M224 1120h56v56h-56z"/><path fill="none" d="M280 1120h56v56h-56z"/><path fill="#a9bdff7a" d="M336 1120h56v56h-56z"/><path fill="none" d="M392 1120h56v56h-56zM448 1120h56v56h-56z"/><path fill="#a9bdff32" d="M504 1120h56v56h-56z"/><path fill="none" d="M560 1120h56v56h-56zM616 1120h56v56h-56z"/><path fill="#a9bdff9c" d="M672 1120h56v56h-56z"/><path fill="none" d="M728 1120h56v56h-56z"/><path fill="#a9bdff20" d="M784 1120h56v56h-56z"/><path fill="#a9bdff4a" d="M840 1120h56v56h-56z"/><path fill="none" d="M896 1120h56v56h-56z"/><path fill="#a9bdffe8" d="M952 1120h56v56h-56z"/><path fill="none" d="M1008 1120h56v56h-56z"/><path fill="#a9bdffdb" d="M1064 1120h56v56h-56z"/><path fill="none" d="M1120 1120h56v56h-56z"/><path fill="#a9bdffab" d="M1176 1120h56v56h-56z"/><path fill="none" d="M1232 1120h56v56h-56zM1288 1120h56v56h-56zM1344 1120h56v56h-56zM1400 1120h56v56h-56z"/><path fill="#a9bdffab" d="M1456 1120h56v56h-56z"/><path fill="none" d="M1512 1120h56v56h-56zM1568 1120h56v56h-56zM1624 1120h56v56h-56zM1680 1120h56v56h-56zM1736 1120h56v56h-56zM1792 1120h56v56h-56zM1848 1120h56v56h-56zM1904 1120h56v56h-56zM1960 1120h56v56h-56z"/><path fill="#a9bdff1d" d="M0 1176h56v56H0z"/><path fill="none" d="M56 1176h56v56H56zM112 1176h56v56h-56zM168 1176h56v56h-56zM224 1176h56v56h-56z"/><path fill="#a9bdffda" d="M280 1176h56v56h-56z"/><path fill="none" d="M336 1176h56v56h-56zM392 1176h56v56h-56zM448 1176h56v56h-56zM504 1176h56v56h-56zM560 1176h56v56h-56zM616 1176h56v56h-56zM672 1176h56v56h-56zM728 1176h56v56h-56zM784 1176h56v56h-56z"/><path fill="#a9bdff25" d="M840 1176h56v56h-56z"/><path fill="#a9bdff21" d="M896 1176h56v56h-56z"/><path fill="none" d="M952 1176h56v56h-56zM1008 1176h56v56h-56zM1064 1176h56v56h-56z"/><path fill="#a9bdff66" d="M1120 1176h56v56h-56z"/><path fill="none" d="M1176 1176h56v56h-56zM1232 1176h56v56h-56z"/><path fill="#a9bdffcd" d="M1288 1176h56v56h-56z"/><path fill="none" d="M1344 1176h56v56h-56zM1400 1176h56v56h-56zM1456 1176h56v56h-56z"/><path fill="#a9bdff28" d="M1512 1176h56v56h-56z"/><path fill="none" d="M1568 1176h56v56h-56zM1624 1176h56v56h-56zM1680 1176h56v56h-56zM1736 1176h56v56h-56zM1792 1176h56v56h-56z"/><path fill="#a9bdfff8" d="M1848 1176h56v56h-56z"/><path fill="none" d="M1904 1176h56v56h-56zM1960 1176h56v56h-56zM0 1232h56v56H0zM56 1232h56v56H56zM112 1232h56v56h-56zM168 1232h56v56h-56zM224 1232h56v56h-56zM280 1232h56v56h-56z"/><path fill="#a9bdff63" d="M336 1232h56v56h-56z"/><path fill="none" d="M392 1232h56v56h-56zM448 1232h56v56h-56zM504 1232h56v56h-56z"/><path fill="#a9bdffec" d="M560 1232h56v56h-56z"/><path fill="none" d="M616 1232h56v56h-56zM672 1232h56v56h-56zM728 1232h56v56h-56z"/><path fill="#a9bdff30" d="M784 1232h56v56h-56z"/><path fill="none" d="M840 1232h56v56h-56zM896 1232h56v56h-56z"/><path fill="#a9bdff03" d="M952 1232h56v56h-56z"/><path fill="none" d="M1008 1232h56v56h-56z"/><path fill="#a9bdffae" d="M1064 1232h56v56h-56z"/><path fill="none" d="M1120 1232h56v56h-56z"/><path fill="#a9bdff66" d="M1176 1232h56v56h-56z"/><path fill="none" d="M1232 1232h56v56h-56zM1288 1232h56v56h-56zM1344 1232h56v56h-56z"/><path fill="#a9bdffb5" d="M1400 1232h56v56h-56z"/><path fill="#a9bdffe9" d="M1456 1232h56v56h-56z"/><path fill="none" d="M1512 1232h56v56h-56z"/><path fill="#a9bdff4b" d="M1568 1232h56v56h-56z"/><path fill="#a9bdffb9" d="M1624 1232h56v56h-56z"/><path fill="none" d="M1680 1232h56v56h-56zM1736 1232h56v56h-56z"/><path fill="#a9bdff65" d="M1792 1232h56v56h-56z"/><path fill="none" d="M1848 1232h56v56h-56z"/><path fill="#a9bdff10" d="M1904 1232h56v56h-56z"/><path fill="#a9bdffab" d="M1960 1232h56v56h-56z"/><path fill="#a9bdff25" d="M0 1288h56v56H0z"/><path fill="none" d="M56 1288h56v56H56z"/><path fill="#a9bdff0f" d="M112 1288h56v56h-56z"/><path fill="none" d="M168 1288h56v56h-56zM224 1288h56v56h-56zM280 1288h56v56h-56z"/><path fill="#a9bdff9b" d="M336 1288h56v56h-56z"/><path fill="none" d="M392 1288h56v56h-56zM448 1288h56v56h-56zM504 1288h56v56h-56z"/><path fill="#a9bdff83" d="M560 1288h56v56h-56z"/><path fill="#a9bdfff3" d="M616 1288h56v56h-56z"/><path fill="none" d="M672 1288h56v56h-56zM728 1288h56v56h-56zM784 1288h56v56h-56zM840 1288h56v56h-56zM896 1288h56v56h-56z"/><path fill="#a9bdffce" d="M952 1288h56v56h-56z"/><path fill="none" d="M1008 1288h56v56h-56zM1064 1288h56v56h-56z"/><path fill="#a9bdff19" d="M1120 1288h56v56h-56z"/><path fill="none" d="M1176 1288h56v56h-56zM1232 1288h56v56h-56zM1288 1288h56v56h-56zM1344 1288h56v56h-56z"/><path fill="#a9bdff61" d="M1400 1288h56v56h-56z"/><path fill="none" d="M1456 1288h56v56h-56zM1512 1288h56v56h-56zM1568 1288h56v56h-56zM1624 1288h56v56h-56z"/><path fill="#a9bdffd7" d="M1680 1288h56v56h-56z"/><path fill="#a9bdff8a" d="M1736 1288h56v56h-56z"/><path fill="#a9bdff1b" d="M1792 1288h56v56h-56z"/><path fill="#a9bdff97" d="M1848 1288h56v56h-56z"/><path fill="none" d="M1904 1288h56v56h-56z"/><path fill="#a9bdff36" d="M1960 1288h56v56h-56z"/><path fill="none" d="M0 1344h56v56H0z"/><path fill="#a9bdff7c" d="M56 1344h56v56H56z"/><path fill="#a9bdff83" d="M112 1344h56v56h-56z"/><path fill="#a9bdff49" d="M168 1344h56v56h-56z"/><path fill="none" d="M224 1344h56v56h-56zM280 1344h56v56h-56zM336 1344h56v56h-56zM392 1344h56v56h-56zM448 1344h56v56h-56zM504 1344h56v56h-56zM560 1344h56v56h-56z"/><path fill="#a9bdffe5" d="M616 1344h56v56h-56z"/><path fill="#a9bdffdf" d="M672 1344h56v56h-56z"/><path fill="none" d="M728 1344h56v56h-56zM784 1344h56v56h-56z"/><path fill="#a9bdfff4" d="M840 1344h56v56h-56z"/><path fill="none" d="M896 1344h56v56h-56zM952 1344h56v56h-56z"/><path fill="#a9bdffb4" d="M1008 1344h56v56h-56z"/><path fill="none" d="M1064 1344h56v56h-56z"/><path fill="#a9bdff3c" d="M1120 1344h56v56h-56z"/><path fill="none" d="M1176 1344h56v56h-56zM1232 1344h56v56h-56z"/><path fill="#a9bdff84" d="M1288 1344h56v56h-56z"/><path fill="none" d="M1344 1344h56v56h-56z"/><path fill="#a9bdff2f" d="M1400 1344h56v56h-56z"/><path fill="none" d="M1456 1344h56v56h-56zM1512 1344h56v56h-56z"/><path fill="#a9bdff6d" d="M1568 1344h56v56h-56z"/><path fill="none" d="M1624 1344h56v56h-56zM1680 1344h56v56h-56zM1736 1344h56v56h-56zM1792 1344h56v56h-56z"/><path fill="#a9bdffd2" d="M1848 1344h56v56h-56z"/><path fill="none" d="M1904 1344h56v56h-56z"/><path fill="#a9bdff41" d="M1960 1344h56v56h-56z"/><path fill="none" d="M0 1400h56v56H0zM56 1400h56v56H56zM112 1400h56v56h-56z"/><path fill="#a9bdff60" d="M168 1400h56v56h-56z"/><path fill="#a9bdff52" d="M224 1400h56v56h-56z"/><path fill="none" d="M280 1400h56v56h-56z"/><path fill="#a9bdff41" d="M336 1400h56v56h-56z"/><path fill="none" d="M392 1400h56v56h-56z"/><path fill="#a9bdffc0" d="M448 1400h56v56h-56z"/><path fill="none" d="M504 1400h56v56h-56zM560 1400h56v56h-56zM616 1400h56v56h-56z"/><path fill="#a9bdff16" d="M672 1400h56v56h-56z"/><path fill="#a9bdff2e" d="M728 1400h56v56h-56z"/><path fill="#a9bdff57" d="M784 1400h56v56h-56z"/><path fill="none" d="M840 1400h56v56h-56z"/><path fill="#a9bdff3a" d="M896 1400h56v56h-56z"/><path fill="none" d="M952 1400h56v56h-56zM1008 1400h56v56h-56zM1064 1400h56v56h-56zM1120 1400h56v56h-56zM1176 1400h56v56h-56zM1232 1400h56v56h-56zM1288 1400h56v56h-56zM1344 1400h56v56h-56zM1400 1400h56v56h-56z"/><path fill="#a9bdff47" d="M1456 1400h56v56h-56z"/><path fill="none" d="M1512 1400h56v56h-56zM1568 1400h56v56h-56zM1624 1400h56v56h-56z"/><path fill="#a9bdff02" d="M1680 1400h56v56h-56z"/><path fill="none" d="M1736 1400h56v56h-56z"/><path fill="#a9bdff18" d="M1792 1400h56v56h-56z"/><path fill="none" d="M1848 1400h56v56h-56zM1904 1400h56v56h-56zM1960 1400h56v56h-56zM0 1456h56v56H0zM56 1456h56v56H56z"/><path fill="#a9bdffc4" d="M112 1456h56v56h-56z"/><path fill="#a9bdffc3" d="M168 1456h56v56h-56z"/><path fill="none" d="M224 1456h56v56h-56zM280 1456h56v56h-56zM336 1456h56v56h-56zM392 1456h56v56h-56zM448 1456h56v56h-56zM504 1456h56v56h-56zM560 1456h56v56h-56zM616 1456h56v56h-56zM672 1456h56v56h-56z"/><path fill="#a9bdff63" d="M728 1456h56v56h-56z"/><path fill="none" d="M784 1456h56v56h-56zM840 1456h56v56h-56zM896 1456h56v56h-56zM952 1456h56v56h-56z"/><path fill="#a9bdff1c" d="M1008 1456h56v56h-56z"/><path fill="#a9bdff6e" d="M1064 1456h56v56h-56z"/><path fill="none" d="M1120 1456h56v56h-56zM1176 1456h56v56h-56z"/><path fill="#a9bdffca" d="M1232 1456h56v56h-56z"/><path fill="none" d="M1288 1456h56v56h-56zM1344 1456h56v56h-56zM1400 1456h56v56h-56zM1456 1456h56v56h-56zM1512 1456h56v56h-56zM1568 1456h56v56h-56zM1624 1456h56v56h-56zM1680 1456h56v56h-56zM1736 1456h56v56h-56z"/><path fill="#a9bdffa2" d="M1792 1456h56v56h-56z"/><path fill="none" d="M1848 1456h56v56h-56zM1904 1456h56v56h-56zM1960 1456h56v56h-56zM0 1512h56v56H0zM56 1512h56v56H56zM112 1512h56v56h-56z"/><path fill="#a9bdff43" d="M168 1512h56v56h-56z"/><path fill="none" d="M224 1512h56v56h-56zM280 1512h56v56h-56zM336 1512h56v56h-56zM392 1512h56v56h-56zM448 1512h56v56h-56zM504 1512h56v56h-56zM560 1512h56v56h-56z"/><path fill="#a9bdffb5" d="M616 1512h56v56h-56z"/><path fill="none" d="M672 1512h56v56h-56z"/><path fill="#a9bdfff8" d="M728 1512h56v56h-56z"/><path fill="none" d="M784 1512h56v56h-56zM840 1512h56v56h-56zM896 1512h56v56h-56zM952 1512h56v56h-56zM1008 1512h56v56h-56zM1064 1512h56v56h-56z"/><path fill="#a9bdff80" d="M1120 1512h56v56h-56z"/><path fill="none" d="M1176 1512h56v56h-56zM1232 1512h56v56h-56z"/><path fill="#a9bdffaa" d="M1288 1512h56v56h-56z"/><path fill="none" d="M1344 1512h56v56h-56zM1400 1512h56v56h-56zM1456 1512h56v56h-56zM1512 1512h56v56h-56z"/><path fill="#a9bdff10" d="M1568 1512h56v56h-56z"/><path fill="none" d="M1624 1512h56v56h-56zM1680 1512h56v56h-56zM1736 1512h56v56h-56z"/><path fill="#a9bdff25" d="M1792 1512h56v56h-56z"/><path fill="#a9bdffb4" d="M1848 1512h56v56h-56z"/><path fill="none" d="M1904 1512h56v56h-56zM1960 1512h56v56h-56zM0 1568h56v56H0zM56 1568h56v56H56z"/><path fill="#a9bdff7f" d="M112 1568h56v56h-56z"/><path fill="none" d="M168 1568h56v56h-56zM224 1568h56v56h-56zM280 1568h56v56h-56z"/><path fill="#a9bdfff0" d="M336 1568h56v56h-56z"/><path fill="#a9bdff96" d="M392 1568h56v56h-56z"/><path fill="none" d="M448 1568h56v56h-56zM504 1568h56v56h-56zM560 1568h56v56h-56zM616 1568h56v56h-56zM672 1568h56v56h-56z"/><path fill="#a9bdffce" d="M728 1568h56v56h-56z"/><path fill="#a9bdff0f" d="M784 1568h56v56h-56z"/><path fill="none" d="M840 1568h56v56h-56zM896 1568h56v56h-56zM952 1568h56v56h-56zM1008 1568h56v56h-56zM1064 1568h56v56h-56zM1120 1568h56v56h-56zM1176 1568h56v56h-56zM1232 1568h56v56h-56zM1288 1568h56v56h-56z"/><path fill="#a9bdffd3" d="M1344 1568h56v56h-56z"/><path fill="none" d="M1400 1568h56v56h-56zM1456 1568h56v56h-56zM1512 1568h56v56h-56zM1568 1568h56v56h-56zM1624 1568h56v56h-56zM1680 1568h56v56h-56zM1736 1568h56v56h-56zM1792 1568h56v56h-56zM1848 1568h56v56h-56z"/><path fill="#a9bdff1f" d="M1904 1568h56v56h-56z"/><path fill="#a9bdffdf" d="M1960 1568h56v56h-56z"/><path fill="#a9bdffb4" d="M0 1624h56v56H0z"/><path fill="none" d="M56 1624h56v56H56zM112 1624h56v56h-56zM168 1624h56v56h-56zM224 1624h56v56h-56zM280 1624h56v56h-56z"/><path fill="#a9bdffc5" d="M336 1624h56v56h-56z"/><path fill="#a9bdffc2" d="M392 1624h56v56h-56z"/><path fill="none" d="M448 1624h56v56h-56z"/><path fill="#a9bdff59" d="M504 1624h56v56h-56z"/><path fill="none" d="M560 1624h56v56h-56zM616 1624h56v56h-56zM672 1624h56v56h-56zM728 1624h56v56h-56z"/><path fill="#a9bdff28" d="M784 1624h56v56h-56z"/><path fill="none" d="M840 1624h56v56h-56zM896 1624h56v56h-56z"/><path fill="#a9bdffda" d="M952 1624h56v56h-56z"/><path fill="none" d="M1008 1624h56v56h-56zM1064 1624h56v56h-56zM1120 1624h56v56h-56z"/><path fill="#a9bdff3c" d="M1176 1624h56v56h-56z"/><path fill="#a9bdffb1" d="M1232 1624h56v56h-56z"/><path fill="none" d="M1288 1624h56v56h-56zM1344 1624h56v56h-56zM1400 1624h56v56h-56z"/><path fill="#a9bdffce" d="M1456 1624h56v56h-56z"/><path fill="#a9bdff00" d="M1512 1624h56v56h-56z"/><path fill="none" d="M1568 1624h56v56h-56z"/><path fill="#a9bdfff0" d="M1624 1624h56v56h-56z"/><path fill="none" d="M1680 1624h56v56h-56z"/><path fill="#a9bdffba" d="M1736 1624h56v56h-56z"/><path fill="none" d="M1792 1624h56v56h-56zM1848 1624h56v56h-56zM1904 1624h56v56h-56zM1960 1624h56v56h-56zM0 1680h56v56H0zM56 1680h56v56H56z"/><path fill="#a9bdff88" d="M112 1680h56v56h-56z"/><path fill="#a9bdff5b" d="M168 1680h56v56h-56z"/><path fill="none" d="M224 1680h56v56h-56zM280 1680h56v56h-56zM336 1680h56v56h-56z"/><path fill="#a9bdff2d" d="M392 1680h56v56h-56z"/><path fill="none" d="M448 1680h56v56h-56z"/><path fill="#a9bdff9a" d="M504 1680h56v56h-56z"/><path fill="none" d="M560 1680h56v56h-56z"/><path fill="#a9bdff66" d="M616 1680h56v56h-56z"/><path fill="none" d="M672 1680h56v56h-56zM728 1680h56v56h-56zM784 1680h56v56h-56zM840 1680h56v56h-56z"/><path fill="#a9bdffd7" d="M896 1680h56v56h-56z"/><path fill="none" d="M952 1680h56v56h-56zM1008 1680h56v56h-56zM1064 1680h56v56h-56z"/><path fill="#a9bdffef" d="M1120 1680h56v56h-56z"/><path fill="none" d="M1176 1680h56v56h-56z"/><path fill="#a9bdffd2" d="M1232 1680h56v56h-56z"/><path fill="none" d="M1288 1680h56v56h-56zM1344 1680h56v56h-56zM1400 1680h56v56h-56z"/><path fill="#a9bdfff4" d="M1456 1680h56v56h-56z"/><path fill="none" d="M1512 1680h56v56h-56z"/><path fill="#a9bdff36" d="M1568 1680h56v56h-56z"/><path fill="#a9bdff51" d="M1624 1680h56v56h-56z"/><path fill="none" d="M1680 1680h56v56h-56z"/><path fill="#a9bdffa0" d="M1736 1680h56v56h-56z"/><path fill="#a9bdff96" d="M1792 1680h56v56h-56z"/><path fill="none" d="M1848 1680h56v56h-56zM1904 1680h56v56h-56zM1960 1680h56v56h-56zM0 1736h56v56H0zM56 1736h56v56H56zM112 1736h56v56h-56z"/><path fill="#a9bdfff9" d="M168 1736h56v56h-56z"/><path fill="none" d="M224 1736h56v56h-56zM280 1736h56v56h-56zM336 1736h56v56h-56zM392 1736h56v56h-56zM448 1736h56v56h-56z"/><path fill="#a9bdff3d" d="M504 1736h56v56h-56z"/><path fill="none" d="M560 1736h56v56h-56z"/><path fill="#a9bdffd4" d="M616 1736h56v56h-56z"/><path fill="none" d="M672 1736h56v56h-56zM728 1736h56v56h-56z"/><path fill="#a9bdff58" d="M784 1736h56v56h-56z"/><path fill="none" d="M840 1736h56v56h-56z"/><path fill="#a9bdff72" d="M896 1736h56v56h-56z"/><path fill="#a9bdffaf" d="M952 1736h56v56h-56z"/><path fill="#a9bdff4f" d="M1008 1736h56v56h-56z"/><path fill="none" d="M1064 1736h56v56h-56z"/><path fill="#a9bdff90" d="M1120 1736h56v56h-56z"/><path fill="#a9bdff06" d="M1176 1736h56v56h-56z"/><path fill="none" d="M1232 1736h56v56h-56z"/><path fill="#a9bdff6b" d="M1288 1736h56v56h-56z"/><path fill="none" d="M1344 1736h56v56h-56zM1400 1736h56v56h-56zM1456 1736h56v56h-56zM1512 1736h56v56h-56z"/><path fill="#a9bdff3b" d="M1568 1736h56v56h-56z"/><path fill="none" d="M1624 1736h56v56h-56z"/><path fill="#a9bdff21" d="M1680 1736h56v56h-56z"/><path fill="none" d="M1736 1736h56v56h-56zM1792 1736h56v56h-56zM1848 1736h56v56h-56z"/><path fill="#a9bdff68" d="M1904 1736h56v56h-56z"/><path fill="none" d="M1960 1736h56v56h-56zM0 1792h56v56H0zM56 1792h56v56H56zM112 1792h56v56h-56zM168 1792h56v56h-56zM224 1792h56v56h-56zM280 1792h56v56h-56zM336 1792h56v56h-56zM392 1792h56v56h-56z"/><path fill="#a9bdff51" d="M448 1792h56v56h-56z"/><path fill="none" d="M504 1792h56v56h-56z"/><path fill="#a9bdffd6" d="M560 1792h56v56h-56z"/><path fill="none" d="M616 1792h56v56h-56zM672 1792h56v56h-56zM728 1792h56v56h-56zM784 1792h56v56h-56z"/><path fill="#a9bdff40" d="M840 1792h56v56h-56z"/><path fill="none" d="M896 1792h56v56h-56zM952 1792h56v56h-56zM1008 1792h56v56h-56z"/><path fill="#a9bdfffc" d="M1064 1792h56v56h-56z"/><path fill="#a9bdff16" d="M1120 1792h56v56h-56z"/><path fill="#a9bdff27" d="M1176 1792h56v56h-56z"/><path fill="none" d="M1232 1792h56v56h-56z"/><path fill="#a9bdffcc" d="M1288 1792h56v56h-56z"/><path fill="#a9bdffcf" d="M1344 1792h56v56h-56z"/><path fill="#a9bdff58" d="M1400 1792h56v56h-56z"/><path fill="#a9bdff8f" d="M1456 1792h56v56h-56z"/><path fill="none" d="M1512 1792h56v56h-56zM1568 1792h56v56h-56zM1624 1792h56v56h-56z"/><path fill="#a9bdff8f" d="M1680 1792h56v56h-56z"/><path fill="none" d="M1736 1792h56v56h-56zM1792 1792h56v56h-56z"/><path fill="#a9bdffbc" d="M1848 1792h56v56h-56z"/><path fill="none" d="M1904 1792h56v56h-56zM1960 1792h56v56h-56z"/><path fill="#a9bdff9d" d="M0 1848h56v56H0z"/><path fill="none" d="M56 1848h56v56H56zM112 1848h56v56h-56zM168 1848h56v56h-56zM224 1848h56v56h-56zM280 1848h56v56h-56zM336 1848h56v56h-56z"/><path fill="#a9bdff71" d="M392 1848h56v56h-56z"/><path fill="none" d="M448 1848h56v56h-56zM504 1848h56v56h-56zM560 1848h56v56h-56z"/><path fill="#a9bdff75" d="M616 1848h56v56h-56z"/><path fill="#a9bdff81" d="M672 1848h56v56h-56z"/><path fill="#a9bdff37" d="M728 1848h56v56h-56z"/><path fill="none" d="M784 1848h56v56h-56zM840 1848h56v56h-56zM896 1848h56v56h-56z"/><path fill="#a9bdff4a" d="M952 1848h56v56h-56z"/><path fill="none" d="M1008 1848h56v56h-56zM1064 1848h56v56h-56zM1120 1848h56v56h-56zM1176 1848h56v56h-56z"/><path fill="#a9bdff9b" d="M1232 1848h56v56h-56z"/><path fill="none" d="M1288 1848h56v56h-56z"/><path fill="#a9bdff86" d="M1344 1848h56v56h-56z"/><path fill="none" d="M1400 1848h56v56h-56z"/><path fill="#a9bdff2e" d="M1456 1848h56v56h-56z"/><path fill="none" d="M1512 1848h56v56h-56z"/><path fill="#a9bdfff5" d="M1568 1848h56v56h-56z"/><path fill="none" d="M1624 1848h56v56h-56z"/><path fill="#a9bdff18" d="M1680 1848h56v56h-56z"/><path fill="none" d="M1736 1848h56v56h-56z"/><path fill="#a9bdff6e" d="M1792 1848h56v56h-56z"/><path fill="#a9bdfff3" d="M1848 1848h56v56h-56z"/><path fill="none" d="M1904 1848h56v56h-56zM1960 1848h56v56h-56zM0 1904h56v56H0z"/><path fill="#a9bdffa4" d="M56 1904h56v56H56z"/><path fill="none" d="M112 1904h56v56h-56z"/><path fill="#a9bdff93" d="M168 1904h56v56h-56z"/><path fill="none" d="M224 1904h56v56h-56zM280 1904h56v56h-56zM336 1904h56v56h-56z"/><path fill="#a9bdff3a" d="M392 1904h56v56h-56z"/><path fill="none" d="M448 1904h56v56h-56zM504 1904h56v56h-56zM560 1904h56v56h-56zM616 1904h56v56h-56zM672 1904h56v56h-56zM728 1904h56v56h-56zM784 1904h56v56h-56zM840 1904h56v56h-56zM896 1904h56v56h-56zM952 1904h56v56h-56zM1008 1904h56v56h-56zM1064 1904h56v56h-56zM1120 1904h56v56h-56z"/><path fill="#a9bdffdf" d="M1176 1904h56v56h-56z"/><path fill="none" d="M1232 1904h56v56h-56zM1288 1904h56v56h-56zM1344 1904h56v56h-56zM1400 1904h56v56h-56zM1456 1904h56v56h-56z"/><path fill="#a9bdff36" d="M1512 1904h56v56h-56z"/><path fill="none" d="M1568 1904h56v56h-56zM1624 1904h56v56h-56z"/><path fill="#a9bdffcd" d="M1680 1904h56v56h-56z"/><path fill="#a9bdff3e" d="M1736 1904h56v56h-56z"/><path fill="none" d="M1792 1904h56v56h-56zM1848 1904h56v56h-56zM1904 1904h56v56h-56zM1960 1904h56v56h-56zM0 1960h56v56H0zM56 1960h56v56H56z"/><path fill="#a9bdff35" d="M112 1960h56v56h-56z"/><path fill="none" d="M168 1960h56v56h-56z"/><path fill="#a9bdff67" d="M224 1960h56v56h-56z"/><path fill="none" d="M280 1960h56v56h-56zM336 1960h56v56h-56zM392 1960h56v56h-56zM448 1960h56v56h-56z"/><path fill="#a9bdff9a" d="M504 1960h56v56h-56z"/><path fill="#a9bdff92" d="M560 1960h56v56h-56z"/><path fill="none" d="M616 1960h56v56h-56z"/><path fill="#a9bdff7c" d="M672 1960h56v56h-56z"/><path fill="none" d="M728 1960h56v56h-56z"/><path fill="#a9bdff1f" d="M784 1960h56v56h-56z"/><path fill="none" d="M840 1960h56v56h-56zM896 1960h56v56h-56zM952 1960h56v56h-56zM1008 1960h56v56h-56z"/><path fill="#a9bdffb5" d="M1064 1960h56v56h-56z"/><path fill="none" d="M1120 1960h56v56h-56zM1176 1960h56v56h-56zM1232 1960h56v56h-56zM1288 1960h56v56h-56zM1344 1960h56v56h-56zM1400 1960h56v56h-56zM1456 1960h56v56h-56z"/><path fill="#a9bdffa8" d="M1512 1960h56v56h-56z"/><path fill="none" d="M1568 1960h56v56h-56z"/><path fill="#a9bdff4e" d="M1624 1960h56v56h-56z"/><path fill="none" d="M1680 1960h56v56h-56z"/><path fill="#a9bdff38" d="M1736 1960h56v56h-56z"/><path fill="none" d="M1792 1960h56v56h-56zM1848 1960h56v56h-56zM1904 1960h56v56h-56zM1960 1960h56v56h-56z"/></g><path fill="#f3f3f3" filter="url(#c)" opacity=".8" d="M0 0h2000v2000H0z"/><defs><radialGradient id="a"><stop offset="0" stop-color="#fff"/><stop offset="1" stop-color="#fff" stop-opacity="0"/></radialGradient><filter id="c" x="-800" y="-800" width="2800" height="2800" filterUnits="userSpaceOnUse" primitiveUnits="userSpaceOnUse" color-interpolation-filters="linearRGB"><feTurbulence type="fractalNoise" baseFrequency=".105" numOctaves="4" seed="15" stitchTiles="no-stitch" x="0" y="0" width="2000" height="2000" result="turbulence"/><feSpecularLighting surfaceScale="10" specularConstant=".07" specularExponent="20" lighting-color="#fff" x="0" y="0" width="2000" height="2000" in="turbulence" result="specularLighting"><feDistantLight azimuth="3" elevation="100"/></feSpecularLighting></filter></defs></svg>