<svg xmlns="http://www.w3.org/2000/svg" viewBox="0 0 24 24" xmlns:v="https://vecta.io/nano"><path d="M21.807 18.285L13.553.757c-.207-.438-.639-.727-1.129-.754a1.31 1.31 0 0 0-1.206.625L2.266 15.127c-.277.452-.272 1.009.016 1.455l4.376 6.779c.261.405.713.639 1.182.639.133 0 .267-.019.399-.058l12.702-3.757a1.39 1.39 0 0 0 .874-.755 1.36 1.36 0 0 0-.008-1.145zm-1.848.752L9.181 22.224c-.329.098-.645-.187-.576-.519l3.85-18.439c.072-.345.549-.4.699-.08l7.129 15.138c.134.286-.019.622-.325.713z"/></svg>