<svg id="visual" viewBox="0 0 900 900" width="900" height="900" xmlns="http://www.w3.org/2000/svg" xmlns:xlink="http://www.w3.org/1999/xlink" version="1.1"><g transform="translate(426.9664105077491 394.9889674389451)"><path d="M240.9 -264.3C309.5 -229.5 360.6 -151 360.2 -75C359.9 0.9 308.1 74.5 263.6 152.7C219 230.9 181.7 313.7 113.3 359.5C44.9 405.3 -54.5 414.1 -125.9 375.3C-197.3 336.6 -240.7 250.3 -271.6 169.8C-302.6 89.4 -321.2 14.7 -311.6 -57.5C-301.9 -129.8 -264.1 -199.7 -207.5 -236.6C-150.8 -273.5 -75.4 -277.4 5.4 -283.8C86.1 -290.2 172.3 -299.1 240.9 -264.3" fill="#8559b9"></path></g></svg>