<?xml version="1.0" encoding="UTF-8"?>
<!-- Generator: visioncortex VTracer 0.6.3 -->
<svg version="1.1" xmlns="http://www.w3.org/2000/svg" width="1280" height="1050">
<path d="M0 0 C0.33 0.33 0.66 0.66 1 1 C2.39 1.18 3.79 1.32 5.19 1.44 C10.36 1.99 14.44 2.44 18.25 6.25 C20.07 9.11 20.93 11.8 22 15 C25.25 17.17 25.6 17.21 29.19 16.62 C30.45 16.42 31.7 16.21 33 16 C34.19 19.88 35 22.92 35 27 C35.66 26.86 36.32 26.71 37 26.56 C47.23 24.64 47.23 24.64 52.56 26.19 C55.78 27.07 55.78 27.07 58.88 26.18 C59.46 25.79 60.03 25.4 60.62 25 C64 23 64 23 67.75 23.88 C69.36 24.43 69.36 24.43 71 25 C72.49 24.01 72.49 24.01 74 23 C76.18 22.73 78.37 22.55 80.56 22.44 C84.94 22.33 84.94 22.33 89 21 C91.33 20.96 93.67 20.96 96 21 C96.33 21.99 96.66 22.98 97 24 C96.67 24.66 96.34 25.32 96 26 C99.4 24.94 102.01 23.99 105 22 C107.56 21.83 107.56 21.83 110.59 21.95 C111.68 22 112.78 22.04 113.91 22.08 C115.05 22.14 116.2 22.19 117.38 22.25 C119.08 22.31 119.08 22.31 120.82 22.37 C126.05 22.6 130.17 22.89 135 25 C136.66 25.37 138.32 25.71 140 26 C140.33 24.35 140.66 22.7 141 21 C143.67 20.63 146.33 20.28 149 19.94 C149.74 19.83 150.49 19.73 151.25 19.62 C155.08 19.14 158.51 18.95 162.34 19.5 C166.26 20.04 168.4 19.53 172 18 C172.66 18.66 173.32 19.32 174 20 C175.89 19.94 175.89 19.94 178 19.5 C183.32 18.76 187.84 19.7 193 21 C193.76 21.19 194.51 21.38 195.29 21.57 C195.86 21.71 196.42 21.85 197 22 C197.66 21.01 198.32 20.02 199 19 C207.17 17.9 217.15 20.22 223.82 25.04 C225.15 26.23 226.46 27.45 227.75 28.69 C230.78 30.45 233.51 30.46 236.98 30.59 C239 31 239 31 241 34 C241.12 36.69 241.12 36.69 241 39 C239.68 39.33 238.36 39.66 237 40 C236.67 39.34 236.34 38.68 236 38 C235.03 38.19 234.06 38.37 233.06 38.56 C232.05 38.71 231.04 38.85 230 39 C229.67 38.67 229.34 38.34 229 38 C229.52 40.76 230.11 43.33 231 46 C232.73 46.5 232.73 46.5 234.5 47 C236.23 47.5 236.23 47.5 238 48 C238.33 48.99 238.66 49.98 239 51 C239.66 51.33 240.32 51.66 241 52 C241.31 52.66 241.62 53.32 241.94 54 C242.89 56.35 242.89 56.35 246 57 C247.11 58.59 247.11 58.59 248.19 60.5 C250.02 63.28 250.02 63.28 253 64.54 C253.7 64.59 254.4 64.64 255.12 64.69 C259 65 259 65 261 66.75 C262.2 69.44 262.45 71.08 262 74 C260.69 75.81 260.69 75.81 259 77 C258.01 77 257.02 77 256 77 C257.49 79.97 257.49 79.97 259 83 C257.68 83.99 256.36 84.98 255 86 C255.57 89.96 256.81 92.67 259 96 C258.51 96.52 258.01 97.03 257.5 97.56 C255.5 100.81 255.78 103.26 256 107 C255.01 107 254.02 107 253 107 C253 106.34 253 105.68 253 105 C251.35 105.33 249.7 105.66 248 106 C247.67 107.32 247.34 108.64 247 110 C247.99 110.33 248.98 110.66 250 111 C249.67 111.99 249.34 112.98 249 114 C250.49 113.5 250.49 113.5 252 113 C252.23 113.62 252.45 114.24 252.69 114.88 C254.43 117.7 255.9 117.85 259 119 C261.72 120.59 264.36 122.28 267 124 C266.52 129.45 266.52 129.45 264.25 131.88 C261.64 133.18 259.88 133.24 257 133 C257 133.99 257 134.98 257 136 C258.32 136.33 259.64 136.66 261 137 C260.75 138.18 260.51 139.35 260.25 140.56 C259.66 145.32 261.38 148.16 264 152 C264.74 153.29 265.47 154.58 266.19 155.88 C267.69 158.78 267.69 158.78 269 160 C268.71 162.34 268.38 164.67 268 167 C268.66 167 269.32 167 270 167 C270.33 168.32 270.66 169.64 271 171 C270.01 171.33 269.02 171.66 268 172 C266.78 174.5 266.78 174.5 266 177 C264.68 176.67 263.36 176.34 262 176 C262.75 179.28 262.75 179.28 266 181 C266 181.99 266 182.98 266 184 C265.01 183.67 264.02 183.34 263 183 C262.67 184.98 262.34 186.96 262 189 C261.34 189 260.68 189 260 189 C259.88 189.78 259.75 190.57 259.62 191.38 C259 194 259 194 257 196 C256.67 196.99 256.34 197.98 256 199 C254.02 198.67 252.04 198.34 250 198 C248.51 201.47 248.51 201.47 247 205 C243.37 205 239.74 205 236 205 C235.67 206.32 235.34 207.64 235 209 C228.38 211.12 228.38 211.12 225 210 C222.75 211.21 222.75 211.21 220.5 212.94 C216.31 216 216.31 216 213 216 C213 215.01 213 214.02 213 213 C211.19 213.48 209.37 213.96 207.56 214.44 C206.55 214.7 205.54 214.97 204.5 215.25 C202.08 215.76 202.08 215.76 201 217 C199.33 217.04 197.67 217.04 196 217 C192.91 216.74 192.91 216.74 190.38 218.62 C186.18 220.34 184.31 219.58 180.09 218.42 C177.21 217.84 175.65 218.84 173 220 C168.49 220.33 164.31 220.44 160 219 C159.15 219.45 158.31 219.91 157.44 220.38 C152.98 222.48 148.87 222.72 144 223 C144 223.66 144 224.32 144 225 C141.57 227.51 140.24 227.98 136.72 228.22 C134.91 228.14 134.91 228.14 133.06 228.06 C128.45 227.87 125.16 227.91 121 230 C120.67 230.33 120.34 230.66 120 231 C120.99 231.33 121.98 231.66 123 232 C123.43 232.54 123.87 233.07 124.31 233.62 C126.04 235.35 126.04 235.35 129.12 234.81 C130.55 234.41 130.55 234.41 132 234 C132.33 233.34 132.66 232.68 133 232 C133.66 232 134.32 232 135 232 C135 231.34 135 230.68 135 230 C138.13 228.44 140.53 228.72 144 229 C146.8 230.12 149.4 231.49 152 233 C152.27 232.2 152.54 231.39 152.81 230.56 C155.49 227.43 156.51 227.51 160.5 227.12 C163.82 226.92 165.82 226.94 169 228 C182.73 229.64 182.73 229.64 195.38 224.88 C199.17 222.5 202.59 222.71 206.96 222.96 C207.63 222.97 208.31 222.99 209 223 C209.33 222.67 209.66 222.34 210 222 C212.25 221.9 214.5 221.87 216.75 221.88 C217.98 221.87 219.21 221.87 220.48 221.87 C223.49 221.98 226.08 222.39 229 223 C230.77 223.06 232.54 223.09 234.31 223.06 C235.2 223.05 236.08 223.04 236.99 223.04 C237.65 223.02 238.32 223.01 239 223 C239.33 222.01 239.66 221.02 240 220 C244.42 219.22 247.65 219.13 252 220 C254.34 219.69 256.67 219.35 259 219 C264.29 218.67 268.08 218.95 273 221 C275.96 220.7 278.28 219.89 281.06 218.81 C284 218 284 218 285.9 218.98 C288.47 220.23 289.73 219.99 292.5 219.5 C296.19 218.84 297.72 219.28 301 221 C303.19 221.28 303.19 221.28 305.44 221.19 C306.23 221.17 307.02 221.16 307.83 221.14 C310.1 221.05 310.1 221.05 312.62 220.38 C316.06 219.83 318.74 220.91 322 222 C322 222.66 322 223.32 322 224 C322.62 224.1 323.24 224.21 323.88 224.31 C326 225 326 225 328 228 C328.33 227.67 328.66 227.34 329 227 C332.38 226.58 335.63 226.51 339 227 C341.36 229.5 341.9 231.07 342.25 234.45 C343.27 237.92 344.86 238.71 347.88 240.62 C350.89 242.57 353.57 244.35 356 247 C355.67 247.99 355.34 248.98 355 250 C355.66 250.66 356.32 251.32 357 252 C357 252.99 357 253.98 357 255 C358.65 255.66 360.3 256.32 362 257 C361.52 261.31 360.25 263.17 357 266 C357.66 266.99 358.32 267.98 359 269 C358.34 269.33 357.68 269.66 357 270 C355.95 272.31 354.94 274.64 354 277 C354.99 276.67 355.98 276.34 357 276 C357.73 273.98 357.73 273.98 358 272 C359.98 272.33 361.96 272.66 364 273 C363.34 273.33 362.68 273.66 362 274 C362.33 274.66 362.66 275.32 363 276 C363.23 278.53 363.38 281.05 363.52 283.59 C364.08 286.38 364.79 287.27 367 289 C367.66 289.33 368.32 289.66 369 290 C367.67 292.67 366.33 295.33 365 298 C362.69 298 360.38 298 358 298 C357.9 298.79 357.8 299.57 357.7 300.38 C356.79 306.76 355.93 311.8 352 317 C349.75 317.94 349.75 317.94 348 318 C350.07 320.21 350.07 320.21 353 322 C356.35 321.81 356.35 321.81 360 321 C366.27 320.35 370.28 321.38 375.87 324.19 C379.02 325.39 381.73 324.5 385 324 C387.62 325.75 387.62 325.75 390 328 C391.66 329.01 393.33 330.01 395 331 C397 333 397 333 397 337 C396.34 337.33 395.68 337.66 395 338 C395 338.66 395 339.32 395 340 C395.93 339.69 396.86 339.38 397.81 339.06 C403.3 337.23 404.83 337.07 410.19 339.44 C411.27 339.91 412.36 340.38 413.48 340.87 C414.31 341.24 415.14 341.62 416 342 C416 342.66 416 343.32 416 344 C416.99 344.33 417.98 344.66 419 345 C418.98 346.07 418.96 347.14 418.94 348.25 C418.8 351.79 418.8 351.79 419.75 354.12 C420 356 420 356 418.38 358.69 C415.8 361.19 414.51 361.71 411 362 C412.52 364.63 413.84 366.84 416 369 C416.12 372.63 416.12 372.63 416 376 C417.98 375.67 419.96 375.34 422 375 C422.33 376.32 422.66 377.64 423 379 C422.34 379 421.68 379 421 379 C421.12 380.11 421.12 380.11 421.25 381.25 C421 384 421 384 419.06 385.88 C415.71 389.33 416 393.37 416 398 C414.79 399.61 414.79 399.61 413.19 401.31 C410.47 404.33 408.64 407.26 407 411 C405.61 410.91 405.61 410.91 404.19 410.81 C401.05 410.7 401.05 410.7 399.19 412.38 C397.93 414 397.93 414 397 416 C394.82 416.78 394.82 416.78 392.12 417.5 C388.84 418.38 386.87 419.09 384 421 C383.01 421 382.02 421 381 421 C381 420.34 381 419.68 381 419 C379.73 419.79 378.46 420.58 377.19 421.38 C376.48 421.82 375.77 422.26 375.04 422.71 C373.35 423.78 371.67 424.89 370 426 C367.61 426.12 367.61 426.12 364.75 426 C356.41 425.87 346.8 425.93 339.12 429.56 C335.63 431.17 332.81 431.47 329.02 431.69 C326.69 431.9 326.69 431.9 324 434 C321.46 434.37 318.94 434.5 316.38 434.66 C313.74 434.86 313.74 434.86 311 437 C305.21 438.88 300.47 439.67 294.81 437.12 C293.53 436.44 292.25 435.75 291 435 C290.9 435.78 290.79 436.57 290.69 437.38 C290 440 290 440 287 442 C284.73 442.27 284.73 442.27 282.19 442.38 C277.4 442.74 274.94 444.25 271 447 C267.42 446.83 266.03 446.02 263 444 C262.38 444.66 261.76 445.32 261.12 446 C259 448 259 448 257 448 C256.76 448.65 256.52 449.3 256.28 449.96 C255 452 255 452 252.94 452.5 C251.76 452.53 251.76 452.53 250.56 452.56 C248.21 452.57 248.21 452.57 246 453 C245.32 453.73 245.32 453.73 244.62 454.48 C242.15 456.8 239.82 456.52 236.5 456.69 C235.36 456.75 234.21 456.82 233.03 456.89 C228.2 457.07 223.78 456.63 219 456 C218.34 457.32 217.68 458.64 217 460 C216.34 460 215.68 460 215 460 C215.33 460.99 215.66 461.98 216 463 C216.67 462.74 217.33 462.47 218.02 462.2 C225.88 459.52 230.6 460.41 238 464 C238 463.34 238 462.68 238 462 C244.69 458.25 251.1 458.62 258.62 458.75 C260.45 458.76 260.45 458.76 262.3 458.77 C267.36 458.81 272.05 458.92 277 460 C277.66 460 278.32 460 279 460 C279.33 459.01 279.66 458.02 280 457 C284.17 456.93 288.07 456.96 292.19 457.62 C296.16 458.02 297.45 457.46 301 456 C303.34 456.28 305.68 456.61 308 457 C308.66 456.67 309.32 456.34 310 456 C319.11 454.94 319.11 454.94 323 457.12 C324.11 458.03 325.22 458.96 326.3 459.9 C328.45 461.29 329.78 461.24 332.31 461.12 C333.53 461.08 334.75 461.04 336 461 C338.16 464.23 338.47 465.25 338 469 C336.5 470.63 336.5 470.63 335 472 C335 472.99 335 473.98 335 475 C335.66 475 336.32 475 337 475 C337.33 476.32 337.66 477.64 338 479 C344.35 478.45 350.68 477.83 357 477 C359.1 480.15 359.28 482.08 359.66 485.75 C360.57 491.77 362.87 496.83 366 502 C366.72 504.32 367.4 506.65 368 509 C366.02 509.5 366.02 509.5 364 510 C364 510.66 364 511.32 364 512 C364.99 512.33 365.98 512.66 367 513 C366.99 516.1 366.82 519 366 522 C363.06 524.13 363.06 524.13 360 526 C359.27 528.31 358.6 530.65 358 533 C355.64 535.54 353.96 536.01 350.56 536.88 C346.92 537.72 346.92 537.72 344.69 540.31 C341.58 543.42 338.55 544.88 334.6 546.69 C331.88 547.93 331.88 547.93 329.52 550.12 C323.21 553.49 316.03 552.51 309.01 552.49 C302.71 552.56 298.2 552.86 292.75 556.09 C289.88 557.59 287.06 557.55 283.88 557.62 C279.14 557.76 275.47 558.44 271 560 C268.67 560 266.33 560 264 560 C262 560.65 260 561.32 258 562 C255.65 562.29 253.31 562.5 250.95 562.66 C248.77 562.85 248.77 562.85 247 565 C243.74 565.7 240.5 566.25 237.21 566.77 C233.66 567.37 230.55 568.09 227.27 569.59 C224.19 570.92 222.63 571.31 219.38 571.06 C215.73 570.92 213.34 571.43 210 573 C209.01 573 208.02 573 207 573 C207 573.66 207 574.32 207 575 C206.39 575.05 205.77 575.1 205.14 575.15 C204.33 575.22 203.52 575.3 202.69 575.38 C201.89 575.44 201.09 575.51 200.26 575.59 C197.73 575.9 197.73 575.9 195 578 C193.04 578.23 191.08 578.46 189.11 578.65 C186.7 578.96 186.7 578.96 183.5 580.5 C178.17 582.79 174.14 583.83 168.62 581.69 C167.43 581.13 166.23 580.57 165 580 C161.69 579.19 158.36 578.57 155 578 C155 580.97 155 583.94 155 587 C155.74 586.67 156.49 586.34 157.25 586 C162.51 584.6 167.59 584.84 173 585 C173 585.66 173 586.32 173 587 C178.5 586.63 183.11 585.73 188.21 583.63 C190.51 582.82 192.58 582.85 195 583 C195.33 582.67 195.66 582.34 196 582 C199.72 581.71 200.78 581.85 204 584 C205.95 584.31 205.95 584.31 208 584.25 C209.02 584.26 209.02 584.26 210.06 584.27 C212.32 584.1 212.32 584.1 215 582 C217.89 581.73 217.89 581.73 221.25 581.75 C222.35 581.74 223.45 581.74 224.58 581.73 C228 582 228 582 231.44 583.03 C235.45 584.12 238.61 584.1 242.75 583.81 C244.04 583.74 245.34 583.66 246.67 583.58 C250.06 582.99 250.97 582.63 253 580 C256.78 578.46 260.99 578.87 265 579 C265.99 579.5 265.99 579.5 267 580 C267 580.66 267 581.32 267 582 C268.98 582 270.96 582 273 582 C273 581.34 273 580.68 273 580 C277.13 577.93 282.48 578.89 287 579 C288.01 579.02 288.01 579.02 289.05 579.04 C291.18 579.09 293.31 579.16 295.44 579.25 C297.42 579.32 297.42 579.32 299.43 579.39 C303.46 580.08 304.97 581.38 308 584 C311.58 584.24 311.58 584.24 313.96 584.09 C319.75 583.84 325 585.12 330 588 C332.06 591.48 333.06 593.76 332.88 597.81 C332 600 332 600 329 602 C327.79 605.05 327.79 605.05 327 608 C328.07 607.79 329.14 607.59 330.25 607.38 C333.88 607.01 335.08 607.02 338 609 C338 610.32 338 611.64 338 613 C342.06 610.96 342.06 610.96 344 607 C342.35 606.34 340.7 605.68 339 605 C338.96 602.67 338.96 600.33 339 598 C340 597 340 597 342.88 596.75 C346 597 346 597 347.88 598.5 C348.25 599 348.62 599.49 349 600 C347.51 602.47 347.51 602.47 346 605 C348.31 605.33 350.62 605.66 353 606 C353.33 607.65 353.66 609.3 354 611 C348.86 615.43 348.86 615.43 345 616 C345.33 617.65 345.66 619.3 346 621 C348.31 621.66 350.62 622.32 353 623 C353 624.98 353 626.96 353 629 C353.8 629.14 354.61 629.29 355.44 629.44 C358 630 358 630 359 631 C360.1 639.32 360.1 639.32 357.88 642.71 C357.2 643.41 357.2 643.41 356.5 644.12 C353.82 647.21 353.7 647.48 353.88 651.25 C353.94 653.11 353.94 653.11 354 655 C353.01 655.66 352.02 656.32 351 657 C351 657.99 351 658.98 351 660 C349.61 661.61 349.61 661.61 347.75 663.19 C347.15 663.72 346.54 664.25 345.92 664.79 C344 666 344 666 340 666 C339.73 666.59 339.45 667.17 339.17 667.78 C336.61 672.65 333.4 676.2 328.62 678.94 C324.45 680.16 321.32 680.23 317 680 C317 680.66 317 681.32 317 682 C315.27 682.51 313.54 683.01 311.81 683.5 C310.37 683.92 310.37 683.92 308.89 684.34 C306.15 684.97 303.8 685.12 301 685 C300.67 683.68 300.34 682.36 300 681 C299.22 681.78 298.43 682.57 297.62 683.38 C292.97 688.03 291.23 688.29 284.73 688.56 C281.66 689.06 280.38 690.09 278 692 C274.63 691.76 273.41 691.41 271 689 C268.93 688.36 268.93 688.36 267 688 C267 688.72 267 689.44 267 690.19 C265.65 693.97 263.78 695.17 260.36 697.15 C257.62 698.14 256.1 697.99 253.25 697.5 C245.78 696.24 239.1 699.93 233 704 C231.11 704.03 229.21 704.06 227.32 704.03 C219.92 703.59 219.92 703.59 213.42 706.33 C212.51 707.41 211.61 708.49 210.71 709.57 C207.73 712.07 204.15 712.2 200.39 712.68 C197.99 712.87 197.99 712.87 196 714 C193.79 714.07 191.58 714.08 189.38 714.06 C188.19 714.05 187 714.04 185.77 714.04 C184.86 714.02 183.94 714.01 183 714 C183 714.66 183 715.32 183 716 C180.69 716.33 178.38 716.66 176 717 C176.33 717.99 176.66 718.98 177 720 C178.07 720.06 179.14 720.12 180.25 720.19 C184 721 184 721 185.69 723.44 C189.04 727.15 192.51 727.19 197.32 727.93 C198.2 727.96 199.09 727.98 200 728 C200.66 727.34 201.32 726.68 202 726 C205.12 726.37 205.12 726.37 208 727 C208 727.99 208 728.98 208 730 C208.99 730.5 208.99 730.5 210 731 C210.62 733.56 210.62 733.56 211 736 C214.59 735.31 214.59 735.31 218.06 734.19 C219.02 734.09 219.02 734.09 220 734 C221.36 735.31 222.69 736.65 224 738 C226.64 738.8 226.64 738.8 229 739 C229.23 740.03 229.45 741.06 229.69 742.12 C230.86 746.34 233.05 748.82 236 752 C235.67 752.66 235.34 753.32 235 754 C235.8 754.58 236.61 755.15 237.44 755.75 C240.11 758.1 240.58 758.63 241 762 C240.55 764.08 240.55 764.08 239.75 766.25 C239.32 767.43 239.32 767.43 238.88 768.62 C238.59 769.41 238.3 770.19 238 771 C237.66 772.08 237.66 772.08 237.3 773.19 C235.72 778 233.67 780.42 230 784 C229.38 785.36 228.8 786.74 228.25 788.12 C227.03 790.81 226.39 791.79 223.75 793.18 C221.51 793.91 219.31 794.53 217 795 C217 796.65 217 798.3 217 800 C216.27 800.13 215.55 800.26 214.8 800.4 C207.07 802.06 201.3 805.04 195.69 810.61 C194 812 194 812 191 812 C191 810.68 191 809.36 191 808 C190.13 808.52 190.13 808.52 189.24 809.06 C184.83 811.63 181.2 813.6 176 814 C176 814.66 176 815.32 176 816 C174.24 815.91 174.24 815.91 172.44 815.81 C164.93 815.8 155.3 816.8 149 821 C146.93 821.27 146.93 821.27 144.58 821.31 C143.29 821.35 143.29 821.35 141.97 821.38 C140.17 821.42 138.38 821.45 136.58 821.48 C130.92 821.65 127.1 822.59 122 825 C120.03 825 118.06 825 116.09 824.92 C112.17 825.07 108.65 826.66 105 828 C101.68 829.07 98.35 830.05 95 831 C93.84 831.33 93.84 831.33 92.65 831.67 C88.15 832.82 84.88 832.96 80.24 832.17 C73.54 831.67 66.2 833.59 60 836 C60 835.34 60 834.68 60 834 C58.89 834.47 57.77 834.95 56.62 835.44 C52.52 837.01 48.77 837.39 44.39 837.5 C41.81 837.85 41.81 837.85 39.59 839.98 C35.05 843.52 29.59 843.11 24 843 C21.66 842.5 21.66 842.5 19.69 841.88 C15.36 840.85 13.89 841.53 10 843.27 C6.76 844.45 3.42 844 0 844 C-1.8 844.75 -3.61 845.51 -5.41 846.27 C-9.73 847.49 -14.17 847.47 -18.63 847.66 C-28.15 848.07 -28.15 848.07 -37.1 851.05 C-39.55 852.27 -41.29 852.28 -44 852 C-44.66 851.34 -45.32 850.68 -46 850 C-51.84 850.21 -57.93 850.97 -62.94 854.12 C-66.39 856.24 -68.05 856.18 -72 856 C-73.34 856.65 -74.68 857.32 -76 858 C-79.78 858.37 -80.73 858.18 -84 856 C-87.65 856.25 -90.22 857.1 -93.56 858.62 C-97.35 860.14 -98.21 859.99 -102 859 C-106.18 858.7 -109.9 858.62 -113.88 860 C-117.86 861.27 -121.36 861.06 -125.51 860.88 C-128.25 860.8 -128.25 860.8 -131 863 C-136.01 864.75 -140.5 865.24 -145.76 865.09 C-147.22 865.07 -148.69 865.05 -150.15 865.03 C-152.43 864.99 -154.71 864.94 -156.98 864.88 C-159.2 864.84 -161.42 864.81 -163.64 864.78 C-164.95 864.75 -166.27 864.72 -167.63 864.69 C-171.25 865.02 -172.36 865.64 -175 868 C-179.96 869.79 -184.13 870.18 -189.38 870 C-196.49 869.89 -202.25 870.75 -209 873 C-211.88 873.02 -214.75 873 -217.62 872.94 C-224.11 872.87 -229.72 873.25 -236 875 C-243.47 876.47 -252.22 877.06 -259.7 875.4 C-262.34 874.94 -263.36 875.29 -265.75 876.44 C-269.64 878.07 -272.84 878.23 -277.02 878.01 C-279.21 877.89 -279.21 877.89 -282 879 C-283.4 879.07 -284.81 879.08 -286.21 879.06 C-287.04 879.05 -287.86 879.05 -288.72 879.04 C-289.59 879.02 -290.47 879.01 -291.38 879 C-298.33 878.95 -305.16 879.14 -312.09 879.78 C-315.99 880.07 -319.85 880.03 -323.76 879.94 C-326.17 879.9 -326.17 879.9 -329 881 C-339.59 882.26 -350.26 882.07 -360.9 881.88 C-366.72 881.81 -371.42 882.19 -377 884 C-379.37 884.21 -381.75 884.35 -384.12 884.44 C-390.86 884.76 -397.51 885.47 -404.19 886.38 C-405.08 886.49 -405.98 886.6 -406.9 886.72 C-411.73 887.4 -414.83 888.4 -419 891 C-422.01 891.33 -422.01 891.33 -425.12 891.25 C-426.16 891.23 -427.19 891.22 -428.26 891.2 C-431 891 -431 891 -434 890 C-434.78 888.3 -435.56 886.59 -436.25 884.85 C-437.57 881.59 -438.79 878.61 -442 877 C-447.65 876.52 -450.23 876.88 -455.08 880.05 C-458.17 881.58 -461.32 881.58 -464.72 881.79 C-467.12 881.9 -467.12 881.9 -469.62 883.06 C-473.63 884.64 -478.09 884.65 -482.19 883.25 C-483.08 883.13 -483.08 883.13 -484 883 C-485.14 883.96 -485.14 883.96 -486.31 884.94 C-489.75 887.58 -491.77 887.16 -496 887 C-496.99 887.66 -497.98 888.32 -499 889 C-501.79 889.25 -504.52 889.42 -507.31 889.5 C-512.66 889.66 -516.9 890.25 -522 892 C-524.97 892.49 -527.95 892.78 -530.94 893.06 C-532.49 893.22 -534.04 893.38 -535.59 893.54 C-536.34 893.61 -537.08 893.69 -537.85 893.77 C-541.7 894.18 -545.52 894.68 -549.3 895.5 C-553.55 896.29 -557.83 896.65 -562.12 897.06 C-563.03 897.15 -563.94 897.24 -564.87 897.34 C-571.59 898 -571.59 898 -575 898 C-575.87 898.23 -576.73 898.45 -577.62 898.69 C-582.07 899.1 -586.11 898.27 -590 896 C-590.82 893.87 -591 892.27 -591 890 C-591.66 890.33 -592.32 890.66 -593 891 C-592.81 891.62 -592.63 892.24 -592.44 892.88 C-592 895 -592 895 -593 897 C-594.67 897.04 -596.33 897.04 -598 897 C-599 896 -599 896 -599.06 892.44 C-599.04 891.3 -599.02 890.17 -599 889 C-600.11 888.81 -601.23 888.63 -602.38 888.44 C-603.57 887.96 -604.77 887.49 -606 887 C-607.13 883.56 -607.13 883.56 -608 880 C-610.48 878.03 -610.48 878.03 -613 877 C-612.39 870.52 -612.39 870.52 -610.56 868.06 C-609 867 -609 867 -607 867 C-605.92 864.35 -604.91 861.72 -604 859 C-601.08 856.92 -599.62 856 -596 856 C-596 855.34 -596 854.68 -596 854 C-591.81 850.9 -587.21 848.11 -582.12 846.81 C-579.03 846.22 -579.03 846.22 -577 844.5 C-574.78 842.83 -572.79 842.4 -570.13 841.74 C-566.37 840.44 -563.05 838.28 -559.65 836.24 C-556.83 834.92 -555.07 834.75 -552 835 C-552 834.34 -552 833.68 -552 833 C-546.3 831.06 -546.3 831.06 -543.69 830.56 C-543.13 830.38 -542.57 830.19 -542 830 C-541.67 829.01 -541.34 828.02 -541 827 C-538.56 825.34 -536.4 824.87 -533.5 824.25 C-528.59 823.12 -524.42 820.75 -520.03 818.34 C-517 817 -517 817 -513.62 816.59 C-509.05 815.84 -505.96 813.97 -502.06 811.56 C-496.72 808.28 -492.15 806.31 -486 805 C-484.55 804.55 -483.11 804.08 -481.69 803.56 C-480.73 803.22 -480.73 803.22 -479.76 802.88 C-477.75 801.88 -476.57 800.59 -475 799 C-473.02 798.27 -471.02 797.6 -469 797 C-468.34 796.67 -467.68 796.34 -467 796 C-465 795.96 -463 795.96 -461 796 C-461 795.34 -461 794.68 -461 794 C-455.46 791.96 -450.21 790.66 -444.38 789.69 C-438.93 788.73 -435.64 787.45 -431.82 783.43 C-427.95 780.39 -422.72 779.96 -418 779 C-417.01 778.67 -416.02 778.34 -415 778 C-415.33 777.34 -415.66 776.68 -416 776 C-418.25 776.31 -420.5 776.62 -422.75 776.94 C-424 777.11 -425.26 777.29 -426.55 777.46 C-429.81 777.91 -429.81 777.91 -432.17 778.57 C-435.04 779.24 -437.85 778.91 -440.78 778.74 C-443.09 778.8 -443.09 778.8 -444.72 780.46 C-448.25 782.84 -451.83 782.61 -456 782.75 C-456.81 782.79 -457.61 782.84 -458.45 782.88 C-464.46 783.15 -464.46 783.15 -466.97 782.47 C-469.39 781.91 -471.15 782.14 -473.59 782.52 C-474.46 782.66 -475.32 782.79 -476.22 782.93 C-477.56 783.15 -477.56 783.15 -478.94 783.38 C-479.83 783.51 -480.73 783.65 -481.65 783.8 C-485.08 784.34 -488.5 784.9 -491.91 785.61 C-494 786 -494 786 -497.56 785.88 C-500.95 785.66 -500.95 785.66 -502.91 787.49 C-505.48 789.35 -506.81 789.34 -509.95 789.26 C-511.34 789.24 -511.34 789.24 -512.77 789.21 C-513.73 789.19 -514.69 789.16 -515.69 789.12 C-517.61 789.08 -519.53 789.04 -521.45 789.01 C-522.3 788.98 -523.15 788.96 -524.02 788.93 C-526 788.77 -526 788.77 -527 790 C-528.98 790.26 -530.96 790.52 -532.95 790.74 C-535.1 790.97 -535.1 790.97 -537.56 791.62 C-540 792 -540 792 -543.38 791.38 C-547.99 790.9 -549.93 791.88 -554 794 C-554.33 794.33 -554.66 794.66 -555 795 C-557.84 795.32 -560.68 795.51 -563.53 795.72 C-565.94 795.73 -565.94 795.73 -567 797 C-570.57 797.16 -573.56 796.89 -577 796 C-577.33 796.33 -577.66 796.66 -578 797 C-580.03 797.38 -582.08 797.7 -584.12 798 C-585.31 798.17 -586.49 798.35 -587.71 798.52 C-588.79 798.68 -589.88 798.84 -591 799 C-592.26 799.21 -593.52 799.41 -594.81 799.62 C-604.75 800.79 -615.93 799.61 -624.25 793.69 C-625.16 793.13 -626.07 792.57 -627 792 C-630.12 792.82 -630.12 792.82 -633 794 C-635.37 793.13 -635.37 793.13 -637 792 C-637 790.02 -637 788.04 -637 786 C-637.84 785.94 -638.69 785.88 -639.55 785.82 C-640.65 785.73 -641.75 785.65 -642.88 785.56 C-643.97 785.48 -645.06 785.4 -646.18 785.32 C-649 785 -649 785 -651 784 C-651.19 782.58 -651.19 782.58 -651.38 781.12 C-652.13 777.36 -652.98 777.11 -656 775 C-656.33 774.15 -656.66 773.31 -657 772.44 C-657.75 769.85 -657.75 769.85 -660 769 C-662.79 767.61 -663.04 765.87 -664 763 C-664.33 762.67 -664.66 762.34 -665 762 C-664.91 760.47 -664.75 758.95 -664.56 757.44 C-664.46 756.61 -664.36 755.78 -664.25 754.93 C-664.17 754.3 -664.09 753.66 -664 753 C-664.66 753 -665.32 753 -666 753 C-666.62 750.69 -666.62 750.69 -667 748 C-666.34 747.01 -665.68 746.02 -665 745 C-664.31 741.72 -664 738.35 -664 735 C-664.5 734.28 -664.99 733.56 -665.5 732.81 C-667.39 729.27 -667.44 726.96 -667 723 C-665.63 721.06 -665.63 721.06 -664 720 C-663.34 720 -662.68 720 -662 720 C-661.6 719.04 -661.6 719.04 -661.19 718.06 C-660 716 -660 716 -657 715 C-656.69 714.37 -656.37 713.73 -656.05 713.08 C-654.78 710.56 -653.72 710.03 -651.25 708.75 C-645.64 705.44 -642.16 700.81 -639.69 694.81 C-637.46 691.1 -634.79 689.94 -630.96 688.08 C-628.84 687.15 -628.84 687.15 -628 685 C-632.23 686.69 -632.23 686.69 -635 690 C-638.3 689.34 -641.6 688.68 -645 688 C-645 688.66 -645 689.32 -645 690 C-650.27 693.07 -650.27 693.07 -653.75 692.75 C-656 692 -656 692 -658 691 C-660 691.31 -662 691.65 -664 692 C-665.89 692.25 -667.79 692.48 -669.69 692.69 C-670.62 692.79 -671.55 692.9 -672.51 693.01 C-675 693 -675 693 -678 691 C-680.61 690.91 -680.61 690.91 -683.44 691.12 C-688.69 691.23 -688.69 691.23 -691.44 689.19 C-691.95 688.47 -692.47 687.74 -693 687 C-695.65 684.45 -697.55 683.81 -701.12 683.44 C-705 683 -705 683 -707 681 C-709.01 681.29 -711.01 681.63 -713 682 C-713.66 681.67 -714.32 681.34 -715 681 C-715 679.02 -715 677.04 -715 675 C-717.31 674.34 -719.62 673.68 -722 673 C-722 670.03 -722 667.06 -722 664 C-722.99 663.67 -723.98 663.34 -725 663 C-725 662.34 -725 661.68 -725 661 C-725.99 660.67 -726.98 660.34 -728 660 C-728 659.01 -728 658.02 -728 657 C-729.09 656.9 -730.19 656.79 -731.31 656.69 C-735 656 -735 656 -737 654.75 C-738 653 -738 653 -737.69 650.31 C-737.46 649.55 -737.23 648.79 -737 648 C-736.34 648 -735.68 648 -735 648 C-736.37 644.84 -736.99 644.01 -740 642 C-740.47 637.8 -739.79 634.8 -738 631 C-738.64 630.77 -739.28 630.55 -739.94 630.31 C-742 629 -742 629 -742.62 626.62 C-742.75 625.76 -742.87 624.89 -743 624 C-743.37 623.28 -743.74 622.56 -744.12 621.81 C-744.56 620.92 -744.56 620.92 -745 620 C-744.67 619.34 -744.34 618.68 -744 618 C-743.34 618 -742.68 618 -742 618 C-742 618.99 -742 619.98 -742 621 C-740.68 621 -739.36 621 -738 621 C-738 620.34 -738 619.68 -738 619 C-737.34 618.34 -736.68 617.68 -736 617 C-736.99 615.51 -736.99 615.51 -738 614 C-738.23 611.62 -738.23 611.62 -738.19 609 C-738.18 608.13 -738.17 607.27 -738.17 606.38 C-738 604 -738 604 -737 601 C-735.02 601.33 -733.04 601.66 -731 602 C-731 601.01 -731 600.02 -731 599 C-731.74 598.79 -732.49 598.59 -733.25 598.38 C-736.8 596.6 -737.85 594.29 -740 591 C-741.36 590.26 -741.36 590.26 -742.75 589.5 C-743.49 589 -744.24 588.51 -745 588 C-745.39 584.84 -745.43 582.86 -744 580 C-744.99 579.67 -745.98 579.34 -747 579 C-746.01 576.69 -745.02 574.38 -744 572 C-749.15 571.91 -753.92 572.15 -759 573 C-759 571.68 -759 570.36 -759 569 C-757.35 568.67 -755.7 568.34 -754 568 C-754.35 567.07 -754.7 566.14 -755.06 565.19 C-756 562 -756 562 -755 559 C-755.99 558.67 -756.98 558.34 -758 558 C-757.67 557.01 -757.34 556.02 -757 555 C-758.65 555 -760.3 555 -762 555 C-761.34 556.32 -760.68 557.64 -760 559 C-762.76 560.07 -764.54 560.16 -767.34 559.18 C-769.58 558.16 -771.8 557.12 -774 556 C-774.19 553.69 -774.19 553.69 -774 551 C-773.02 549.98 -772.02 548.98 -771 548 C-770.28 545.39 -770.28 545.39 -770 543 C-770.62 542.9 -771.24 542.79 -771.88 542.69 C-774 542 -774 542 -776 539 C-775.46 534.44 -772.91 530.13 -771.06 525.97 C-770.02 523.05 -769.92 521.05 -770 518 C-769.48 517.55 -768.97 517.09 -768.44 516.62 C-767.96 516.09 -767.49 515.55 -767 515 C-767.19 513.91 -767.37 512.81 -767.56 511.69 C-768 508 -768 508 -766.44 504.62 C-763.6 501.57 -762.1 501.19 -758 501 C-757.05 496.23 -756.76 491.85 -757 487 C-759.5 484.5 -760.67 484.64 -764.12 484.38 C-765.04 484.3 -765.95 484.23 -766.88 484.15 C-767.58 484.1 -768.28 484.05 -769 484 C-769 483.34 -769 482.68 -769 482 C-769.61 482.31 -770.23 482.62 -770.86 482.95 C-771.67 483.33 -772.48 483.72 -773.31 484.12 C-774.11 484.52 -774.91 484.91 -775.74 485.32 C-776.86 485.66 -776.86 485.66 -778 486 C-781.61 483.6 -781.85 482.05 -783 478 C-784.58 478.37 -784.58 478.37 -786.19 478.75 C-790 479 -790 479 -793 477.5 C-795 475 -795 475 -794.81 471.25 C-794.54 470.18 -794.28 469.11 -794 468 C-794.97 467.73 -795.94 467.46 -796.94 467.19 C-797.95 466.8 -798.96 466.4 -800 466 C-800.33 465.01 -800.66 464.02 -801 463 C-798.92 459.88 -798.44 459.5 -795.12 458.31 C-794.45 458.06 -793.77 457.81 -793.07 457.55 C-791 457 -791 457 -787 457 C-787.5 455.02 -787.5 455.02 -788 453 C-789.01 453.64 -790.02 454.28 -791.06 454.94 C-794.68 457 -797.8 457.84 -802 458 C-802.99 457.34 -803.98 456.68 -805 456 C-805 454.68 -805 453.36 -805 452 C-797.38 451 -797.38 451 -794 451 C-793.22 449.21 -793.22 449.21 -793 447 C-794.35 444.75 -794.35 444.75 -796 443 C-796.81 443.48 -796.81 443.48 -797.63 443.97 C-800.49 445.21 -802.83 445.34 -805.94 445.5 C-810.07 445.71 -813.23 446.28 -817 448 C-816.48 445.24 -815.89 442.67 -815 440 C-815.5 439.65 -815.99 439.3 -816.5 438.94 C-818.75 436.03 -818.26 433.57 -818 430 C-817.67 429.34 -817.34 428.68 -817 428 C-815.68 428 -814.36 428 -813 428 C-813 427.34 -813 426.68 -813 426 C-814.65 426.33 -816.3 426.66 -818 427 C-818.33 425.68 -818.66 424.36 -819 423 C-818.01 423 -817.02 423 -816 423 C-816.02 422.07 -816.04 421.14 -816.06 420.19 C-816 417 -816 417 -815 414 C-815.99 413.34 -816.98 412.68 -818 412 C-818.19 409.38 -818.19 409.38 -818 407 C-817.34 407 -816.68 407 -816 407 C-815.06 401.95 -815.06 401.95 -816 397 C-815.16 394.55 -814.16 392.31 -813 390 C-811.35 390.33 -809.7 390.66 -808 391 C-808.08 389.95 -808.16 388.9 -808.25 387.81 C-807.95 383.27 -807.4 381.99 -804 379 C-801.69 378.13 -799.42 377.45 -797.02 376.87 C-794.85 376.16 -794.85 376.16 -793.8 374.07 C-793.54 373.39 -793.27 372.71 -793 372 C-791.38 368.6 -790.6 367.28 -787.12 365.69 C-784.28 365.06 -781.89 364.83 -779 365 C-778.67 363.35 -778.34 361.7 -778 360 C-775.03 359.67 -772.06 359.34 -769 359 C-769 357.68 -769 356.36 -769 355 C-766.54 351.31 -765.04 351.1 -760.88 349.81 C-759.78 349.47 -758.68 349.12 -757.55 348.77 C-756.71 348.52 -755.87 348.26 -755 348 C-754.79 344.11 -754.79 344.11 -756 341 C-757.58 341.09 -757.58 341.09 -759.19 341.19 C-763.29 340.99 -764.67 340.22 -768 338 C-769.98 337.29 -771.98 336.61 -774 336 C-773.9 335.31 -773.81 334.63 -773.71 333.92 C-773.6 333.02 -773.49 332.12 -773.38 331.19 C-773.26 330.29 -773.14 329.4 -773.02 328.48 C-772.76 325.74 -772.76 325.74 -775 323 C-776.32 323 -777.64 323 -779 323 C-779.57 320.82 -780.07 318.65 -780.5 316.44 C-780.97 313.88 -780.97 313.88 -782 311 C-782.66 311 -783.32 311 -784 311 C-785.75 308.88 -785.75 308.88 -787 306 C-786.38 302.81 -786.38 302.81 -785 300 C-784.01 299.34 -783.02 298.68 -782 298 C-781.75 295.42 -781.75 295.42 -782 293 C-782.66 293 -783.32 293 -784 293 C-787.39 284.04 -787.39 284.04 -785.81 279.88 C-785.21 279.26 -784.62 278.64 -784 278 C-783.34 278 -782.68 278 -782 278 C-781.34 276.68 -780.68 275.36 -780 274 C-779.34 274 -778.68 274 -778 274 C-778.54 273.36 -779.07 272.72 -779.62 272.06 C-781.39 268.12 -780.73 265.97 -779.74 261.89 C-779 260 -779 260 -777 259 C-775.34 258.64 -773.67 258.31 -772 258 C-771.81 256.08 -771.81 256.08 -771.62 254.12 C-771.25 250.25 -771.25 250.25 -769 248 C-766.31 247.73 -763.71 247.91 -761 248 C-760.66 247.2 -760.66 247.2 -760.31 246.38 C-759 244 -759 244 -756.5 241.06 C-753.92 238.25 -753.92 238.25 -753.06 235.31 C-752 233 -752 233 -749.38 231.25 C-746.6 230.22 -744.62 229.75 -741.75 229.44 C-737.98 229.39 -737.98 229.39 -736 227 C-733.61 226.73 -733.61 226.73 -730.75 226.62 C-725.68 226.27 -723.14 225.01 -719 222 C-716.68 221.6 -714.34 221.26 -712 221 C-709.77 220.01 -709.77 220.01 -708 219 C-707.34 219 -706.68 219 -706 219 C-703.9 218.24 -703.9 218.24 -702 217 C-701.67 216.01 -701.34 215.02 -701 214 C-698.27 213.21 -695.66 212.59 -692.88 212.06 C-688.29 211.18 -684.28 210.35 -680.27 207.88 C-676.97 205.98 -675.57 205.56 -671.88 205.81 C-668.36 205.97 -665.45 205.73 -662 205 C-661.01 205.33 -660.02 205.66 -659 206 C-657.19 205.22 -657.19 205.22 -655.25 204.06 C-649.71 201.39 -644.58 201.81 -638.55 202.15 C-634.57 201.98 -632.33 201.16 -629 199 C-628.67 198.01 -628.34 197.02 -628 196 C-634.61 195.9 -641.05 196.27 -647.62 196.94 C-648.53 197.02 -649.43 197.11 -650.36 197.2 C-655.26 197.68 -660.12 198.3 -665 199 C-666.96 199.17 -668.92 199.31 -670.88 199.44 C-675.39 199.74 -679.9 200.07 -684.41 200.47 C-696.2 201.51 -707.98 202.26 -719.81 202.69 C-721.66 202.76 -721.66 202.76 -723.55 202.83 C-731.11 203.08 -738.48 202.81 -746 202 C-746.29 201.2 -746.58 200.4 -746.88 199.57 C-748.21 196.52 -749.06 196.29 -752 195 C-752.66 194.01 -753.32 193.02 -754 192 C-754.99 191.57 -754.99 191.57 -756 191.12 C-758.71 189.6 -759.09 187.89 -760 185 C-761.65 185 -763.3 185 -765 185 C-764.81 181.69 -764.81 181.69 -764 178 C-762 176.44 -762 176.44 -759 175 C-757.64 174 -756.29 173 -754.94 172 C-749.58 168.43 -744.26 167.22 -738 166 C-736.65 165.71 -735.3 165.42 -733.96 165.12 C-722.71 162.77 -722.71 162.77 -717.62 163.57 C-716.43 163.71 -715.23 163.85 -714 164 C-713.13 162.82 -713.13 162.82 -712.25 161.62 C-710 159 -710 159 -707.16 158.51 C-705 158.38 -702.84 158.29 -700.68 158.24 C-697.85 158.28 -697.85 158.28 -696 156 C-692.69 155.69 -689.39 155.62 -686.07 155.54 C-682.92 155.33 -682.92 155.33 -681.38 153.07 C-680.93 152.39 -680.47 151.7 -680 151 C-675.43 148.82 -670.61 147.81 -665.56 148 C-662.1 148.4 -662.1 148.4 -660.5 146.62 C-659.76 145.82 -659.76 145.82 -659 145 C-654.75 143.46 -650.53 142.72 -646 143 C-646 142.34 -646 141.68 -646 141 C-640.39 138.85 -635.27 137.63 -629.26 137.31 C-626.8 136.97 -625.19 136.12 -623 135 C-621 135 -619 135 -617 135 C-616.34 134.34 -615.68 133.68 -615 133 C-612.08 131.78 -609.02 130.94 -606 130 C-604.97 129.65 -603.93 129.31 -602.87 128.95 C-586.32 123.55 -586.32 123.55 -580.72 125.99 C-579.87 126.49 -579.87 126.49 -579 127 C-577.67 125.82 -577.67 125.82 -576.31 124.62 C-571.35 120.54 -566.34 119.58 -560.11 118.46 C-558.02 118.2 -558.02 118.2 -557 117 C-555 117 -553 117 -551 117 C-550.67 116.67 -550.34 116.34 -550 116 C-547.22 114.01 -545.66 112.99 -542.19 113.06 C-538.9 113 -537.84 112.54 -535.06 111 C-531.18 108.89 -528.44 108.92 -524 109 C-522.51 108.52 -521.03 108 -519.56 107.44 C-514.9 105.75 -511.83 105.92 -507 107 C-506.01 107.66 -505.02 108.32 -504 109 C-502.68 109 -501.36 109 -500 109 C-498.72 107.57 -498.72 107.57 -497.75 105.69 C-495.39 102.15 -493.38 100.68 -489.32 99.43 C-484.11 98.46 -478.26 97.52 -473.67 100.52 C-473.12 101.01 -472.57 101.5 -472 102 C-471.54 100.79 -471.54 100.79 -471.06 99.56 C-470 97 -470 97 -469 96 C-467 95.74 -465 95.48 -462.99 95.26 C-460.95 95.05 -460.95 95.05 -458.88 94.38 C-457 94 -457 94 -454 94.62 C-452.51 94.81 -452.51 94.81 -451 95 C-450.42 94.54 -449.84 94.08 -449.25 93.6 C-446.24 91.46 -443.7 91.23 -440.06 90.75 C-438.86 90.58 -437.65 90.41 -436.41 90.23 C-433.28 90.02 -431.03 90.39 -428 91 C-424.87 89.83 -421.98 88.49 -419 87 C-417.32 87.28 -415.65 87.61 -414 88 C-413.67 87.34 -413.34 86.68 -413 86 C-408.79 83.82 -404.4 83.42 -399.75 82.94 C-394.99 82.83 -394.99 82.83 -391 81 C-388.19 80.62 -385.38 80.29 -382.56 80 C-377.12 79.63 -377.12 79.63 -372 78 C-368.71 77.59 -365.42 77.23 -362.12 76.93 C-357.47 76.42 -354.17 75.25 -350 73 C-347.52 72.3 -347.52 72.3 -345.25 71.88 C-342.92 71.42 -341.13 71.06 -339 70 C-337.65 69.87 -336.29 69.77 -334.94 69.69 C-331.39 69.34 -328.75 68.57 -325.56 67 C-322.29 65.41 -319.7 64.73 -316.06 64.5 C-311.41 64.2 -307.89 62.88 -303.64 61.05 C-297.6 58.64 -291.17 57.1 -284.69 56.56 C-279.88 56.14 -275.38 54.81 -270.74 53.52 C-264.87 51.91 -259.01 50.86 -253 50 C-252.24 49.89 -251.48 49.78 -250.7 49.66 C-249.14 49.43 -247.57 49.21 -246 49 C-246 48.34 -246 47.68 -246 47 C-239.26 44.33 -233.29 43.57 -226.04 43.31 C-222.83 43.22 -222.83 43.22 -220 41 C-217.67 40.64 -215.34 40.3 -213 40 C-212.67 39.67 -212.34 39.34 -212 39 C-210.03 38.62 -208.05 38.3 -206.06 38 C-204.89 37.82 -203.71 37.65 -202.5 37.46 C-199.54 37.07 -196.6 36.79 -193.62 36.56 C-189.18 36.16 -186.01 34.93 -182 33 C-174.32 30.16 -166.09 28.41 -157.92 27.86 C-153.6 27.53 -150.21 26.78 -146.25 25 C-141.14 22.78 -136.41 22.45 -130.88 22.27 C-128.07 22.19 -128.07 22.19 -126.11 21.01 C-122.91 19.48 -119.61 19.61 -116.12 19.5 C-111.09 19.34 -106.75 18.78 -102 17 C-97.47 15.79 -92.98 14.95 -88.31 14.5 C-83.68 14.04 -79.7 12.67 -75.38 10.96 C-71.23 9.78 -67.41 9.67 -63.12 9.56 C-56.6 9.32 -50.29 8.74 -43.88 7.5 C-43.19 7.37 -42.51 7.24 -41.81 7.1 C-38.63 6.64 -38.63 6.64 -36 5 C-34.44 4.82 -32.88 4.68 -31.31 4.56 C-28.24 4.29 -25.87 3.95 -22.94 2.94 C-19.52 1.85 -16.73 1.97 -13.17 2.06 C-8.49 1.93 -4.82 -0.41 0 0 Z M45 39 C42.44 40.8 42.44 40.8 40 43 C40 43.99 40 44.98 40 46 C42.47 44.85 44.05 43.95 46 42 C45.67 41.01 45.34 40.02 45 39 Z M87 40 C88.49 40.99 88.49 40.99 90 42 C90.33 41.34 90.66 40.68 91 40 C89.68 40 88.36 40 87 40 Z M236 52 C237 54 237 54 237 54 Z M236 121 C236.99 121.5 236.99 121.5 238 122 C238.33 122.99 238.66 123.98 239 125 C240.32 124.67 241.64 124.34 243 124 C243 123.01 243 122.02 243 121 C240.69 121 238.38 121 236 121 Z M-577 128 C-577.33 129.32 -577.66 130.64 -578 132 C-577.01 132 -576.02 132 -575 132 C-575.33 130.68 -575.66 129.36 -576 128 C-576.33 128 -576.66 128 -577 128 Z M-585 133 C-585 133.66 -585 134.32 -585 135 C-583.02 134.73 -583.02 134.73 -581 134 C-580.67 133.01 -580.34 132.02 -580 131 C-582.32 130.82 -582.32 130.82 -585 133 Z M262 165 C262 165.66 262 166.32 262 167 C262.66 166.67 263.32 166.34 264 166 C263.34 165.67 262.68 165.34 262 165 Z M-757 181 C-757.33 181.66 -757.66 182.32 -758 183 C-757.34 183 -756.68 183 -756 183 C-756.33 182.34 -756.66 181.68 -757 181 Z M134 244 C134 244.99 134 245.98 134 247 C134.99 246.67 135.98 246.34 137 246 C136.67 245.34 136.34 244.68 136 244 C135.34 244 134.68 244 134 244 Z M347 257 C347.66 257.66 348.32 258.32 349 259 C349.33 258.34 349.66 257.68 350 257 C349.01 257 348.02 257 347 257 Z M348 267 C349 269 349 269 349 269 Z M406 350 C405.75 350.78 405.51 351.57 405.25 352.38 C403.85 355.32 402.99 355.9 400 357 C403.31 357.85 403.31 357.85 407 358 C409.52 356.39 409.52 356.39 411 354 C411 353.01 411 352.02 411 351 C409.35 350.67 407.7 350.34 406 350 Z M-809 437 C-808 441 -808 441 -808 441 Z M150 465 C149.27 467.56 149.27 467.56 149 470 C151.8 469.61 152.82 469.2 154.75 467.06 C156.17 465.12 156.17 465.12 156 463 C152.82 462.72 152.82 462.72 150 465 Z M202 465 C202 465.66 202 466.32 202 467 C202.99 466.67 203.98 466.34 205 466 C204.01 465.67 203.02 465.34 202 465 Z M24 479 C28 480 28 480 28 480 Z M130 484 C129.34 485.65 128.68 487.3 128 489 C130.31 489 132.62 489 135 489 C135.33 488.34 135.66 487.68 136 487 C134.69 485.44 134.69 485.44 133 484 C132.01 484 131.02 484 130 484 Z M-756 555 C-755.01 556.98 -754.02 558.96 -753 561 C-752.01 561 -751.02 561 -750 561 C-749.96 559.33 -749.96 557.67 -750 556 C-751.07 554.7 -751.07 554.7 -753.56 554.94 C-754.37 554.96 -755.17 554.98 -756 555 Z M-746 555 C-748.37 557.85 -748.37 557.85 -747.62 561.19 C-747.42 562.12 -747.21 563.04 -747 564 C-746.01 563.67 -745.02 563.34 -744 563 C-743.67 560.36 -743.34 557.72 -743 555 C-743.99 555 -744.98 555 -746 555 Z M317 590 C316.01 590.5 316.01 590.5 315 591 C315 591.66 315 592.32 315 593 C316.32 592.67 317.64 592.34 319 592 C318.34 591.34 317.68 590.68 317 590 Z M82 604 C82 604.99 82 605.98 82 607 C83.65 607 85.3 607 87 607 C87.33 606.01 87.66 605.02 88 604 C86.02 604 84.04 604 82 604 Z M129 732 C128.67 733.32 128.34 734.64 128 736 C129.32 736.33 130.64 736.66 132 737 C132.33 735.68 132.66 734.36 133 733 C131.68 732.67 130.36 732.34 129 732 Z M-406 773 C-406.66 773.66 -407.32 774.32 -408 775 C-406.35 775 -404.7 775 -403 775 C-403 774.34 -403 773.68 -403 773 C-403.99 773 -404.98 773 -406 773 Z " fill="#000000" transform="translate(836,52)"/>
<path d="M0 0 C0 1.32 0 2.64 0 4 C-1.65 4 -3.3 4 -5 4 C-5.33 3.01 -5.66 2.02 -6 1 C-4 0 -4 0 0 0 Z " fill="#000000" transform="translate(865,62)"/>
<path d="M0 0 C0.66 0 1.32 0 2 0 C1.67 1.65 1.34 3.3 1 5 C0.34 4.67 -0.32 4.34 -1 4 C-0.67 2.68 -0.34 1.36 0 0 Z " fill="#000000" transform="translate(1197,355)"/>
<path d="M0 0 C0.99 0.33 1.98 0.66 3 1 C3 1.99 3 2.98 3 4 C2.01 3.67 1.02 3.34 0 3 C0 2.01 0 1.02 0 0 Z " fill="#000000" transform="translate(390,930)"/>
<path d="M0 0 C0.66 0 1.32 0 2 0 C2 0.66 2 1.32 2 2 C1.34 2 0.68 2 0 2 C0 1.34 0 0.68 0 0 Z " fill="#000000" transform="translate(31,499)"/>
<path d="M0 0 C0.66 0 1.32 0 2 0 C2 0.66 2 1.32 2 2 C1.34 2 0.68 2 0 2 C0 1.34 0 0.68 0 0 Z " fill="#000000" transform="translate(1201,324)"/>
<path d="M0 0 C0.66 0 1.32 0 2 0 C2 0.66 2 1.32 2 2 C1.34 2 0.68 2 0 2 C0 1.34 0 0.68 0 0 Z " fill="#000000" transform="translate(1196,319)"/>
<path d="M0 0 C2 1 2 1 2 1 Z " fill="#000000" transform="translate(111,719)"/>
<path d="" fill="#000000" transform="translate(0,0)"/>
<path d="" fill="#000000" transform="translate(0,0)"/>
<path d="" fill="#000000" transform="translate(0,0)"/>
</svg>
